<svg width="24" height="25" viewBox="0 0 24 25" fill="none" xmlns="../../../../../../www.w3.org/2000/svg.html">
<path fill-rule="evenodd" clip-rule="evenodd" d="M14 1.33333C14 0.596954 14.597 0 15.3333 0H22.6668C23.0204 0 23.3595 0.140479 23.6096 0.390532C23.8596 0.640584 24.0001 0.979728 24.0001 1.33335L24 8.66669C24 9.40307 23.403 10 22.6666 10C21.9303 9.99999 21.3333 9.40303 21.3333 8.66665L21.3334 4.55226L12.9429 12.9428C12.4222 13.4635 11.5779 13.4635 11.0572 12.9428C10.5365 12.4221 10.5365 11.5779 11.0572 11.0572L19.4478 2.66667H15.3333C14.597 2.66667 14 2.06971 14 1.33333ZM0 4.66667C0 2.82572 1.49238 1.33333 3.33333 1.33333H9.33333C10.0697 1.33333 10.6667 1.93029 10.6667 2.66667C10.6667 3.40305 10.0697 4 9.33333 4H3.33333C2.96514 4 2.66667 4.29848 2.66667 4.66667V20.6812C2.66667 21.0496 2.96547 21.3482 3.33387 21.3479L19.3339 21.3349C19.7018 21.3347 20 21.0363 20 20.6683V14.6667C20 13.9303 20.597 13.3333 21.3333 13.3333C22.0697 13.3333 22.6667 13.9303 22.6667 14.6667V20.6683C22.6667 22.5082 21.1759 24.0001 19.336 24.0016L3.33603 24.0145C1.49403 24.016 0 22.5232 0 20.6812V4.66667Z" fill="white"/>
</svg>
