<svg width="23" height="32" viewBox="0 0 23 32" fill="none" xmlns="../../../../../../../www.w3.org/2000/svg.html">
<path d="M21.3996 28.8427C21.3996 31.758 12.8797 31.8334 11.9247 31.8334C10.9697 31.8334 2.4247 31.8334 2.4247 28.8427C2.4247 27.7871 3.45511 27.0332 5.59135 26.4802C5.82112 26.4268 6.06269 26.4652 6.26457 26.5872C6.46644 26.7093 6.61267 26.9054 6.67206 27.1337C6.72489 27.3603 6.68577 27.5986 6.5633 27.7964C6.44084 27.9942 6.24501 28.1355 6.01863 28.1892C5.42124 28.3261 4.84596 28.5461 4.30962 28.8427C9.24491 30.4851 14.5794 30.4851 19.5147 28.8427C18.9657 28.5348 18.3722 28.3143 17.7554 28.1892C17.6432 28.1612 17.5376 28.1113 17.4447 28.0424C17.3517 27.9736 17.2732 27.8871 17.2137 27.7879C17.1542 27.6887 17.1148 27.5788 17.0978 27.4644C17.0808 27.35 17.0865 27.2333 17.1145 27.1211C17.1426 27.0089 17.1925 26.9033 17.2613 26.8104C17.3302 26.7174 17.4167 26.639 17.5158 26.5795C17.615 26.5199 17.725 26.4806 17.8394 26.4635C17.9538 26.4465 18.0704 26.4522 18.1826 26.4802C20.344 27.008 21.3996 27.7871 21.3996 28.8427ZM11.9247 15.2964C11.1095 15.2964 10.3126 15.0546 9.63481 14.6017C8.957 14.1488 8.4287 13.5051 8.11674 12.752C7.80477 11.9989 7.72316 11.1701 7.88219 10.3706C8.04123 9.57106 8.4338 8.83663 9.01022 8.26021C9.58665 7.68378 10.3211 7.29123 11.1206 7.13219C11.9201 6.97316 12.7489 7.05477 13.502 7.36674C14.2552 7.6787 14.8989 8.20698 15.3518 8.88479C15.8047 9.5626 16.0464 10.3595 16.0464 11.1747C16.0464 12.2678 15.6121 13.3162 14.8392 14.0892C14.0662 14.8621 13.0178 15.2964 11.9247 15.2964ZM11.9247 13.5371C12.3919 13.5371 12.8487 13.3986 13.2372 13.139C13.6257 12.8794 13.9285 12.5104 14.1073 12.0787C14.2861 11.6471 14.3329 11.1721 14.2417 10.7138C14.1506 10.2555 13.9256 9.83459 13.5952 9.50419C13.2648 9.1738 12.8438 8.94881 12.3856 8.85765C11.9273 8.7665 11.4523 8.81328 11.0206 8.99208C10.5889 9.17089 10.22 9.47369 9.96039 9.86219C9.70081 10.2507 9.56226 10.7074 9.56226 11.1747C9.56226 11.8012 9.81118 12.4021 10.2542 12.8452C10.6973 13.2882 11.2981 13.5371 11.9247 13.5371ZM8.80832 23.7408C8.98895 23.5891 9.10318 23.3728 9.12665 23.1381C9.15013 22.9033 9.08096 22.6687 8.93395 22.4842C4.88765 17.4578 2.67604 13.5371 2.67604 11.1747C2.67604 8.72178 3.65042 6.36935 5.38488 4.63488C7.11935 2.90042 9.47179 1.92601 11.9247 1.92601C14.3776 1.92601 16.73 2.90042 18.4645 4.63488C20.199 6.36935 21.1734 8.72178 21.1734 11.1747C21.1734 15.4723 14.0358 23.7408 11.2964 26.5808C11.2128 26.6627 11.1464 26.7604 11.1011 26.8683C11.0557 26.9762 11.0324 27.092 11.0324 27.2091C11.0324 27.3261 11.0557 27.4419 11.1011 27.5498C11.1464 27.6577 11.2128 27.7555 11.2964 27.8374C11.4718 27.9859 11.6949 28.0662 11.9247 28.0636C12.0408 28.0652 12.1562 28.0439 12.264 28.0007C12.3718 27.9576 12.4701 27.8936 12.553 27.8123C12.9803 27.385 22.9326 17.0556 22.9326 11.1747C22.9326 9.7291 22.6479 8.29767 22.0947 6.96213C21.5415 5.62658 20.7307 4.41309 19.7085 3.3909C18.6863 2.36872 17.4728 1.55788 16.1373 1.00468C14.8017 0.451478 13.3703 0.166748 11.9247 0.166748C10.4791 0.166748 9.0477 0.451478 7.71216 1.00468C6.37661 1.55788 5.16311 2.36872 4.14092 3.3909C3.11874 4.41309 2.30791 5.62658 1.75471 6.96213C1.20151 8.29767 0.916748 9.7291 0.916748 11.1747C0.916748 14.0398 3.15354 18.2117 7.57682 23.7408C7.74125 23.902 7.96231 23.9923 8.19255 23.9923C8.4228 23.9923 8.64389 23.902 8.80832 23.7408ZM9.43663 24.5953C9.31806 24.7211 9.23917 24.8791 9.20987 25.0495C9.18056 25.2199 9.20212 25.3951 9.27184 25.5533C9.34156 25.7115 9.45635 25.8457 9.60187 25.939C9.74739 26.0324 9.91719 26.0807 10.0901 26.0781C10.2219 26.1122 10.3603 26.1122 10.4922 26.0781C10.5966 26.0277 10.6897 25.9564 10.7658 25.8688C10.8418 25.7812 10.8992 25.679 10.9345 25.5685C10.9698 25.458 10.9822 25.3415 10.9709 25.226C10.9597 25.1105 10.9251 24.9986 10.8691 24.8969C10.8164 24.8026 10.7485 24.7177 10.6681 24.6456C10.5103 24.4775 10.2929 24.3781 10.0626 24.3687C9.83233 24.3593 9.60755 24.4407 9.43663 24.5953Z" fill="#AA33FF" />
</svg>
