<?xml version="1.0" encoding="utf-8"?>
<!-- Generator: Adobe Illustrator 25.4.1, SVG Export Plug-In . SVG Version: 6.00 Build 0)  -->
<svg version="1.1" id="Layer_1" xmlns="http://www.w3.org/2000/svg" xmlns:xlink="http://www.w3.org/1999/xlink" x="0px" y="0px"
	 viewBox="0 0 48 48" style="enable-background:new 0 0 48 48;" xml:space="preserve">
<style type="text/css">
	.st0{fill:#FFFFFF;}
</style>
<path class="st0" d="M45.5,18.5l-21-11.1c-0.3-0.2-0.6-0.2-0.9,0l-21,11.1c-0.2,0.1-0.3,0.2-0.4,0.4C1.9,19.4,2,20,2.5,20.3L8,23.2
	v8.3c0,0.3,0.1,0.6,0.4,0.8c0.8,0.9,5.4,5.2,15.6,5.2c2.3,0,4.5-0.2,6.7-0.7c0.6-0.1,0.9-0.7,0.8-1.2c-0.1-0.6-0.7-0.9-1.2-0.8
	c-2.1,0.5-4.2,0.7-6.3,0.7c-8.7,0-13-3.5-14-4.4v-6.8l13.5,7.2c0.1,0.1,0.3,0.1,0.5,0.1c0.2,0,0.3,0,0.5-0.1L31,28
	c0.5-0.3,0.7-0.9,0.4-1.4c-0.3-0.5-0.9-0.7-1.4-0.4l-6,3.2l-18.9-10L24,9.4l18.9,10l-8.4,4.4l-10-5.3c-0.5-0.3-1.1-0.1-1.4,0.4
	s-0.1,1.1,0.4,1.4l9.9,5.2v14.2c0,0.6,0.4,1,1,1c0.6,0,1-0.4,1-1v-4.7c1.5-0.7,2.9-1.7,4.1-2.8c0.3-0.2,0.4-0.5,0.4-0.8v-8.3
	l5.5-2.9c0.2-0.1,0.3-0.2,0.4-0.4C46.1,19.4,46,18.7,45.5,18.5z M38,31c-0.8,0.7-1.6,1.3-2.5,1.8v-7.2l2.5-1.3V31z"/>
</svg>
