<?xml version="1.0" encoding="utf-8"?>
<!-- Generator: Adobe Illustrator 25.4.1, SVG Export Plug-In . SVG Version: 6.00 Build 0)  -->
<svg version="1.1" id="Layer_1" xmlns="http://www.w3.org/2000/svg" xmlns:xlink="http://www.w3.org/1999/xlink" x="0px" y="0px"
	 viewBox="0 0 48 48" style="enable-background:new 0 0 48 48;" xml:space="preserve">
<style type="text/css">
	.st0{fill:#FFFFFF;}
</style>
<path class="st0" d="M44.6,36.7c-0.1-0.1-0.3-0.2-0.4-0.3c0.3-0.5,0.5-1.2,0.5-1.8c0-1.9-1.6-3.5-3.5-3.5s-3.5,1.6-3.5,3.5
	c0,0.7,0.2,1.4,0.6,1.9c-0.1,0.1-0.2,0.2-0.3,0.2c-0.9,0.8-1.5,2-1.5,3.2v1.2c0,1.3,1.5,1.6,2,1.7c0.9,0.2,1.8,0.2,2.8,0.2
	c0.9,0,1.8-0.1,2.8-0.2c0.5-0.1,2-0.4,2-1.7v-1.2C46,38.6,45.5,37.5,44.6,36.7z M41.2,33c0.8,0,1.5,0.7,1.5,1.5S42.1,36,41.2,36
	c-0.3,0-0.5-0.1-0.7-0.2c-0.1-0.1-0.2-0.2-0.3-0.2c-0.3-0.3-0.5-0.7-0.5-1.1C39.8,33.7,40.4,33,41.2,33z M44,40.7l-0.4,0.1
	c-1.6,0.2-3.2,0.2-4.7,0l-0.4-0.1v-0.8c0-0.6,0.3-1.3,0.8-1.7c0.2-0.2,0.4-0.3,0.6-0.4c0.4,0.2,0.9,0.3,1.4,0.3c0.5,0,1-0.1,1.4-0.3
	c0.2,0.1,0.4,0.3,0.6,0.4c0.5,0.4,0.8,1,0.8,1.7V40.7z M9.7,36.4c0.4-0.5,0.6-1.2,0.6-1.9c0-1.9-1.6-3.5-3.5-3.5s-3.5,1.6-3.5,3.5
	c0,0.7,0.2,1.3,0.6,1.9c-0.1,0.1-0.2,0.2-0.3,0.3c-0.9,0.8-1.5,2-1.5,3.2v1.2c0,1.3,1.5,1.6,2,1.7C4.9,42.9,5.8,43,6.8,43
	c0.9,0,1.8,0,2.8-0.2c0.5-0.1,2-0.4,2-1.7v-1.2c0-1.2-0.5-2.4-1.5-3.2C9.9,36.6,9.8,36.5,9.7,36.4z M6.8,33c0.8,0,1.5,0.7,1.5,1.5
	S7.6,36,6.8,36c-0.3,0-0.6-0.1-0.8-0.2c-0.1-0.1-0.1-0.1-0.2-0.1c-0.3-0.3-0.5-0.7-0.5-1.1C5.2,33.7,5.9,33,6.8,33z M9.5,40.7
	l-0.4,0.1c-1.6,0.2-3.2,0.2-4.7,0L4,40.7v-0.9c0-0.7,0.3-1.3,0.8-1.7c0.2-0.2,0.4-0.3,0.6-0.4C5.8,37.9,6.2,38,6.8,38
	c0.5,0,1-0.1,1.4-0.3c0.2,0.1,0.4,0.3,0.6,0.4c0.5,0.4,0.8,1,0.8,1.7V40.7z M21.2,16.8c0.9,0.2,1.8,0.2,2.8,0.2c0.9,0,1.8,0,2.8-0.2
	c0.5-0.1,2-0.4,2-1.7v-1.2c0-1.2-0.5-2.4-1.5-3.2c-0.1-0.1-0.2-0.2-0.4-0.3c0.4-0.5,0.6-1.2,0.6-1.9C27.5,6.6,25.9,5,24,5
	s-3.5,1.6-3.5,3.5c0,0.7,0.2,1.3,0.6,1.9c-0.1,0.1-0.2,0.2-0.3,0.3c-0.9,0.8-1.5,2-1.5,3.2v1.2C19.2,16.4,20.8,16.7,21.2,16.8z
	 M26.8,14.7l-0.4,0.1c-1.6,0.2-3.2,0.2-4.7,0l-0.4-0.1v-0.8c0-0.6,0.3-1.3,0.8-1.7c0.2-0.2,0.4-0.3,0.6-0.4C23,11.9,23.5,12,24,12
	c0.5,0,1-0.1,1.4-0.3c0.2,0.1,0.4,0.3,0.5,0.4c0.5,0.4,0.8,1,0.8,1.7V14.7z M24,7c0.8,0,1.5,0.7,1.5,1.5S24.8,10,24,10
	c-0.3,0-0.6-0.1-0.8-0.2c-0.1-0.1-0.1-0.1-0.2-0.1c-0.3-0.3-0.5-0.7-0.5-1.1C22.5,7.7,23.2,7,24,7z M34.4,35.8
	c-0.2,0.3-0.5,0.5-0.9,0.5h0c-0.2,0-0.3-0.1-0.5-0.2l-9-5.7l-9,5.7c-0.2,0.1-0.4,0.2-0.6,0.2c-0.3,0-0.7-0.2-0.8-0.5
	c-0.3-0.5-0.1-1.1,0.3-1.4c0,0,0,0,0,0l9-5.7v-8c0-0.6,0.4-1,1-1s1,0.4,1,1v7.9l9.1,5.7C34.5,34.7,34.7,35.3,34.4,35.8z"/>
</svg>
