<svg id="Pages" xmlns="http://www.w3.org/2000/svg" viewBox="0 0 48 48"><defs><style>.cls-1{fill:#fff;}</style></defs><path class="cls-1" d="M16,25.5a1,1,0,0,1-1,1H5a3,3,0,0,1-3-3V8A3,3,0,0,1,5,5H26.5a3,3,0,0,1,3,3V18.25a1,1,0,0,1-2,0V8a1,1,0,0,0-1-1H5A1,1,0,0,0,4,8V23.5a1,1,0,0,0,1,1H15A1,1,0,0,1,16,25.5Zm6.83-11-5-5a1,1,0,0,0-1.41,0,1,1,0,0,0,0,1.42l3.29,3.29H8.38a1,1,0,0,0,0,2H19.71l-3.29,3.29A1,1,0,0,0,17.83,21l5-5A1,1,0,0,0,22.83,14.54ZM46,24.5V40a3,3,0,0,1-3,3H21.5a3,3,0,0,1-3-3V24.5a3,3,0,0,1,3-3H43A3,3,0,0,1,46,24.5Zm-2,0a1,1,0,0,0-1-1H21.5a1,1,0,0,0-1,1V40a1,1,0,0,0,1,1H43a1,1,0,0,0,1-1Zm-4.62,6.75H28L31.33,28a1,1,0,0,0,0-1.42,1,1,0,0,0-1.41,0l-5,5a1,1,0,0,0,0,1.42l5,5a1,1,0,1,0,1.41-1.42L28,33.25H39.38a1,1,0,0,0,0-2Z"/></svg>