<?xml version="1.0" encoding="utf-8"?>
<!-- Generator: Adobe Illustrator 25.4.1, SVG Export Plug-In . SVG Version: 6.00 Build 0)  -->
<svg version="1.1" id="Layer_1" xmlns="http://www.w3.org/2000/svg" xmlns:xlink="http://www.w3.org/1999/xlink" x="0px" y="0px"
	 viewBox="0 0 48 48" style="enable-background:new 0 0 48 48;" xml:space="preserve">
<style type="text/css">
	.st0{fill:#FFFFFF;}
</style>
<path class="st0" d="M43.5,13.1h-4.3V8.8c0,0,0,0,0,0c0-1.1-0.9-2-2-2H33c-1.1,0-2,0.9-2,2.1v4.3h-4.3c-1.1,0-2,0.9-2,2.1v1.1H5.4
	c-1.7,0-3,1.3-3,3v19c0,1.7,1.3,3,3,3h27.8c1.7,0,3-1.3,3-3v-6.5c0-0.6-0.4-1-1-1s-1,0.4-1,1v6.5c0,0.6-0.4,1-1,1h-9.2
	c-0.5-3.9-3.9-7-7.9-7s-7.4,3.1-7.9,7H5.4c-0.6,0-1-0.4-1-1v-19c0-0.6,0.4-1,1-1h19.2v1.1c0,1.1,0.9,2.1,2,2.1H31v4.3
	c0,1.1,0.9,2,2,2.1h4.2c0,0,0,0,0,0c1.1,0,2-0.9,2-2.1v-4.3h4.3c1.1,0,2.1-0.9,2.1-2.1v-4.2C45.6,14,44.7,13.1,43.5,13.1z M16,34.2
	c3,0,5.4,2.2,5.9,5H10.1C10.6,36.4,13,34.2,16,34.2z M43.6,19.4h-5.3c-0.6,0-1,0.4-1,1l-0.1,5.3L33,25.7v-5.3c0-0.6-0.4-1-1-1
	l-5.3-0.1l0-4.3H32c0.6,0,1-0.4,1-1V8.8l4.3,0.1v5.3c0,0.6,0.4,1,1,1h5.3c0,0,0.1,0,0.1,0.1L43.6,19.4z M11.2,26.2
	c0,2.6,2.1,4.8,4.8,4.8s4.8-2.1,4.8-4.8s-2.1-4.8-4.8-4.8S11.2,23.6,11.2,26.2z M18.8,26.2c0,1.5-1.2,2.8-2.8,2.8s-2.8-1.2-2.8-2.8
	s1.2-2.8,2.8-2.8v0c0,0,0,0,0,0C17.5,23.5,18.8,24.7,18.8,26.2z"/>
</svg>
