<svg id="Pages" xmlns="http://www.w3.org/2000/svg" viewBox="0 0 48 48"><defs><style>.cls-1{fill:#fff;}</style></defs><path class="cls-1" d="M7.81,20.65A1.65,1.65,0,0,0,8.13,22a1.6,1.6,0,0,0,1.25.6h5.73a1.6,1.6,0,0,0,1.25-.6,1.63,1.63,0,0,0,.31-1.38,4.56,4.56,0,0,0-2.28-3A2.82,2.82,0,0,0,15,15.86a2.85,2.85,0,1,0-5.7,0A2.81,2.81,0,0,0,10,17.69,4.58,4.58,0,0,0,7.81,20.65ZM12.19,15a.9.9,0,1,1-.9.9A.9.9,0,0,1,12.19,15Zm.05,4.1a2.59,2.59,0,0,1,2.39,1.6H9.85A2.61,2.61,0,0,1,12.24,19.06Zm9.65-5.8a1,1,0,0,1,1,1v9.87H37.22a1,1,0,0,1,0,2H22.87v9.82a1,1,0,1,1-1.95,0V26.07H6.51a1,1,0,1,1,0-2H20.92V14.24A1,1,0,0,1,21.89,13.26ZM7.27,30.43a1,1,0,0,1,1-1h6.84a1,1,0,0,1,0,2H8.25A1,1,0,0,1,7.27,30.43Zm0,4.14a1,1,0,0,1,1-1h9.23a1,1,0,0,1,0,2H8.25A1,1,0,0,1,7.27,34.57ZM38.94,4.81H31.57a7,7,0,0,0-1,14V21.1a1,1,0,0,0,.58.89.93.93,0,0,0,.4.09,1,1,0,0,0,.64-.25l3.38-2.94h3.35a7,7,0,0,0,0-14.08Zm0,12.13H35.22a1,1,0,0,0-.64.24l-2,1.77v-1a1,1,0,0,0-1-1,5.09,5.09,0,0,1,0-10.17h7.37a5.09,5.09,0,0,1,0,10.17Zm1.79,5a1,1,0,0,0-1,1V37a1.43,1.43,0,0,1-1.42,1.42H5.4A1.42,1.42,0,0,1,4,37V13.13A1.42,1.42,0,0,1,5.4,11.71H21a1,1,0,0,0,0-2H5.4A3.39,3.39,0,0,0,2,13.13V39.82A3.38,3.38,0,0,0,5.4,43.19H38.33a3.38,3.38,0,0,0,3.38-3.37V23A1,1,0,0,0,40.73,22Zm-2.4,19.24H5.4A1.43,1.43,0,0,1,4,40.07a3.3,3.3,0,0,0,1.4.31H38.33a3.22,3.22,0,0,0,1.39-.31A1.42,1.42,0,0,1,38.33,41.23ZM26.84,34.9a1.66,1.66,0,0,0,.32,1.38,1.58,1.58,0,0,0,1.25.59h5.73a1.59,1.59,0,0,0,1.25-.59,1.63,1.63,0,0,0,.31-1.38,4.52,4.52,0,0,0-2.28-3,2.85,2.85,0,1,0-4.37,0A4.57,4.57,0,0,0,26.84,34.9Zm4.38-5.68a.9.9,0,1,1-.9.89A.9.9,0,0,1,31.22,29.22Zm.05,4.09a2.6,2.6,0,0,1,2.39,1.61H28.88A2.62,2.62,0,0,1,31.27,33.31Z"/></svg>