<?xml version="1.0" encoding="utf-8"?>
<!-- Generator: Adobe Illustrator 25.4.1, SVG Export Plug-In . SVG Version: 6.00 Build 0)  -->
<svg version="1.1" id="Layer_1" xmlns="http://www.w3.org/2000/svg" xmlns:xlink="http://www.w3.org/1999/xlink" x="0px" y="0px"
	 viewBox="0 0 48 48" style="enable-background:new 0 0 48 48;" xml:space="preserve">
<style type="text/css">
	.st0{fill:#FFFFFF;}
</style>
<path class="st0" d="M37.7,8H27.4c-4.7,0.1-8.5,4-8.4,8.7c0,0.6,0.1,1.1,0.2,1.7h-8.9c-4.7,0.1-8.5,4-8.4,8.7
	c-0.1,4.7,3.7,8.6,8.4,8.7h4.8l4.9,4c0.1,0.1,0.4,0.2,0.6,0.2c0.2,0,0.3,0,0.3-0.1c0.4-0.2,0.6-0.5,0.6-0.9v-3.2
	c2.1-0.3,4-1.3,5.3-2.9c0.4-0.4,0.3-1-0.1-1.4c-0.4-0.4-1-0.3-1.4,0.1c-1.1,1.4-2.9,2.2-4.7,2.2c-0.6,0-1,0.4-1,1v2.1L16.1,34
	c-0.1-0.1-0.4-0.2-0.6-0.2h-5.1c-3.6-0.1-6.5-3.1-6.4-6.7c0-3.6,2.8-6.6,6.4-6.7h9.4c1.2,2.6,3.6,4.5,6.6,4.9v3.3
	c0,0.4,0.2,0.7,0.6,0.9c0.1,0.1,0.3,0.1,0.4,0.1c0.2,0,0.4-0.1,0.6-0.2l4.9-4h4.8c4.7-0.1,8.5-4,8.4-8.7C46.1,12,42.4,8.1,37.7,8z
	 M37.6,23.4h-5.1c-0.2,0-0.4,0.1-0.6,0.2l-3.5,2.9v-2.1c0-0.6-0.4-1-1-1c-3.6-0.1-6.5-3.1-6.4-6.7c0-3.6,2.8-6.6,6.4-6.7h10.2
	c3.6,0.1,6.5,3.1,6.4,6.7C44,20.3,41.2,23.3,37.6,23.4z M19.7,26c0.5,0,1-0.4,1-1s-0.4-1-1-1h-1.1l0.2-0.7c0.1-0.5-0.2-0.9-0.7-1.1
	c-0.6-0.2-1.1,0.1-1.3,0.6L16.5,24h-2.4l0.2-0.7c0-0.1,0-0.1,0-0.2c0.1-0.5-0.3-1-0.8-1.1s-1,0.3-1.1,0.8L12.1,24h-1.8
	c-0.6,0-1,0.4-1,1s0.4,1,1,1h1.3l-0.6,2.4H9.3c-0.6,0-1,0.4-1,1c0,0.6,0.4,1,1,1h1.3l-0.2,0.8c-0.2,0.5,0.2,1.1,0.7,1.2
	c0,0,0.1,0,0.2,0c0.4,0,0.8-0.3,1-0.7l0.3-1.3H15l-0.2,0.8c-0.2,0.5,0.2,1.1,0.7,1.2h0.2c0.5,0,0.9-0.3,1.1-0.7l0.3-1.3h1.6
	c0.5,0,1-0.4,1-1c0-0.6-0.4-1-1-1h-1.1l0.6-2.4H19.7z M15.5,28.4h-2.4l0.6-2.4H16L15.5,28.4z M36.7,12.5c-1.3-0.9-3-0.8-4.2,0.3
	c-0.7-0.7-1.6-1-2.6-0.9c-1.1,0.1-2,0.6-2.6,1.5c-0.9,1.4-0.7,3.2,0.5,4.4l3.6,3.6c0.2,0.3,0.6,0.4,1,0.4c0.4,0,0.8-0.1,1.2-0.3
	l3.6-3.7c0.2-0.2,0.4-0.4,0.5-0.6C38.7,15.6,38.3,13.5,36.7,12.5z M35.7,16.2l-3.3,3.4l-3.2-3.2c-0.5-0.5-0.7-1.3-0.3-1.9
	c0.2-0.4,0.6-0.7,1.1-0.7h0.1c0.4,0,0.8,0.2,1,0.5l0.6,0.6c0.4,0.4,1,0.4,1.4,0l0.6-0.5c0.5-0.5,1.3-0.7,1.9-0.3
	c0.3,0.2,0.6,0.6,0.6,1C36.2,15.5,36,15.9,35.7,16.2z"/>
</svg>
