<svg id="Pages" xmlns="http://www.w3.org/2000/svg" viewBox="0 0 48 48"><defs><style>.cls-1{fill:#fff;}</style></defs><path class="cls-1" d="M45,39.5V25a1,1,0,0,0-1-1H24a1,1,0,0,0-1,1v8H6.8a1,1,0,1,0,0,2H23v8.8a1,1,0,0,0,1,1H44a1,1,0,0,0,1-1V39.64A.33.33,0,0,0,45,39.5ZM43,26V37.11l-4.8-4.87a1,1,0,0,0-1.39,0l-6.42,6-2.7-2.58a1,1,0,0,0-.72-.28,1,1,0,0,0-.7.31L25,37.06V34s0,0,0-.09,0-.05,0-.08V26ZM25,42.75V40l2.1-2.22,2.65,2.54a1,1,0,0,0,1.38,0l6.39-6L43,40v2.79Zm5.44-8.63A3.37,3.37,0,1,0,27,30.75,3.37,3.37,0,0,0,30.41,34.12Zm0-4.74A1.37,1.37,0,1,1,29,30.75,1.37,1.37,0,0,1,30.41,29.38Zm-19.74-8V7.9L21.05,5.51v9.67a3.8,3.8,0,0,0-1.86-.5,3.86,3.86,0,1,0,3.86,3.86V4.25a1,1,0,0,0-1.23-1L9.44,6.13a1,1,0,0,0-.77,1V18a3.91,3.91,0,0,0-1.86-.49,3.86,3.86,0,1,0,3.86,3.85Zm8.52-1a1.86,1.86,0,1,1,1.86-1.85A1.86,1.86,0,0,1,19.19,20.39ZM5,21.39a1.86,1.86,0,1,1,1.86,1.86A1.86,1.86,0,0,1,5,21.39ZM27.25,13a1,1,0,0,1,1-1H44a1,1,0,0,1,0,2H28.25A1,1,0,0,1,27.25,13Z"/></svg>