<svg id="Pages" xmlns="http://www.w3.org/2000/svg" viewBox="0 0 48 48"><defs><style>.cls-1{fill:#fff;}</style></defs><path class="cls-1" d="M25.51,19.71a6.25,6.25,0,0,0-2.63-.53H20.32a1,1,0,0,0-1,1v7.07a1,1,0,0,0,1,1H23c1.84,0,5-1,5-4.55A4.13,4.13,0,0,0,25.51,19.71ZM23,26.25H21.32V21.18h1.56a4.2,4.2,0,0,1,1.79.35,2.12,2.12,0,0,1,1.25,2.17C25.92,26.07,23.65,26.25,23,26.25Zm-5.91-6.06v7a1,1,0,0,1-2,0V24.55H11v2.69a1,1,0,0,1-2,0v-7a1,1,0,0,1,2,0v2.36h4.05V20.19a1,1,0,0,1,2,0Zm28.17-5.35a1.9,1.9,0,0,0-1.76-.17h0c-1.83.61-6.43,2.09-8.71,2.82V13.21a3,3,0,0,0-3-3H5a3,3,0,0,0-3,3V34.79a3,3,0,0,0,3,3H31.75a3,3,0,0,0,3-3V30.5l8.72,2.83a1.87,1.87,0,0,0,1.76-.17,2.41,2.41,0,0,0,.77-2V16.82A2.4,2.4,0,0,0,45.22,14.84ZM44,31.18a1.34,1.34,0,0,1,0,.21l-9.93-3.21a1,1,0,0,0-.9.14,1,1,0,0,0-.41.81v5.66a1,1,0,0,1-1,1H5a1,1,0,0,1-1-1V13.21a1,1,0,0,1,1-1H31.75a1,1,0,0,1,1,1v5.66a1,1,0,0,0,1.31.95L44,16.61a1.34,1.34,0,0,1,0,.21Z"/></svg>