<?xml version="1.0" encoding="utf-8"?>
<!-- Generator: Adobe Illustrator 25.4.1, SVG Export Plug-In . SVG Version: 6.00 Build 0)  -->
<svg version="1.1" id="Layer_1" xmlns="http://www.w3.org/2000/svg" xmlns:xlink="http://www.w3.org/1999/xlink" x="0px" y="0px"
	 viewBox="0 0 48 48" style="enable-background:new 0 0 48 48;" xml:space="preserve">
<style type="text/css">
	.st0{fill:#FFFFFF;}
</style>
<path class="st0" d="M5.9,17.8h20.3c0.5,4.8,4.5,8.5,9.4,8.5c5.2,0,9.5-4.3,9.5-9.5c0-5.2-4.3-9.5-9.5-9.5c-4.9,0-8.9,3.7-9.4,8.5
	H5.9c-1.7,0-3,1.3-3,3v19c0,1.7,1.3,3,3,3h27.7c1.7,0,3-1.3,3-3v-8.1c0-0.6-0.4-1-1-1s-1,0.4-1,1v8.1c0,0.6-0.4,1-1,1H5.9
	c-0.6,0-1-0.4-1-1v-19C4.9,18.2,5.3,17.8,5.9,17.8z M35.6,9.2c4.1,0,7.5,3.4,7.5,7.5c0,4.1-3.4,7.5-7.5,7.5s-7.5-3.4-7.5-7.5
	S31.5,9.2,35.6,9.2z M35.6,21C35.6,21,35.6,21,35.6,21c2.4,0,4.3-1.9,4.3-4.2c0-2.3-1.9-4.2-4.2-4.2c-2.3,0-4.3,1.9-4.3,4.2
	C31.4,19.1,33.3,21,35.6,21z M35.6,14.5C35.6,14.5,35.6,14.5,35.6,14.5c1.3,0,2.3,1,2.3,2.2c0,1.2-1,2.2-2.2,2.2
	c-1.2,0-2.3-1-2.3-2.2C33.4,15.5,34.4,14.5,35.6,14.5z"/>
</svg>
