<?xml version="1.0" encoding="utf-8"?>
<!-- Generator: Adobe Illustrator 25.4.1, SVG Export Plug-In . SVG Version: 6.00 Build 0)  -->
<svg version="1.1" id="Layer_1" xmlns="http://www.w3.org/2000/svg" xmlns:xlink="http://www.w3.org/1999/xlink" x="0px" y="0px"
	 viewBox="0 0 60 60" style="enable-background:new 0 0 60 60;" xml:space="preserve">
<style type="text/css">
	.st0{fill:#FFFFFF;}
</style>
<g>
	<path class="st0" d="M55,7.3H5c-0.6,0-1,0.5-1,1v32.7c0,0.6,0.5,1,1,1h17.5l-0.3,3.1h-5.1c-0.6,0-1,0.5-1,1v5.4c0,0.6,0.5,1,1,1
		h25.8c0.6,0,1-0.5,1-1v-5.4c0-0.6-0.5-1-1-1h-5.1l-0.3-3.1H55c0.6,0,1-0.5,1-1V8.3C56,7.8,55.5,7.3,55,7.3z M53.9,40H36.3
		c-0.3,0-0.6,0.1-0.8,0.3c-0.2,0.2-0.3,0.5-0.3,0.8l0.5,5.2c0.1,0.5,0.5,0.9,1,0.9h5v3.3H18.2v-3.3h5c0.5,0,1-0.4,1-0.9l0.5-5.2
		c0-0.3-0.1-0.6-0.3-0.8S24,40,23.7,40H6.1V9.4h47.9V40z"/>
	<path class="st0" d="M29.3,34.3c0.2,0.2,0.5,0.3,0.7,0.3c0.3,0,0.5-0.1,0.7-0.3l6.4-6.4c0.4-0.4,0.4-1.1,0-1.5
		c-0.4-0.4-1.1-0.4-1.5,0L31,31V17.4c0-0.6-0.5-1-1-1c-0.6,0-1,0.5-1,1V31l-4.6-4.6c-0.4-0.4-1.1-0.4-1.5,0c-0.4,0.4-0.4,1.1,0,1.5
		L29.3,34.3z"/>
</g>
</svg>
