<svg xmlns="http://www.w3.org/2000/svg" xmlns:xlink="http://www.w3.org/1999/xlink" viewBox="0 0 80 80"><defs><style>.cls-1,.cls-2{isolation:isolate;}.cls-1{opacity:0.5;fill:url(#linear-gradient);}.cls-2{opacity:0.55;fill:url(#linear-gradient-2);}.cls-3{fill:#fff;}</style><linearGradient id="linear-gradient" x1="56.63" y1="-1033.47" x2="37.33" y2="-1045.21" gradientTransform="matrix(1, 0, 0, -1, 0, -1018)" gradientUnits="userSpaceOnUse"><stop offset="0" stop-color="#ff5898"/><stop offset="1" stop-color="#7d33ff"/></linearGradient><linearGradient id="linear-gradient-2" x1="-47.85" y1="-1053.31" x2="80.37" y2="-1091" gradientTransform="matrix(1, 0, 0, -1, 0, -1018)" gradientUnits="userSpaceOnUse"><stop offset="0" stop-color="#00eb81"/><stop offset="1" stop-color="#35c8ff"/></linearGradient></defs><g id="Elevated"><g id="Content_Segmentation_and_Analysis" data-name="Content Segmentation and Analysis"><path class="cls-1" d="M47.5,35.17A14.15,14.15,0,1,0,33.35,21,14.15,14.15,0,0,0,47.5,35.17Z"/><path class="cls-2" d="M63.72,55.19H18.38a2.21,2.21,0,0,0-2.21,2.22v8.07a2.21,2.21,0,0,0,2.21,2.21H63.72a2.21,2.21,0,0,0,2.21-2.21V57.41A2.21,2.21,0,0,0,63.72,55.19Z"/><path class="cls-3" d="M75,60H5a.66.66,0,0,0-.65.65v12.5a.66.66,0,0,0,.65.66H75a.66.66,0,0,0,.65-.66V60.62A.66.66,0,0,0,75,60ZM15.65,61.28h23.7V72.47H15.65Zm-1.3,11.19H5.65V61.28h8.7Zm26.3-11.19h23.7V72.47H40.65Zm25,0h8.7V72.47h-8.7Z"/><path class="cls-3" d="M9.17,46.69a4.81,4.81,0,0,0,4.75-4.16h9.66a4.81,4.81,0,1,0,8.34-3.84L49.17,21.8a4.75,4.75,0,0,0,2.5.73,4.81,4.81,0,0,0,4.75-4.17h9.66a4.82,4.82,0,1,0,0-1.3H56.42A4.81,4.81,0,1,0,48.15,21L30.93,37.83a4.79,4.79,0,0,0-7.35,3.39H13.92a4.81,4.81,0,1,0-4.75,5.47Zm61.66-32.5a3.52,3.52,0,1,1-3.51,3.52A3.53,3.53,0,0,1,70.83,14.19Zm-19.16,0a3.52,3.52,0,1,1-3.52,3.52A3.52,3.52,0,0,1,51.67,14.19ZM28.33,38.36a3.52,3.52,0,1,1-3.51,3.52A3.53,3.53,0,0,1,28.33,38.36Zm-19.16,0a3.52,3.52,0,1,1-3.52,3.52A3.52,3.52,0,0,1,9.17,38.36Z"/></g></g></svg>