<svg xmlns="http://www.w3.org/2000/svg" xmlns:xlink="http://www.w3.org/1999/xlink" viewBox="0 0 80 80"><defs><style>.cls-1,.cls-2{isolation:isolate;}.cls-1{opacity:0.5;fill:url(#linear-gradient);}.cls-2{opacity:0.55;fill:url(#linear-gradient-2);}.cls-3{fill:#fff;}</style><linearGradient id="linear-gradient" x1="77.34" y1="-1235.04" x2="64.08" y2="-1250.96" gradientTransform="matrix(1, 0, 0, -1, 0, -1218)" gradientUnits="userSpaceOnUse"><stop offset="0" stop-color="#00eb81"/><stop offset="1" stop-color="#3e44fe"/></linearGradient><linearGradient id="linear-gradient-2" x1="46.76" y1="-1243.69" x2="-3.66" y2="-1286.86" gradientTransform="matrix(1, 0, 0, -1, 0, -1218)" gradientUnits="userSpaceOnUse"><stop offset="0" stop-color="#35c8ff"/><stop offset="1" stop-color="#3e44fe"/></linearGradient></defs><g id="Elevated"><g id="TeamChatActivity"><path class="cls-1" d="M71.22,32.66a8.28,8.28,0,1,0-8.28-8.28A8.28,8.28,0,0,0,71.22,32.66Z"/><path class="cls-2" d="M26.14,69A25.65,25.65,0,1,0,.5,43.34,25.64,25.64,0,0,0,26.14,69Z"/><path class="cls-3" d="M18.92,24.91a.66.66,0,0,0,.46.19h0a.66.66,0,0,0,.46-.19l5.81-5.84c2.59-2.61,2.23-5.69.54-7.38s-4.36-2-6.81.11c-2.45-2.08-5.23-1.68-6.81-.11s-2.07,4.76.51,7.38Z"/><path class="cls-3" d="M51,45.4a.66.66,0,0,0-.72.57,12.87,12.87,0,0,1-12.8,11.49h0a.67.67,0,0,0-.43.16l-6.54,5.79v-5.3a.65.65,0,0,0-.65-.65H19.71a12.9,12.9,0,0,1,0-25.78h4.63a.65.65,0,1,0,0-1.3H19.67a14.2,14.2,0,0,0,0,28.38h9.54v6.1a.65.65,0,0,0,.65.65.65.65,0,0,0,.43-.17l7.44-6.58A14.2,14.2,0,0,0,51.61,46.11.65.65,0,0,0,51,45.4Z"/><path class="cls-3" d="M73.67,28.85A14.18,14.18,0,0,0,60,14.67H42.16a14,14,0,0,0-5.58.93,14.21,14.21,0,0,0,0,26.51,14.33,14.33,0,0,0,5.56.93H52l7.65,6.59a.67.67,0,0,0,.43.16.65.65,0,0,0,.65-.67L60.61,43A14.19,14.19,0,0,0,73.67,28.85ZM59.92,41.74a.65.65,0,0,0-.62.67l.11,5.28L52.69,41.9a.67.67,0,0,0-.43-.16H42.12a13,13,0,0,1-5.07-.85,12.7,12.7,0,0,1-4.34-2.76,12.91,12.91,0,0,1,4.34-21.32A12.71,12.71,0,0,1,42.14,16h17.8a12.89,12.89,0,0,1,0,25.77Z"/><path class="cls-3" d="M31.13,42.23H17.88a.65.65,0,0,0,0,1.3H31.13a.65.65,0,0,0,0-1.3Z"/><path class="cls-3" d="M17.23,47.79a.65.65,0,0,0,.65.65h18a.65.65,0,1,0,0-1.3h-18A.65.65,0,0,0,17.23,47.79Z"/><rect class="cls-3" x="41.88" y="26.04" width="4.54" height="9.17" rx="1.49"/><path class="cls-3" d="M58.23,26.68a1.8,1.8,0,0,0-.64-.48,2.08,2.08,0,0,0-.77-.16H53.15A.35.35,0,0,1,53,26a.37.37,0,0,1-.15-.13.49.49,0,0,1-.07-.19.53.53,0,0,1,.05-.23l.49-1.17a1.72,1.72,0,0,0,.12-.95,1.81,1.81,0,0,0-.37-.89,1.92,1.92,0,0,0-.74-.55,1.84,1.84,0,0,0-.93-.13,2,2,0,0,0-.86.34,1.88,1.88,0,0,0-.58.73l-1.3,2.88a4.29,4.29,0,0,0-.36,1.73v6.06a1.69,1.69,0,0,0,.13.66,1.68,1.68,0,0,0,.93.93,1.49,1.49,0,0,0,.61.13h5.14a1.83,1.83,0,0,0,1.17-.43,1.73,1.73,0,0,0,.62-1l1.78-5.59a1.82,1.82,0,0,0-.4-1.51Z"/></g></g></svg>