<svg xmlns="http://www.w3.org/2000/svg" xmlns:xlink="http://www.w3.org/1999/xlink" viewBox="0 0 80 80"><defs><style>.cls-1,.cls-2{isolation:isolate;}.cls-1{opacity:0.5;fill:url(#linear-gradient);}.cls-2{opacity:0.6;fill:url(#linear-gradient-2);}.cls-3{fill:#fff;}</style><linearGradient id="linear-gradient" x1="47.73" y1="-237.62" x2="-2.46" y2="-280.6" gradientTransform="matrix(1, 0, 0, -1, 0, -218)" gradientUnits="userSpaceOnUse"><stop offset="0" stop-color="#ff5898"/><stop offset="1" stop-color="#7d33ff"/></linearGradient><linearGradient id="linear-gradient-2" x1="76.76" y1="-263.36" x2="61.14" y2="-276.73" gradientTransform="matrix(1, 0, 0, -1, 0, -218)" gradientUnits="userSpaceOnUse"><stop offset="0" stop-color="#35c8ff"/><stop offset="1" stop-color="#3e44fe"/></linearGradient></defs><g id="Elevated"><g id="Patient_Chat" data-name="Patient Chat"><circle class="cls-1" cx="27.2" cy="37.2" r="25.5"/><circle class="cls-2" cx="70.4" cy="50.8" r="7.9"/><path class="cls-3" d="M75.9,68.1H40.66a1.8,1.8,0,0,0-3.32,0H18a.7.7,0,1,0,0,1.4H37.34a1.8,1.8,0,0,0,3.32,0H75.9a.7.7,0,1,0,0-1.4Z"/><path class="cls-3" d="M55.8,28.3h2.8a1,1,0,0,0,1-1V24h3.3a1,1,0,0,0,1-1V20.2a.94.94,0,0,0-1-1H59.6V15.9a1,1,0,0,0-1-1H55.8a1,1,0,0,0-1,1v3.3H51.5a1,1,0,0,0-1,1V23a1,1,0,0,0,1,1h3.3v3.3A1,1,0,0,0,55.8,28.3Z"/><path class="cls-3" d="M49.8,33.2h7.7l-.9,5.7a.61.61,0,0,0,.3.7.37.37,0,0,0,.3.1c.2,0,.4-.1.4-.2l7.2-6.3A11.89,11.89,0,0,0,76.5,21.3a11.71,11.71,0,0,0-2.6-7.4.64.64,0,1,0-1,.8,10.61,10.61,0,0,1-8.3,17.2.76.76,0,0,0-.4.2l-6.1,5.2.7-4.7a.44.44,0,0,0-.1-.5.76.76,0,0,0-.5-.2H49.8a10.6,10.6,0,1,1,0-21.2H64.6a10.56,10.56,0,0,1,5.7,1.7.65.65,0,1,0,.7-1.1,11.18,11.18,0,0,0-6.4-1.9H49.8a11.9,11.9,0,1,0,0,23.8Z"/><path class="cls-3" d="M29,58.1l7.2,6.3a.52.52,0,0,0,.4.2.37.37,0,0,0,.3-.1.91.91,0,0,0,.3-.7l-.9-5.7H44a11.9,11.9,0,0,0,0-23.8H29.2A11.9,11.9,0,0,0,29,58.1Zm7.6-11a7.58,7.58,0,0,1,7.6,7.5.68.68,0,0,1-.7.7H29.7a.68.68,0,0,1-.7-.7A7.51,7.51,0,0,1,36.6,47.1Zm-4.4-5.5a4.37,4.37,0,0,1,4.4-4.4,4.4,4.4,0,1,1-4.4,4.4Z"/><circle class="cls-3" cx="29" cy="21.6" r="1.8"/><path class="cls-3" d="M29,26.4a4.7,4.7,0,1,0-4.7-4.7A4.69,4.69,0,0,0,29,26.4Zm0-8.2a3.4,3.4,0,1,1-3.4,3.4A3.37,3.37,0,0,1,29,18.2Z"/></g></g></svg>