<svg xmlns="http://www.w3.org/2000/svg" xmlns:xlink="http://www.w3.org/1999/xlink" viewBox="0 0 80 80"><defs><style>.cls-1,.cls-2{isolation:isolate;opacity:0.6;}.cls-1{fill:url(#linear-gradient);}.cls-2{fill:url(#linear-gradient-2);}.cls-3{fill:#fff;}</style><linearGradient id="linear-gradient" x1="41.53" y1="-437.82" x2="-2.65" y2="-475.64" gradientTransform="matrix(1, 0, 0, -1, 0, -418)" gradientUnits="userSpaceOnUse"><stop offset="0" stop-color="#ffabcb"/><stop offset="1" stop-color="#7d33ff"/></linearGradient><linearGradient id="linear-gradient-2" x1="77.08" y1="-466.67" x2="58.23" y2="-482.81" gradientTransform="matrix(1, 0, 0, -1, 0, -418)" gradientUnits="userSpaceOnUse"><stop offset="0" stop-color="#00eb81"/><stop offset="1" stop-color="#3e44fe"/></linearGradient></defs><g id="Elevated"><g id="Social_Groups_and_Rooms" data-name="Social Groups and Rooms"><circle class="cls-1" cx="23.5" cy="35.25" r="22.5"/><circle class="cls-2" cx="69.4" cy="55.25" r="9.6"/><path class="cls-3" d="M67.4,14.65H55.9a10.21,10.21,0,0,0-.7,20.4l-.1,4.1a.68.68,0,0,0,.4.6.37.37,0,0,0,.3.1.76.76,0,0,0,.4-.2l5.4-4.6h5.8a10.2,10.2,0,0,0,0-20.4Zm-.1,19.1h-6a.76.76,0,0,0-.4.2l-4.4,3.8.1-3.3c0-.2,0-.4-.2-.5s-.3-.2-.5-.2a8.9,8.9,0,1,1,0-17.8H67.3a8.9,8.9,0,1,1,0,17.8Z"/><path class="cls-3" d="M23.5,52.25h9.9a.7.7,0,0,0,0-1.4H23.5a.7.7,0,1,0,0,1.4Z"/><path class="cls-3" d="M23.5,56H37c.4,0,.7-.2.7-.6a.68.68,0,0,0-.7-.7H23.5c-.4,0-.7.2-.7.6A.68.68,0,0,0,23.5,56Z"/><path class="cls-3" d="M51.2,58.45a.43.43,0,0,0,.4.4h9.9c.2,0,.4-.1.3-.4a5.3,5.3,0,1,0-10.6,0Z"/><circle class="cls-3" cx="56.6" cy="49.45" r="3"/><path class="cls-3" d="M24,39a.43.43,0,0,0,.4.4h9.9c.2,0,.4-.1.3-.4A5.3,5.3,0,1,0,24,39Z"/><circle class="cls-3" cx="29.4" cy="29.95" r="3"/><path class="cls-3" d="M67.6,42.15a.68.68,0,0,0-.7-.7H43.8V25a.7.7,0,1,0-1.4,0v16.5h-23a.7.7,0,0,0,0,1.4h23v16.6a.7.7,0,0,0,1.4,0V42.85H66.9A.68.68,0,0,0,67.6,42.15Z"/><path class="cls-3" d="M70.6,37.75a.7.7,0,1,0-1.4,0v21.5a3.12,3.12,0,0,1-3.1,3.1h-46a3.13,3.13,0,0,1-3-2.36V52a.68.68,0,0,0-.1-.35V25.25a3.12,3.12,0,0,1,3.1-3.1H43.3a.7.7,0,0,0,0-1.4H20.1a4.44,4.44,0,0,0-4.4,4.4v37.7a4.44,4.44,0,0,0,4.4,4.4h46a4.76,4.76,0,0,0,4.6-4.4v-6a.68.68,0,0,0-.1-.35ZM66.2,66h-46a3.12,3.12,0,0,1-3.1-3.1v-.52a4.37,4.37,0,0,0,3,1.22h46a4.45,4.45,0,0,0,3.2-1.4v.7A3.12,3.12,0,0,1,66.2,66Z"/></g></g></svg>