<svg xmlns="http://www.w3.org/2000/svg" xmlns:xlink="http://www.w3.org/1999/xlink" viewBox="0 0 80 80"><defs><style>.cls-1,.cls-2{isolation:isolate;}.cls-1{opacity:0.55;fill:url(#linear-gradient);}.cls-2{opacity:0.5;fill:url(#linear-gradient-2);}.cls-3{fill:#fff;}</style><linearGradient id="linear-gradient" x1="46.37" y1="-441.98" x2="-1.99" y2="-483.39" gradientTransform="matrix(1, 0, 0, -1, 0, -418)" gradientUnits="userSpaceOnUse"><stop offset="0" stop-color="#00eb81"/><stop offset="1" stop-color="#35c8ff"/></linearGradient><linearGradient id="linear-gradient-2" x1="76.37" y1="-451.79" x2="59.94" y2="-465.85" gradientTransform="matrix(1, 0, 0, -1, 0, -418)" gradientUnits="userSpaceOnUse"><stop offset="0" stop-color="#975cff"/><stop offset="1" stop-color="#3e44fe"/></linearGradient></defs><g id="Elevated"><g id="Content_Distribution" data-name="Content Distribution"><path class="cls-1" d="M26.6,65.51A24.6,24.6,0,1,0,2,40.91,24.59,24.59,0,0,0,26.6,65.51Z"/><path class="cls-2" d="M69.65,47.89a8.35,8.35,0,1,0-8.36-8.35A8.35,8.35,0,0,0,69.65,47.89Z"/><path class="cls-3" d="M33.3,47.81A5.79,5.79,0,1,0,39.09,42,5.79,5.79,0,0,0,33.3,47.81Z"/><path class="cls-3" d="M39.09,37.38A11.77,11.77,0,1,0,27.32,25.61,11.78,11.78,0,0,0,39.09,37.38Zm0-22.24A10.47,10.47,0,1,1,28.62,25.61,10.49,10.49,0,0,1,39.09,15.14Z"/><path class="cls-3" d="M36.5,29.86a.63.63,0,0,0,.33.09.62.62,0,0,0,.32-.09l6.39-3.7a.66.66,0,0,0,.33-.56.65.65,0,0,0-.33-.56l-6.39-3.69a.63.63,0,0,0-.65,0,.64.64,0,0,0-.32.56V29.3A.64.64,0,0,0,36.5,29.86Z"/><path class="cls-3" d="M62.31,33A11.77,11.77,0,1,0,74.08,44.75,11.78,11.78,0,0,0,62.31,33Zm0,22.24A10.47,10.47,0,1,1,72.78,44.75,10.49,10.49,0,0,1,62.31,55.22Z"/><path class="cls-3" d="M27.63,44.75A11.77,11.77,0,1,0,15.86,56.52,11.78,11.78,0,0,0,27.63,44.75ZM15.86,55.22A10.47,10.47,0,1,1,26.33,44.75,10.48,10.48,0,0,1,15.86,55.22Z"/><path class="cls-3" d="M12.71,42.38a.65.65,0,0,0-.65.65v4a.65.65,0,1,0,1.3,0V43A.65.65,0,0,0,12.71,42.38Z"/><path class="cls-3" d="M19,42.38a.65.65,0,0,0-.65.65v4a.65.65,0,1,0,1.3,0V43A.65.65,0,0,0,19,42.38Z"/><path class="cls-3" d="M15.86,40.53a.65.65,0,0,0-.65.65V48.9a.65.65,0,1,0,1.3,0V41.18A.65.65,0,0,0,15.86,40.53Z"/><path class="cls-3" d="M9.56,43.58a.66.66,0,0,0-.65.66v1.6a.65.65,0,0,0,1.3,0v-1.6A.66.66,0,0,0,9.56,43.58Z"/><path class="cls-3" d="M22.17,43.58a.66.66,0,0,0-.65.66v1.6a.65.65,0,1,0,1.3,0v-1.6A.66.66,0,0,0,22.17,43.58Z"/><path class="cls-3" d="M67.35,41.55H58.43a.65.65,0,0,0,0,1.3h8.92a.65.65,0,1,0,0-1.3Z"/><path class="cls-3" d="M67.35,44.6H58.43a.65.65,0,0,0,0,1.3h8.92a.65.65,0,0,0,0-1.3Z"/><path class="cls-3" d="M64.16,47.67H58.43a.65.65,0,0,0,0,1.3h5.73a.65.65,0,0,0,0-1.3Z"/><path class="cls-3" d="M56.13,63.94H49.29a10.29,10.29,0,0,0-3-6.63,10.23,10.23,0,0,0-17.45,6.63H22.05a.65.65,0,0,0,0,1.3H56.13a.65.65,0,1,0,0-1.3Z"/></g></g></svg>