<svg xmlns="http://www.w3.org/2000/svg" xmlns:xlink="http://www.w3.org/1999/xlink" viewBox="0 0 80 80"><defs><style>.cls-1,.cls-2{isolation:isolate;}.cls-1{opacity:0.55;fill:url(#linear-gradient);}.cls-2{opacity:0.5;fill:url(#linear-gradient-2);}.cls-3{fill:#fff;}</style><linearGradient id="linear-gradient" x1="76.48" y1="-1238.37" x2="61.02" y2="-1256.92" gradientTransform="matrix(1, 0, 0, -1, 0, -1218)" gradientUnits="userSpaceOnUse"><stop offset="0" stop-color="#00eb81"/><stop offset="1" stop-color="#35c8ff"/></linearGradient><linearGradient id="linear-gradient-2" x1="37.5" y1="-1237.34" x2="-2.28" y2="-1271.4" gradientTransform="matrix(1, 0, 0, -1, 0, -1218)" gradientUnits="userSpaceOnUse"><stop offset="0" stop-color="#ff5898"/><stop offset="1" stop-color="#7d33ff"/></linearGradient></defs><g id="Elevated"><g id="Layer_42" data-name="Layer 42"><path class="cls-1" d="M69.36,38.56a9.64,9.64,0,1,0-9.65-9.64A9.64,9.64,0,0,0,69.36,38.56Z"/><path class="cls-2" d="M21.24,53.5A20.24,20.24,0,1,0,1,33.26,20.24,20.24,0,0,0,21.24,53.5Z"/><path class="cls-3" d="M71.75,55.53V19.72a3.88,3.88,0,0,0-.29-1.46A3.81,3.81,0,0,0,70.63,17a3.81,3.81,0,0,0-2.7-1.12H19A3.8,3.8,0,0,0,16.3,17a3.76,3.76,0,0,0-1.12,2.7v35.8a2.66,2.66,0,0,0-2.5,2.64v6.17A2.65,2.65,0,0,0,15.33,67H71.59a2.65,2.65,0,0,0,2.64-2.65V58.16A2.63,2.63,0,0,0,71.75,55.53Zm-2.4,5.67a.81.81,0,0,1-.23.55.78.78,0,0,1-.55.23H35.81a2.4,2.4,0,0,1-.87,1.18,2.42,2.42,0,0,1-2.81,0A2.4,2.4,0,0,1,31.26,62H18.35a.75.75,0,0,1-.55-.23.76.76,0,0,1-.23-.55.79.79,0,0,1,.78-.78H31.26a2.47,2.47,0,0,1,.87-1.19,2.42,2.42,0,0,1,2.81,0,2.47,2.47,0,0,1,.87,1.19H68.57a.79.79,0,0,1,.78.78ZM16.49,19.72A2.53,2.53,0,0,1,17.23,18,2.49,2.49,0,0,1,19,17.22H67.93a2.37,2.37,0,0,1,.95.19,2.54,2.54,0,0,1,.82.54,2.66,2.66,0,0,1,.54.82,2.37,2.37,0,0,1,.19.95V55.51H16.49Z"/><path class="cls-3" d="M50.69,29.34a10.24,10.24,0,1,0-8.8,17.36,10.23,10.23,0,0,0,8.8-17.36Zm-3.48,7.35a.35.35,0,0,1-.11.1l-2.6,1.53-2.6,1.51a.28.28,0,0,1-.15,0,.27.27,0,0,1-.14,0,.24.24,0,0,1-.1-.1.23.23,0,0,1,0-.14v-6a.28.28,0,0,1,0-.15.32.32,0,0,1,.1-.1.43.43,0,0,1,.14,0,.42.42,0,0,1,.15,0l2.6,1.5,2.6,1.46a.52.52,0,0,1,.11.1.42.42,0,0,1,0,.15A.33.33,0,0,1,47.21,36.69Z"/><path class="cls-3" d="M59.74,28.57a.54.54,0,0,0-.16-.14.83.83,0,0,0-.21-.06.46.46,0,0,0-.2.05.38.38,0,0,0-.17.12l-.1.1a.5.5,0,0,0-.12.33.54.54,0,0,0,.12.34,11.58,11.58,0,0,1,0,14.4.5.5,0,0,0-.12.33.54.54,0,0,0,.12.34l.1.11a.54.54,0,0,0,.37.15.54.54,0,0,0,.21,0,.51.51,0,0,0,.16-.13,12.78,12.78,0,0,0,0-15.89Z"/><path class="cls-3" d="M62.4,25.51a.47.47,0,0,0-.2-.06.46.46,0,0,0-.2.05.48.48,0,0,0-.17.12l-.1.1a.51.51,0,0,0-.13.33.55.55,0,0,0,.13.34,16,16,0,0,1,0,20.4.5.5,0,0,0-.12.34.54.54,0,0,0,.12.34l.1.1a.5.5,0,0,0,.74,0,17.23,17.23,0,0,0,0-21.91A.37.37,0,0,0,62.4,25.51Z"/><path class="cls-3" d="M56.74,31.49a.56.56,0,0,0-.21-.06.52.52,0,0,0-.21,0,.66.66,0,0,0-.17.12l-.09.1a.49.49,0,0,0-.12.32.5.5,0,0,0,.12.33,7.2,7.2,0,0,1,0,8.42.49.49,0,0,0,0,.64l.09.11a.45.45,0,0,0,.17.11.54.54,0,0,0,.21.05l.21-.06a.73.73,0,0,0,.16-.14,8.31,8.31,0,0,0,0-9.83A.57.57,0,0,0,56.74,31.49Z"/><path class="cls-3" d="M28.15,29.05a.46.46,0,0,0-.13-.33l-.1-.1a.38.38,0,0,0-.16-.12.49.49,0,0,0-.2-.05.73.73,0,0,0-.21.06.75.75,0,0,0-.17.14,12.78,12.78,0,0,0,0,15.89.55.55,0,0,0,.17.13.5.5,0,0,0,.21,0,.48.48,0,0,0,.2,0,.36.36,0,0,0,.16-.11l.1-.11a.5.5,0,0,0,.13-.34.46.46,0,0,0-.13-.33,11.62,11.62,0,0,1,0-14.4A.47.47,0,0,0,28.15,29.05Z"/><path class="cls-3" d="M21.49,36.51a16.06,16.06,0,0,1,3.66-10.2.49.49,0,0,0,.14-.34.47.47,0,0,0-.14-.33l-.09-.11a.39.39,0,0,0-.17-.11.46.46,0,0,0-.2-.05.54.54,0,0,0-.21.05.7.7,0,0,0-.17.13,17.25,17.25,0,0,0,0,21.92.7.7,0,0,0,.17.13.52.52,0,0,0,.21,0,.45.45,0,0,0,.2,0,.39.39,0,0,0,.17-.11l.09-.1a.51.51,0,0,0,.14-.34.48.48,0,0,0-.14-.34A16.1,16.1,0,0,1,21.49,36.51Z"/><path class="cls-3" d="M31,32a.49.49,0,0,0-.12-.32l-.1-.1a.46.46,0,0,0-.36-.16.37.37,0,0,0-.21.06.61.61,0,0,0-.17.15,8.35,8.35,0,0,0,0,9.83.79.79,0,0,0,.17.14.65.65,0,0,0,.21.06.71.71,0,0,0,.2,0,.48.48,0,0,0,.16-.12l.1-.11a.49.49,0,0,0,0-.64,7.24,7.24,0,0,1,0-8.42A.5.5,0,0,0,31,32Z"/></g></g></svg>