<svg xmlns="http://www.w3.org/2000/svg" xmlns:xlink="http://www.w3.org/1999/xlink" viewBox="0 0 80 80"><defs><style>.cls-1,.cls-2{isolation:isolate;}.cls-1{opacity:0.5;fill:url(#linear-gradient);}.cls-2{opacity:0.55;fill:url(#linear-gradient-2);}.cls-3{fill:#fff;}</style><linearGradient id="linear-gradient" x1="41.58" y1="-251.61" x2="-2.59" y2="-289.43" gradientTransform="matrix(1, 0, 0, -1, 0, -218)" gradientUnits="userSpaceOnUse"><stop offset="0" stop-color="#3e44fe"/><stop offset="0.32" stop-color="#7052ff"/><stop offset="0.55" stop-color="#975cff"/><stop offset="1" stop-color="#b85cff"/></linearGradient><linearGradient id="linear-gradient-2" x1="75.95" y1="-231.23" x2="45.65" y2="-257.18" gradientTransform="matrix(1, 0, 0, -1, 0, -218)" gradientUnits="userSpaceOnUse"><stop offset="0" stop-color="#00eb81"/><stop offset="1" stop-color="#35c8ff"/></linearGradient></defs><g id="Elevated"><g id="Continuing_Education_and_Training" data-name="Continuing Education and Training"><circle class="cls-1" cx="23.55" cy="49.05" r="22.5"/><circle class="cls-2" cx="63.55" cy="23.85" r="15.4"/><path class="cls-3" d="M44.55,28.55a.6.6,0,0,0-.3-.6l-10.7-5.7a.64.64,0,0,0-.6,0L22.25,28a.75.75,0,0,0,0,1.2L25.68,31l-1,5a.57.57,0,0,0,.4.7l8,2.9h.2c.1,0,.2-.1.3,0l4.83-1.75L38.45,39a.65.65,0,0,0,.6.6.73.73,0,0,0,.6-.7l-.08-1.48,2-.72A.57.57,0,0,0,42,36l-1-5,3.34-1.78A.6.6,0,0,0,44.55,28.55Zm-11.3,9.8-7.2-2.6.86-4.12,6,3.22a.5.5,0,0,0,.6,0l4.53-2.41.23,4.11Zm7.3-2.6-1,.37-.23-4.32.41-.22Zm-2-5-4.87-2.67a.67.67,0,0,0-.6,1.2l4.09,2.21-3.89,2.09-9.3-5,9.3-5,9.3,5Z"/><path class="cls-3" d="M53.45,32.85a6,6,0,0,0,0,12,6.08,6.08,0,0,0,6-6A6,6,0,0,0,53.45,32.85Zm0,10.8a4.7,4.7,0,0,1,0-9.4,4.83,4.83,0,0,1,4.7,4.7A4.69,4.69,0,0,1,53.45,43.65Z"/><path class="cls-3" d="M73.35,55.57V27.15a.7.7,0,0,0-1.4,0v28.4H64a10.59,10.59,0,0,0-21.14,0H17.25V20a3.22,3.22,0,0,1,3.2-3.2h38.8a.7.7,0,1,0,0-1.4H20.45a4.48,4.48,0,0,0-4.5,4.5V55.56a2.64,2.64,0,0,0-2.5,2.59v6.4a2.65,2.65,0,0,0,2.6,2.6h57.1a2.58,2.58,0,0,0,2.6-2.6v-6.4A2.65,2.65,0,0,0,73.35,55.57Zm-19.9-8.52a9.11,9.11,0,0,1,9.2,8.5H44.15A9.28,9.28,0,0,1,53.45,47.05Zm21,17.5a1.32,1.32,0,0,1-1.3,1.3H16.05a1.32,1.32,0,0,1-1.3-1.3v-6.4a1.32,1.32,0,0,1,1.3-1.3h57.1a1.32,1.32,0,0,1,1.3,1.3Z"/><path class="cls-3" d="M70.65,60.55H30.29a2.1,2.1,0,0,0-3.88,0H18.55a.7.7,0,1,0,0,1.4h7.8a2.08,2.08,0,0,0,4,0h40.3a.7.7,0,1,0,0-1.4Z"/><path class="cls-3" d="M57.25,20.55v3.3a1.11,1.11,0,0,0,1.1,1.1h3.8v3.8a1.11,1.11,0,0,0,1.1,1.1h3.3a1.11,1.11,0,0,0,1.1-1.1V25h3.8a1.11,1.11,0,0,0,1.1-1.1v-3.3a1,1,0,0,0-1.1-1.1h-3.8v-3.8a1.11,1.11,0,0,0-1.1-1.1h-3.3a1.11,1.11,0,0,0-1.1,1.1v3.8h-3.8A1.11,1.11,0,0,0,57.25,20.55Z"/></g></g></svg>