<svg xmlns="http://www.w3.org/2000/svg" xmlns:xlink="http://www.w3.org/1999/xlink" viewBox="0 0 80 80"><defs><style>.cls-1,.cls-2,.cls-3{isolation:isolate;}.cls-1{opacity:0.55;fill:url(#linear-gradient);}.cls-2,.cls-3{opacity:0.5;}.cls-2{fill:url(#linear-gradient-2);}.cls-3{fill:url(#linear-gradient-3);}.cls-4{fill:#fff;}</style><linearGradient id="linear-gradient" x1="60.74" y1="-1254.35" x2="15.1" y2="-1297.2" gradientTransform="matrix(1, 0, 0, -1, 0, -1218)" gradientUnits="userSpaceOnUse"><stop offset="0" stop-color="#00eb81"/><stop offset="1" stop-color="#35c8ff"/></linearGradient><linearGradient id="linear-gradient-2" x1="35.87" y1="-1246.02" x2="14.51" y2="-1255.09" gradientTransform="matrix(1, 0, 0, -1, 0, -1218)" gradientUnits="userSpaceOnUse"><stop offset="0" stop-color="#975cff"/><stop offset="1" stop-color="#3e44fe"/></linearGradient><linearGradient id="linear-gradient-3" x1="75.52" y1="-1231.84" x2="51.06" y2="-1261.18" gradientTransform="matrix(1, 0, 0, -1, 0, -1218)" gradientUnits="userSpaceOnUse"><stop offset="0" stop-color="#00eb81"/><stop offset="1" stop-color="#3e44fe"/></linearGradient></defs><g id="Elevated"><g id="Digital_Whiteboard" data-name="Digital Whiteboard"><path class="cls-1" d="M67.63,50.7c3,0,5.42,2.08,5.42,4.66V60.6c0,2.56-2.44,4.65-5.42,4.65H7A4.53,4.53,0,0,1,3.78,64a4.48,4.48,0,0,1-1.41-3.15V55.36c0-2.58,2.42-4.66,5.42-4.66Z"/><path class="cls-2" d="M27.14,40.69a9,9,0,1,0-9-9A9,9,0,0,0,27.14,40.69Z"/><path class="cls-3" d="M64.24,42.62A15.26,15.26,0,1,0,49,27.37,15.26,15.26,0,0,0,64.24,42.62Z"/><path class="cls-4" d="M71.45,23.27a4.35,4.35,0,0,0-1.43-3,4.25,4.25,0,0,0-3.11-1.13H12.81A4.39,4.39,0,0,0,8.22,23.3V34a.65.65,0,0,0,.65.64A.64.64,0,0,0,9.51,34V23.33a3.13,3.13,0,0,1,1-2.13,3,3,0,0,1,2.25-.79H66.94a3.08,3.08,0,0,1,3.22,2.89V56.86a3.1,3.1,0,0,1-1,2.13,3.06,3.06,0,0,1-2.24.81H45.41a.65.65,0,1,0,0,1.29H67.06a4.38,4.38,0,0,0,4.39-4.19Z"/><path class="cls-4" d="M45.18,34.34h6.64a.65.65,0,0,0,0-1.29H45.18a.65.65,0,1,0,0,1.29Z"/><path class="cls-4" d="M45.18,37.72h6.64a.65.65,0,0,0,0-1.29H45.18a.65.65,0,1,0,0,1.29Z"/><path class="cls-4" d="M45.18,41.1h4.26a.65.65,0,1,0,0-1.29H45.18a.65.65,0,1,0,0,1.29Z"/><path class="cls-4" d="M12.67,49.75a5.95,5.95,0,0,0-5.94,5.69.69.69,0,0,0,.18.47.63.63,0,0,0,.47.2H18a.63.63,0,0,0,.47-.2.65.65,0,0,0,.18-.47,5.95,5.95,0,0,0-5.94-5.69ZM8.1,54.82a4.65,4.65,0,0,1,9.14,0Z"/><path class="cls-4" d="M12.68,48.94A3.48,3.48,0,1,0,9.2,45.47,3.48,3.48,0,0,0,12.68,48.94Zm0-5.66a2.19,2.19,0,1,1-2.19,2.19A2.19,2.19,0,0,1,12.68,43.28Z"/><path class="cls-4" d="M12.68,36.87A12.18,12.18,0,1,0,24.85,49,12.19,12.19,0,0,0,12.68,36.87Zm0,23.06A10.89,10.89,0,1,1,23.56,49,10.9,10.9,0,0,1,12.68,59.93Z"/><path class="cls-4" d="M31.07,34.93a3.19,3.19,0,0,0-5.44,2.26H32A3.19,3.19,0,0,0,31.07,34.93Z"/><path class="cls-4" d="M28.82,32.87a1.71,1.71,0,1,0-1.71-1.71A1.71,1.71,0,0,0,28.82,32.87Z"/><path class="cls-4" d="M28.82,40.91a7.59,7.59,0,1,0-7.6-7.59A7.59,7.59,0,0,0,28.82,40.91Zm0-13.89a6.3,6.3,0,1,1-6.3,6.3A6.31,6.31,0,0,1,28.82,27Z"/><path class="cls-4" d="M33,61.66a3.16,3.16,0,0,0-2.25.93,3.19,3.19,0,0,0-.94,2.26h6.38A3.18,3.18,0,0,0,33,61.66Z"/><circle class="cls-4" cx="32.99" cy="58.77" r="1.71"/><path class="cls-4" d="M33,53.35a7.6,7.6,0,1,0,7.6,7.59A7.6,7.6,0,0,0,33,53.35Zm0,13.89a6.3,6.3,0,1,1,6.3-6.3A6.31,6.31,0,0,1,33,67.24Z"/><path class="cls-4" d="M51.15,56.42a2.77,2.77,0,0,0,2.77-2.76V48.35a2.77,2.77,0,0,0-2.77-2.77H45.84a2.77,2.77,0,0,0-2.76,2.77v5.31a2.77,2.77,0,0,0,2.76,2.76Zm-6.78-2.76V48.35a1.47,1.47,0,0,1,1.47-1.47h5.31a1.47,1.47,0,0,1,1.47,1.47v5.31a1.47,1.47,0,0,1-1.47,1.47H45.84A1.47,1.47,0,0,1,44.37,53.66Z"/><path class="cls-4" d="M56.48,53.66a2.77,2.77,0,0,0,2.76,2.76h5.31a2.77,2.77,0,0,0,2.76-2.76V48.35a2.77,2.77,0,0,0-2.76-2.77H59.24a2.77,2.77,0,0,0-2.76,2.77Zm1.29-5.31a1.47,1.47,0,0,1,1.47-1.47h5.31A1.47,1.47,0,0,1,66,48.35v5.31a1.47,1.47,0,0,1-1.47,1.47H59.24a1.47,1.47,0,0,1-1.47-1.47Z"/><path class="cls-4" d="M59.24,42.48h5.31a2.77,2.77,0,0,0,2.76-2.76V34.41a2.77,2.77,0,0,0-2.76-2.76H59.24a2.77,2.77,0,0,0-2.76,2.76v5.31A2.77,2.77,0,0,0,59.24,42.48Zm-1.47-8.07a1.47,1.47,0,0,1,1.47-1.47h5.31A1.47,1.47,0,0,1,66,34.41v5.31a1.47,1.47,0,0,1-1.47,1.47H59.24a1.47,1.47,0,0,1-1.47-1.47Z"/></g></g></svg>