<svg xmlns="http://www.w3.org/2000/svg" xmlns:xlink="http://www.w3.org/1999/xlink" viewBox="0 0 80 80"><defs><style>.cls-1,.cls-2{isolation:isolate;}.cls-1{opacity:0.5;fill:url(#linear-gradient);}.cls-2{opacity:0.55;fill:url(#linear-gradient-2);}.cls-3{fill:#fff;}</style><linearGradient id="linear-gradient" x1="49.83" y1="59.02" x2="-1.21" y2="15.31" gradientUnits="userSpaceOnUse"><stop offset="0" stop-color="#ff5898"/><stop offset="1" stop-color="#7d33ff"/></linearGradient><linearGradient id="linear-gradient-2" x1="75.65" y1="-462.19" x2="62.15" y2="-473.74" gradientTransform="matrix(1, 0, 0, -1, 0, -418)" gradientUnits="userSpaceOnUse"><stop offset="0" stop-color="#35c8ff"/><stop offset="1" stop-color="#3e44fe"/></linearGradient></defs><g id="Elevated"><g id="Capture-Record-Interview-Chat"><path class="cls-1" d="M36.08,36.08V23.33H47.84a26,26,0,1,0,7.08,17.81,26.39,26.39,0,0,0-.49-5.06Z"/><path class="cls-2" d="M70.13,55.78a6.87,6.87,0,1,0-6.87-6.87A6.87,6.87,0,0,0,70.13,55.78Z"/><path class="cls-3" d="M49,44.75a.63.63,0,0,0-.69.56A11.42,11.42,0,0,1,36.93,55.52a.62.62,0,0,0-.41.16l-5.76,5.08V56.15a.63.63,0,0,0-.63-.63h-9a11.43,11.43,0,0,1-11-6.93,11.51,11.51,0,0,1,0-9,11.53,11.53,0,0,1,2.6-3.76,11.35,11.35,0,0,1,8.42-3.17h4.1a.63.63,0,1,0,0-1.25H21.15a12.59,12.59,0,0,0-5,.81A12.45,12.45,0,0,0,11.85,35,12.7,12.7,0,0,0,9,49.08a12.64,12.64,0,0,0,12.17,7.69h8.38v5.38a.61.61,0,0,0,.37.57.56.56,0,0,0,.25.05.66.66,0,0,0,.42-.15l6.62-5.85A12.68,12.68,0,0,0,49.53,45.44.63.63,0,0,0,49,44.75Z"/><path class="cls-3" d="M61.89,42a12.4,12.4,0,0,0,4.29-2.71,12.7,12.7,0,0,0,2.89-14.12A12.74,12.74,0,0,0,66.18,21a12.6,12.6,0,0,0-4.29-2.71,12.74,12.74,0,0,0-5-.8H41a12.68,12.68,0,0,0,0,25.33h8.77l6.81,5.85a.63.63,0,0,0,.41.15.66.66,0,0,0,.27-.06.6.6,0,0,0,.35-.57l-.12-5.37A12.48,12.48,0,0,0,61.89,42ZM58.14,27.5a.75.75,0,0,1,0,1.5H39.81a.75.75,0,0,1,0-1.5ZM39.28,32.08a.75.75,0,0,1,.53-.22H58.14a.75.75,0,0,1,.53.22.77.77,0,0,1,.22.54.75.75,0,0,1-.75.75H39.81a.75.75,0,0,1-.75-.75A.77.77,0,0,1,39.28,32.08Z"/><path class="cls-3" d="M5.83,23a.63.63,0,0,0,.62-.63V13.11h9.09a.63.63,0,0,0,0-1.25H5.83a.63.63,0,0,0-.63.63v9.85A.63.63,0,0,0,5.83,23Z"/><path class="cls-3" d="M15.69,66.89H6.45V57.81a.63.63,0,0,0-1.25,0v9.7a.63.63,0,0,0,.63.63h9.86a.63.63,0,1,0,0-1.25Z"/><path class="cls-3" d="M72.15,11.86H62.44a.63.63,0,0,0,0,1.25h9.09v9.23a.63.63,0,1,0,1.25,0V12.49A.63.63,0,0,0,72.15,11.86Z"/><path class="cls-3" d="M72.15,57.19a.62.62,0,0,0-.62.62v9.08H62.29a.63.63,0,1,0,0,1.25h9.86a.63.63,0,0,0,.63-.63v-9.7A.63.63,0,0,0,72.15,57.19Z"/><path class="cls-3" d="M31.24,41.93H19.45a.63.63,0,0,0,0,1.25H31.24a.63.63,0,1,0,0-1.25Z"/><path class="cls-3" d="M18.83,46.92a.63.63,0,0,0,.62.63H35.52a.63.63,0,0,0,0-1.25H19.45A.62.62,0,0,0,18.83,46.92Z"/></g></g></svg>