<svg xmlns="http://www.w3.org/2000/svg" xmlns:xlink="http://www.w3.org/1999/xlink" viewBox="0 0 80 80"><defs><style>.cls-1,.cls-2{isolation:isolate;}.cls-1{opacity:0.6;fill:url(#linear-gradient);}.cls-2{opacity:0.5;fill:url(#linear-gradient-2);}.cls-3{fill:#fff;}</style><linearGradient id="linear-gradient" x1="48.66" y1="63.45" x2="-0.01" y2="21.78" gradientUnits="userSpaceOnUse"><stop offset="0" stop-color="#00eb81"/><stop offset="1" stop-color="#3e44fe"/></linearGradient><linearGradient id="linear-gradient-2" x1="74.61" y1="-432.62" x2="60.71" y2="-444.52" gradientTransform="matrix(1, 0, 0, -1, 0, -418)" gradientUnits="userSpaceOnUse"><stop offset="0" stop-color="#3e44fe"/><stop offset="0.32" stop-color="#7052ff"/><stop offset="0.55" stop-color="#975cff"/><stop offset="1" stop-color="#b85cff"/></linearGradient></defs><g id="Elevated"><g id="_1-1-Archived_Meetings" data-name="1-1-Archived Meetings"><path class="cls-1" d="M28.76,21.65A24.76,24.76,0,1,0,53.52,46.41,24.77,24.77,0,0,0,28.76,21.65Zm13.91,21a3.1,3.1,0,1,1,3.09-3.09A3.1,3.1,0,0,1,42.67,42.6Z"/><path class="cls-2" d="M68.93,26.56a7.08,7.08,0,1,0-7.08-7.07A7.08,7.08,0,0,0,68.93,26.56Z"/><path class="cls-3" d="M33.4,44.7A7.49,7.49,0,0,0,21,49.41a.6.6,0,0,0,.15.5.64.64,0,0,0,.48.22H35.24a.62.62,0,0,0,.47-.22.61.61,0,0,0,.16-.5A7.51,7.51,0,0,0,33.4,44.7Z"/><path class="cls-3" d="M28.43,40.78a4.28,4.28,0,1,0-4.28-4.28A4.28,4.28,0,0,0,28.43,40.78Z"/><path class="cls-3" d="M52,44.7a7.46,7.46,0,0,0-2.47,4.71.64.64,0,0,0,.63.72H63.81a.64.64,0,0,0,.63-.72A7.49,7.49,0,0,0,52,44.7Zm11,4.15H51a6.22,6.22,0,0,1,12.1,0Z"/><path class="cls-3" d="M52.72,36.5A4.28,4.28,0,1,0,57,32.22,4.28,4.28,0,0,0,52.72,36.5Zm7.29,0a3,3,0,1,1-3-3A3,3,0,0,1,60,36.5Z"/><path class="cls-3" d="M69.92,10.63a4,4,0,0,0-2.21-2.16,3.8,3.8,0,0,0-1.54-.28H63.79a.64.64,0,1,0,0,1.27h2.39a2.93,2.93,0,0,1,1.06.2,2.56,2.56,0,0,1,.9.59,2.68,2.68,0,0,1,.61.88,2.57,2.57,0,0,1,.22,1v2.44a3.92,3.92,0,0,0-1.26-.82,4.32,4.32,0,0,0-1.54-.28H63.79a.64.64,0,1,0,0,1.27h2.39a2.88,2.88,0,0,1,1.06.2,2.68,2.68,0,0,1,.9.58,2.83,2.83,0,0,1,.61.89A2.57,2.57,0,0,1,69,17.51V20a4,4,0,0,0-1.26-.82,3.69,3.69,0,0,0-1.54-.28H63.79a.64.64,0,0,0-.64.64.64.64,0,0,0,.64.63h2.39a2.74,2.74,0,0,1,1.06.2,2.68,2.68,0,0,1,.9.58,2.83,2.83,0,0,1,.61.89A2.57,2.57,0,0,1,69,22.84V60.23A2.77,2.77,0,0,1,66.19,63H43.34s0,0,0-.07V45.54a5.59,5.59,0,0,0,2.06-.62,5.84,5.84,0,0,0,3.06-6.15A5.8,5.8,0,0,0,43.69,34c-.11,0-.23,0-.34,0V20.12h16a.64.64,0,0,0,.64-.63.64.64,0,0,0-.64-.64H18.53a4.57,4.57,0,0,0-1.55.28,4,4,0,0,0-1.26.82V17.51a2.74,2.74,0,0,1,.22-1.05,2.83,2.83,0,0,1,.61-.89,2.78,2.78,0,0,1,.9-.58,2.75,2.75,0,0,1,1.07-.2H59.37a.64.64,0,1,0,0-1.27H18.53A4.22,4.22,0,0,0,17,13.8a4,4,0,0,0-1.26.82V12.18a2.74,2.74,0,0,1,.22-1,3,3,0,0,1,.61-.89,2.78,2.78,0,0,1,.9-.58,3,3,0,0,1,1.07-.2H59.37a.64.64,0,1,0,0-1.27H18.53A4.38,4.38,0,0,0,17,8.47a4.12,4.12,0,0,0-1.32.86,4,4,0,0,0-.89,1.3,3.91,3.91,0,0,0-.32,1.55V60.4a3.65,3.65,0,0,0,1,2.65A3.73,3.73,0,0,0,18,64.24H66.19a4.06,4.06,0,0,0,4.06-4V12.17A4.09,4.09,0,0,0,69.92,10.63ZM44.64,39.82a.13.13,0,0,1,0,.06l-1.37.75L42,41.4l-.07,0a.08.08,0,0,1-.07,0,.1.1,0,0,1-.06,0,.19.19,0,0,1,0-.07V38.23a.19.19,0,0,1,0-.07s0,0,.06,0a.08.08,0,0,1,.07,0H42l1.31.77,1.33.76a.13.13,0,0,1,0,.06.08.08,0,0,1,0,.07A.07.07,0,0,1,44.64,39.82ZM16.36,62.19a2.46,2.46,0,0,1-.64-1.76V22.84a2.74,2.74,0,0,1,.22-1.05,2.81,2.81,0,0,1,1.51-1.47,2.89,2.89,0,0,1,1.07-.2H42.08V34a5.46,5.46,0,0,0-2,.57,5.74,5.74,0,0,0-2.57,2.54,5.82,5.82,0,0,0,1.07,6.78,5.78,5.78,0,0,0,3.23,1.63l.23,0V62.89s0,0,0,.07h-24A2.47,2.47,0,0,1,16.36,62.19Z"/></g></g></svg>