<svg xmlns="http://www.w3.org/2000/svg" xmlns:xlink="http://www.w3.org/1999/xlink" viewBox="0 0 80 80"><defs><style>.cls-1,.cls-2{isolation:isolate;}.cls-1{opacity:0.55;fill:url(#linear-gradient);}.cls-2{opacity:0.36;fill:url(#linear-gradient-2);}.cls-3{fill:#fff;}</style><linearGradient id="linear-gradient" x1="5" y1="-1246.24" x2="45.2" y2="-1246.24" gradientTransform="matrix(1, 0, 0, -1, 0, -1218)" gradientUnits="userSpaceOnUse"><stop offset="0" stop-color="#00eb81"/><stop offset="1" stop-color="#35c8ff"/></linearGradient><linearGradient id="linear-gradient-2" x1="61.32" y1="-1280.16" x2="55.14" y2="-1287.16" gradientTransform="matrix(1, 0, 0, -1, 0, -1218)" gradientUnits="userSpaceOnUse"><stop offset="0" stop-color="#ffabcb"/><stop offset="1" stop-color="#7d33ff"/></linearGradient></defs><g id="Elevated"><g id="Audio_Issue_Identification" data-name="Audio Issue Identification"><path class="cls-1" d="M25.1,48.34A20.1,20.1,0,1,0,5,28.24,20.1,20.1,0,0,0,25.1,48.34Z"/><path class="cls-2" d="M58.32,71a5.41,5.41,0,1,0-5.41-5.4A5.41,5.41,0,0,0,58.32,71Z"/><path class="cls-3" d="M17.69,31.26c.76-1.57,1.8-3.71,2.56-3.71h0c1.17,0,1.95,2,2.71,3.87.88,2.21,1.78,4.5,3.68,4.5,1.68,0,2.78-2.26,3.95-4.64.76-1.56,1.8-3.68,2.51-3.73,1.21,0,2,2,2.78,3.91.87,2.19,1.78,4.46,3.67,4.46,1.51,0,2.55-1.86,3.62-3.94l7.11,3.9,4.23,7.73a.64.64,0,0,0,.57.34h0a.66.66,0,0,0,.57-.34l4.24-7.73,7.75-4.24a.66.66,0,0,0,.34-.57.64.64,0,0,0-.34-.57l-7.75-4.25-4.24-7.73a.66.66,0,0,0-.57-.34h0a.64.64,0,0,0-.57.34l-4.23,7.73L42.56,30.5a.63.63,0,0,0-.32.51c-.83,1.61-1.85,3.61-2.66,3.61-1,0-1.75-1.85-2.47-3.64-.93-2.33-1.89-4.73-4-4.73h0c-1.51.1-2.55,2.21-3.64,4.46-.81,1.65-1.92,3.91-2.78,3.91-1,0-1.75-1.87-2.47-3.68-.92-2.31-1.87-4.69-3.89-4.69h-.08c-1.55,0-2.55,2.06-3.71,4.44-.8,1.66-1.91,3.93-2.77,3.93-1,0-1.75-1.85-2.46-3.64-.93-2.33-1.89-4.73-4-4.73a.65.65,0,0,0,0,1.3c1.21,0,2,2,2.77,3.91.88,2.19,1.78,4.46,3.67,4.46C15.43,35.92,16.53,33.65,17.69,31.26Zm33.41-4a.65.65,0,0,0,.26-.26l3.75-6.85L58.87,27a.65.65,0,0,0,.26.26L66,31.07l-6.87,3.76a.65.65,0,0,0-.26.26L55.11,42l-3.75-6.86a.65.65,0,0,0-.26-.26l-6.87-3.76Z"/><path class="cls-3" d="M75.62,30.1a20.53,20.53,0,0,0-39-7.9.65.65,0,0,0,1.17.56,19.26,19.26,0,1,1,3.86,22.1.52.52,0,0,0-.12-.18.67.67,0,0,0-.14-.09,19.57,19.57,0,0,1-2.68-3.4.64.64,0,0,0-.89-.22.65.65,0,0,0-.21.9,20.06,20.06,0,0,0,2.53,3.28l-4.7,4.72-1.39-1.39a2.31,2.31,0,0,0-1.64-.69h0a2.33,2.33,0,0,0-1.65.69l-16.4,16.4a2.32,2.32,0,0,0,0,3.28h0L18,71.83a2.33,2.33,0,0,0,3.29,0l16.4-16.4a2.34,2.34,0,0,0,0-3.29l-1.36-1.35,4.7-4.71a20.52,20.52,0,0,0,34.55-16ZM36.81,54.51l-16.4,16.4a1,1,0,0,1-1.45,0l-3.67-3.67a1,1,0,0,1,0-1.44l16.4-16.41a1.05,1.05,0,0,1,1.45,0l3.67,3.66A1,1,0,0,1,36.81,54.51Z"/></g></g></svg>