<svg xmlns="http://www.w3.org/2000/svg" xmlns:xlink="http://www.w3.org/1999/xlink" viewBox="0 0 80 80"><defs><style>.cls-1,.cls-2{isolation:isolate;}.cls-1{opacity:0.55;fill:url(#linear-gradient);}.cls-2{opacity:0.5;fill:url(#linear-gradient-2);}.cls-3{fill:#fff;}</style><linearGradient id="linear-gradient" x1="75.8" y1="-446.58" x2="36.13" y2="-480.55" gradientTransform="matrix(1, 0, 0, -1, 0, -418)" gradientUnits="userSpaceOnUse"><stop offset="0" stop-color="#00eb81"/><stop offset="1" stop-color="#35c8ff"/></linearGradient><linearGradient id="linear-gradient-2" x1="25.3" y1="-439.06" x2="-2.08" y2="-462.5" gradientTransform="matrix(1, 0, 0, -1, 0, -418)" gradientUnits="userSpaceOnUse"><stop offset="0" stop-color="#975cff"/><stop offset="1" stop-color="#3e44fe"/></linearGradient></defs><g id="Elevated"><g id="Content_Creator_Enhancement_Tools" data-name="Content Creator Enhancement Tools"><circle class="cls-1" cx="59.6" cy="42.45" r="20.2"/><circle class="cls-2" cx="14.1" cy="30.65" r="13.9"/><circle class="cls-3" cx="15.5" cy="23.35" r="1.3"/><circle class="cls-3" cx="19.3" cy="23.35" r="1.3"/><circle class="cls-3" cx="23.2" cy="23.35" r="1.3"/><path class="cls-3" d="M17.6,53.55h27a.7.7,0,1,0,0-1.4h-27a.7.7,0,1,0,0,1.4Z"/><path class="cls-3" d="M17.7,57.45H48.5a.75.75,0,0,0,.7-.7.68.68,0,0,0-.7-.7H17.7a.7.7,0,1,0,0,1.4Z"/><path class="cls-3" d="M67,42.45a.68.68,0,0,0-.7.7v15.5A3.33,3.33,0,0,1,63,62H14.3a3.33,3.33,0,0,1-3.3-3.3v-36a3.33,3.33,0,0,1,3.3-3.3H62.9a3.33,3.33,0,0,1,3.3,3.3v2.5a.7.7,0,0,0,1.4,0v-2.5a4.65,4.65,0,0,0-4.6-4.6H14.3a4.65,4.65,0,0,0-4.6,4.6v36a4.65,4.65,0,0,0,4.6,4.6H63a4.72,4.72,0,0,0,4.7-4.5V43.15A.68.68,0,0,0,67,42.45Z"/><path class="cls-3" d="M75.4,27.35l-1.9-1.9a2.3,2.3,0,0,0-3.1,0l-.8.8c0,.09-.09.16-.12.22L55.07,40.88a.78.78,0,0,0-.37.37l-2.3,6.3a.84.84,0,0,0,.2.7c.2.1.3.2.5.2s.1-.1.2,0l6.3-2.3a.78.78,0,0,0,.37-.37L74.5,31.35l0,0,.08-.06.8-.8A2.3,2.3,0,0,0,75.4,27.35ZM54.2,46.65l1.4-4,2.6,2.6Zm5.2-2.1-3.1-3.1L70,27.75l3.1,3.1Z"/><path class="cls-3" d="M17.9,48.55H41.7a1.71,1.71,0,0,0,1.8-1.7v-16a1.71,1.71,0,0,0-1.8-1.7H17.9a1.77,1.77,0,0,0-1.8,1.7v16A1.71,1.71,0,0,0,17.9,48.55Zm0-18H41.7a.46.46,0,0,1,.5.4v9.34l-7.3-5.14a.62.62,0,0,0-.8.1L27.4,42l-2.7-2.7a.61.61,0,0,0-.8-.1l-6.5,4.51V31A.46.46,0,0,1,17.9,30.55Z"/><path class="cls-3" d="M54.5,56l1.1,2a.71.71,0,0,0,.6.3.68.68,0,0,0,.6-.4l1.1-2,2-1.1c.2-.1.2-.2.2-.5a.6.6,0,0,0-.3-.6l-2-1.1-1.1-2a.65.65,0,0,0-1.1,0l-1.1,2-2,1.1a.75.75,0,0,0,0,1.2Z"/><path class="cls-3" d="M52.9,37.25a.55.55,0,0,0,.5-.3l1.1-2,2-1.1a.75.75,0,0,0,0-1.2l-2-1.1-1.1-2a.65.65,0,0,0-1.1,0l-1.1,2-2,1.1a.75.75,0,0,0,0,1.2l2,1.1,1.1,2A.71.71,0,0,0,52.9,37.25Zm-.9-3.4-1.1-.6,1.1-.6q.15,0,.3-.3l.6-1.1.6,1.1c.1.2.2.2.3.3l1.1.6-1.1.6c-.2.1-.2.2-.3.3l-.6,1.1-.6-1.1C52.2,34,52.1,34,52,33.85Z"/><path class="cls-3" d="M49.6,45.55l.4-.7.7-.4a.71.71,0,0,0,.3-.6.6.6,0,0,0-.3-.6l-.7-.4-.4-.7a.65.65,0,0,0-1.1,0l-.4.7-.7.4a.71.71,0,0,0-.3.6.6.6,0,0,0,.3.6l.7.4.4.7a.71.71,0,0,0,.6.3A.55.55,0,0,0,49.6,45.55Z"/></g></g></svg>