<svg xmlns="http://www.w3.org/2000/svg" xmlns:xlink="http://www.w3.org/1999/xlink" viewBox="0 0 80 80"><defs><style>.cls-1,.cls-2{isolation:isolate;}.cls-1{opacity:0.55;fill:url(#linear-gradient);}.cls-2{opacity:0.5;fill:url(#linear-gradient-2);}.cls-3{fill:#fff;}</style><linearGradient id="linear-gradient" x1="75.54" y1="-234.32" x2="51.22" y2="-255.14" gradientTransform="matrix(1, 0, 0, -1, 0, -218)" gradientUnits="userSpaceOnUse"><stop offset="0" stop-color="#00eb81"/><stop offset="1" stop-color="#35c8ff"/></linearGradient><linearGradient id="linear-gradient-2" x1="40.63" y1="-246.94" x2="-1.45" y2="-282.97" gradientTransform="matrix(1, 0, 0, -1, 0, -218)" gradientUnits="userSpaceOnUse"><stop offset="0" stop-color="#3e44fe"/><stop offset="0.32" stop-color="#7052ff"/><stop offset="0.55" stop-color="#975cff"/><stop offset="1" stop-color="#b85cff"/></linearGradient></defs><g id="Elevated"><g id="Classroom_Recording" data-name="Classroom Recording"><circle class="cls-1" cx="65.62" cy="24.81" r="12.38"/><circle class="cls-2" cx="23.43" cy="43.67" r="21.43"/><path class="cls-3" d="M65.24,22.33a1.52,1.52,0,1,0-1.53-1.52A1.52,1.52,0,0,0,65.24,22.33Z"/><path class="cls-3" d="M65.24,24.9a4.1,4.1,0,1,0-4.1-4.09A4.06,4.06,0,0,0,65.24,24.9Zm0-6.85a2.86,2.86,0,1,1,0,5.71,2.86,2.86,0,1,1,0-5.71Z"/><path class="cls-3" d="M23.43,31.29a.62.62,0,0,0,.57-.58V20.62a2,2,0,0,1,2.19-1.91H59.81a.65.65,0,0,0,.67-.66.66.66,0,0,0-.67-.67H26.19a3.31,3.31,0,0,0-3.43,3.14v10.1A.66.66,0,0,0,23.43,31.29Z"/><path class="cls-3" d="M30,56.43H14.19A9.2,9.2,0,0,1,32.57,57a.66.66,0,0,0,.67.67.82.82,0,0,0,.66-.57A10.48,10.48,0,0,0,13,57.1a.65.65,0,0,0,.67.66H30a.67.67,0,1,0,0-1.33Z"/><path class="cls-3" d="M23.43,44.9A5.9,5.9,0,1,0,17.52,39,5.92,5.92,0,0,0,23.43,44.9Zm0-10.57A4.67,4.67,0,1,1,18.76,39,4.68,4.68,0,0,1,23.43,34.33Z"/><path class="cls-3" d="M41.33,56.52A10.42,10.42,0,0,0,30.86,66.9a.64.64,0,0,0,.66.67H51.14a.65.65,0,0,0,.67-.67A10.43,10.43,0,0,0,41.33,56.52Z"/><path class="cls-3" d="M63.71,56.52A10.42,10.42,0,0,0,53.24,66.9a.64.64,0,0,0,.66.67H73.52a.65.65,0,0,0,.67-.67A10.43,10.43,0,0,0,63.71,56.52Z"/><path class="cls-3" d="M63.71,54.81a5.94,5.94,0,0,0,5.91-5.91,5.85,5.85,0,0,0-1.1-3.4,3.35,3.35,0,0,0,.15-.79V26.14a.67.67,0,0,0-1.34,0V44.26A5.83,5.83,0,0,0,63.71,43a5.92,5.92,0,0,0-5.43,3.62H46.77a5.9,5.9,0,0,0-10.88,0h-3.6a.67.67,0,1,0,0,1.33h3.22a5.91,5.91,0,1,0,11.64,0H57.89a5.89,5.89,0,0,0,5.82,6.86Z"/><path class="cls-3" d="M39.14,39.86V25.19a.65.65,0,0,0-.66-.67.66.66,0,0,0-.67.67V39.86a.65.65,0,0,0,.67.66C38.86,40.52,39.05,40.24,39.14,39.86Z"/><path class="cls-3" d="M44.1,39.86V29.48a.67.67,0,1,0-1.34,0V39.86a.67.67,0,0,0,1.34,0Z"/><path class="cls-3" d="M49.14,39.86v-7a.65.65,0,0,0-.66-.67.66.66,0,0,0-.67.67v7a.65.65,0,0,0,.67.66A.79.79,0,0,0,49.14,39.86Z"/></g></g></svg>