<svg xmlns="http://www.w3.org/2000/svg" xmlns:xlink="http://www.w3.org/1999/xlink" viewBox="0 0 80 80"><defs><style>.cls-1,.cls-2{isolation:isolate;}.cls-1{opacity:0.5;fill:url(#linear-gradient);}.cls-2{opacity:0.55;fill:url(#linear-gradient-2);}.cls-3{fill:#fff;}</style><linearGradient id="linear-gradient" x1="47.66" y1="-1233.34" x2="1.54" y2="-1272.83" gradientTransform="matrix(1, 0, 0, -1, 0, -1218)" gradientUnits="userSpaceOnUse"><stop offset="0" stop-color="#ff5898"/><stop offset="1" stop-color="#7d33ff"/></linearGradient><linearGradient id="linear-gradient-2" x1="71.66" y1="-1279.79" x2="59.79" y2="-1289.94" gradientTransform="matrix(1, 0, 0, -1, 0, -1218)" gradientUnits="userSpaceOnUse"><stop offset="0" stop-color="#00eb81"/><stop offset="1" stop-color="#35c8ff"/></linearGradient></defs><g id="Elevated"><g id="Layer_41" data-name="Layer 41"><path class="cls-1" d="M28.8,55A23.46,23.46,0,1,0,5.33,31.49,23.46,23.46,0,0,0,28.8,55Z"/><path class="cls-2" d="M66.81,72a6,6,0,1,0-6-6A6,6,0,0,0,66.81,72Z"/><path class="cls-3" d="M74.67,42.36h-23a.66.66,0,1,0,0,1.32h23a.66.66,0,1,0,0-1.32Z"/><path class="cls-3" d="M35.77,22.39a.66.66,0,0,0,.66-.66V20.15a.66.66,0,0,0-1.32,0v1.58A.67.67,0,0,0,35.77,22.39Z"/><path class="cls-3" d="M38.84,23.55a.67.67,0,0,0,.66-.66V19a.66.66,0,1,0-1.32,0v3.9A.66.66,0,0,0,38.84,23.55Z"/><path class="cls-3" d="M41.91,32.15A11.5,11.5,0,1,0,30.42,20.66,11.51,11.51,0,0,0,41.91,32.15Zm0-21.67A10.18,10.18,0,1,1,31.74,20.66,10.2,10.2,0,0,1,41.91,10.48Z"/><path class="cls-3" d="M45.27,65.27a3.2,3.2,0,0,0-3.13,2.55H10.08a.66.66,0,0,0,0,1.32H42.14a3.2,3.2,0,1,0,3.13-3.87Zm0,5.09a1.89,1.89,0,1,1,1.89-1.88A1.88,1.88,0,0,1,45.27,70.36Z"/><path class="cls-3" d="M48.05,22.39a.66.66,0,0,0,.66-.66V20.15a.66.66,0,0,0-1.32,0v1.58A.67.67,0,0,0,48.05,22.39Z"/><path class="cls-3" d="M66.81,35.73A7.86,7.86,0,1,0,59,27.87,7.86,7.86,0,0,0,66.81,35.73Zm4.61-8.54a.67.67,0,0,1,1.33,0v1.36a.67.67,0,0,1-1.33,0Zm-2.63-1a.66.66,0,1,1,1.32,0v3.35a.66.66,0,0,1-1.32,0Zm-2.64-1.56a.66.66,0,1,1,1.32,0V31.1a.66.66,0,1,1-1.32,0ZM63.51,26.2a.66.66,0,1,1,1.32,0v3.35a.66.66,0,1,1-1.32,0Z"/><path class="cls-3" d="M41.91,25.36a.65.65,0,0,0,.66-.66V17.17a.66.66,0,1,0-1.32,0V24.7A.66.66,0,0,0,41.91,25.36Z"/><path class="cls-3" d="M45,23.55a.67.67,0,0,0,.66-.66V19a.66.66,0,1,0-1.32,0v3.9A.66.66,0,0,0,45,23.55Z"/><path class="cls-3" d="M69.58,55.09H41.71a.66.66,0,1,0,0,1.32H69.58a.66.66,0,0,0,0-1.32Z"/><path class="cls-3" d="M45.27,46.23a3.21,3.21,0,1,0-3.13-3.87H20.26a.66.66,0,0,0,0,1.32H42.14A3.21,3.21,0,0,0,45.27,46.23Zm0-5.09A1.88,1.88,0,1,1,43.39,43,1.89,1.89,0,0,1,45.27,41.14Z"/><path class="cls-3" d="M32,55.09H15.17a.66.66,0,0,0,0,1.32H32a3.21,3.21,0,1,0,0-1.32Zm5,.66a1.88,1.88,0,1,1-1.88-1.89A1.88,1.88,0,0,1,37,55.75Z"/><path class="cls-3" d="M64.49,67.82H51.89a.66.66,0,1,0,0,1.32h12.6a.66.66,0,1,0,0-1.32Z"/><path class="cls-3" d="M18,35.73a7.86,7.86,0,1,0-7.86-7.86A7.86,7.86,0,0,0,18,35.73Zm4.62-8.54a.66.66,0,1,1,1.32,0v1.36a.66.66,0,1,1-1.32,0ZM20,26.2a.66.66,0,1,1,1.32,0v3.35a.66.66,0,1,1-1.32,0Zm-2.64-1.56a.66.66,0,0,1,1.32,0V31.1a.66.66,0,1,1-1.32,0ZM14.71,26.2a.67.67,0,1,1,1.33,0v3.35a.67.67,0,0,1-1.33,0Zm-2.63,2.35V27.19a.66.66,0,1,1,1.32,0v1.36a.66.66,0,1,1-1.32,0Z"/></g></g></svg>