<svg xmlns="http://www.w3.org/2000/svg" xmlns:xlink="http://www.w3.org/1999/xlink" viewBox="0 0 80 80"><defs><style>.cls-1,.cls-2{isolation:isolate;}.cls-1{opacity:0.5;fill:url(#linear-gradient);}.cls-2{opacity:0.55;fill:url(#linear-gradient-2);}.cls-3{fill:#fff;}</style><linearGradient id="linear-gradient" x1="25.4" y1="-1036.55" x2="63.06" y2="-1036.55" gradientTransform="matrix(1, 0, 0, -1, 0, -1018)" gradientUnits="userSpaceOnUse"><stop offset="0" stop-color="#ff5898"/><stop offset="1" stop-color="#7d33ff"/></linearGradient><linearGradient id="linear-gradient-2" x1="69.57" y1="-1065.21" x2="29.34" y2="-1099.66" gradientTransform="matrix(1, 0, 0, -1, 0, -1018)" gradientUnits="userSpaceOnUse"><stop offset="0" stop-color="#00eb81"/><stop offset="1" stop-color="#35c8ff"/></linearGradient></defs><g id="Elevated"><g id="Virtual_Classroom" data-name="Virtual Classroom"><path class="cls-1" d="M51.67,7.24a11.31,11.31,0,0,1,0,22.62H36.79a11.31,11.31,0,1,1,0-22.62Z"/><path class="cls-2" d="M63.79,72.76H36V66.54A24.24,24.24,0,0,1,60.23,42.29h3.56Z"/><path class="cls-3" d="M25.44,52.89A6.56,6.56,0,1,0,32,46.33,6.56,6.56,0,0,0,25.44,52.89Z"/><path class="cls-3" d="M47.9,46.33a6.56,6.56,0,1,0,6.56,6.56A6.56,6.56,0,0,0,47.9,46.33Zm0,11.82a5.26,5.26,0,1,1,5.26-5.26A5.27,5.27,0,0,1,47.9,58.15Z"/><path class="cls-3" d="M59.51,27.48H58.19a.65.65,0,1,0,0,1.3h1.32a3.13,3.13,0,0,1,3.22,3.12V60.63a3.21,3.21,0,0,1-3.22,3.12H55.88a11.66,11.66,0,0,0-15.93,0,11.66,11.66,0,0,0-15.82-.07H19.88a2.86,2.86,0,0,1-2.72-2.91V31.8a3.22,3.22,0,0,1,3.23-3.12h1.22a.65.65,0,1,0,0-1.3H20.39a4.48,4.48,0,0,0-4.53,4.42V60.74a4.17,4.17,0,0,0,4,4.21h3a11.46,11.46,0,0,0-2.55,7.2.65.65,0,0,0,.65.65H58.9a.65.65,0,0,0,.65-.65,11.45,11.45,0,0,0-2.47-7.1h2.43A4.48,4.48,0,0,0,64,60.63V31.9A4.43,4.43,0,0,0,59.51,27.48Zm-1.28,44H43.62a11.38,11.38,0,0,0-2.77-6.85A10.37,10.37,0,0,1,58.23,71.5Z"/><path class="cls-3" d="M75,63.65H70.62a2.85,2.85,0,0,1-2.71-2.91V31.8a3.21,3.21,0,0,1,3.22-3.12H74.9a.65.65,0,1,0,0-1.3H71.13a4.47,4.47,0,0,0-4.52,4.42V60.74a4.17,4.17,0,0,0,4,4.21H75a.65.65,0,1,0,0-1.3Z"/><path class="cls-3" d="M9.38,27.48H5a.65.65,0,1,0,0,1.3H9.38a2.86,2.86,0,0,1,2.71,2.92V60.63a3.21,3.21,0,0,1-3.22,3.12H5.1a.65.65,0,1,0,0,1.3H8.87a4.47,4.47,0,0,0,4.52-4.42V31.7A4.17,4.17,0,0,0,9.38,27.48Z"/><path class="cls-3" d="M33.43,33.26H40.1l-.59,3.42a.64.64,0,0,0,.29.65.58.58,0,0,0,.35.11.66.66,0,0,0,.36-.11l6.26-4.17a10.64,10.64,0,0,0-.2-21.27h0L33.43,12a10.64,10.64,0,1,0,0,21.27Zm0-20,13.14-.1a9.34,9.34,0,1,1,0,18.67.66.66,0,0,0-.36.11l-5.16,3.44.46-2.69a.64.64,0,0,0-.15-.53.65.65,0,0,0-.49-.23H33.43a9.34,9.34,0,1,1,0-18.67Z"/></g></g></svg>