<svg xmlns="http://www.w3.org/2000/svg" xmlns:xlink="http://www.w3.org/1999/xlink" viewBox="0 0 80 80"><defs><style>.cls-1,.cls-2{isolation:isolate;}.cls-1{opacity:0.55;fill:url(#linear-gradient);}.cls-2{opacity:0.5;fill:url(#linear-gradient-2);}.cls-3{fill:#fff;}</style><linearGradient id="linear-gradient" x1="62.07" y1="-1062.27" x2="18.34" y2="-1103.32" gradientTransform="matrix(1, 0, 0, -1, 0, -1018)" gradientUnits="userSpaceOnUse"><stop offset="0" stop-color="#00eb81"/><stop offset="1" stop-color="#35c8ff"/></linearGradient><linearGradient id="linear-gradient-2" x1="50.54" y1="-1027.88" x2="40.17" y2="-1036.77" gradientTransform="matrix(1, 0, 0, -1, 0, -1018)" gradientUnits="userSpaceOnUse"><stop offset="0" stop-color="#ff5898"/><stop offset="1" stop-color="#7d33ff"/></linearGradient></defs><g id="Elevated"><g id="Webinars"><path class="cls-1" d="M68.79,58.23c2.88,0,5.21,1.93,5.21,4.32v4.88c0,2.38-2.34,4.32-5.21,4.32H10.46A4.27,4.27,0,0,1,6,67.66V62.54c0-2.39,2.33-4.32,5.21-4.32Z"/><path class="cls-2" d="M46.29,18.8A5.28,5.28,0,1,0,41,13.52,5.28,5.28,0,0,0,46.29,18.8Z"/><path class="cls-3" d="M31.76,49a6.25,6.25,0,1,0-6.24-6.24A6.25,6.25,0,0,0,31.76,49Z"/><path class="cls-3" d="M44,42.78a6.24,6.24,0,1,0,6.24-6.25A6.25,6.25,0,0,0,44,42.78Zm11.15,0a4.91,4.91,0,1,1-4.91-4.91A4.92,4.92,0,0,1,55.18,42.78Z"/><path class="cls-3" d="M71.11,60.28V22.77a4.68,4.68,0,0,0-4.66-4.66h-10a.67.67,0,1,0,0,1.33h10a3.35,3.35,0,0,1,3.33,3.33V60.28H61.31a11.07,11.07,0,0,0-18.88-7.15A11.74,11.74,0,0,0,41,54.87a11.14,11.14,0,0,0-1.42-1.74,11.06,11.06,0,0,0-18.87,7.15H12.26V22.77a3.36,3.36,0,0,1,1-2.35,3.3,3.3,0,0,1,2.35-1h10a.67.67,0,1,0,0-1.33h-10a4.66,4.66,0,0,0-4.66,4.66V60.28A2.68,2.68,0,0,0,8.26,63v6.8a2.68,2.68,0,0,0,2.68,2.67H71.09a2.68,2.68,0,0,0,2.67-2.67V63A2.67,2.67,0,0,0,71.11,60.28ZM43.38,54.07A9.74,9.74,0,0,1,60,60.28H42.8a10.93,10.93,0,0,0-1-4.07A9.73,9.73,0,0,1,43.38,54.07ZM72.43,69.75a1.34,1.34,0,0,1-1.34,1.34H10.94A1.34,1.34,0,0,1,9.6,69.75V63a1.34,1.34,0,0,1,1.34-1.34h.55l.1,0,.11,0h9.55l.1,0H60.68l.1,0h9.56l.1,0,.11,0h.54A1.34,1.34,0,0,1,72.43,63Z"/><path class="cls-3" d="M68.37,65.69H26a2.18,2.18,0,0,0-4.16,0H13.65a.67.67,0,0,0,0,1.33h8.23A2.18,2.18,0,0,0,26,67H68.37a.67.67,0,1,0,0-1.33Z"/><path class="cls-3" d="M28.86,19.39l3.78,2-1.12,5.39a.67.67,0,0,0,.42.76l8.85,3.23a.65.65,0,0,0,.45,0l5.39-2,.08,1.38a.68.68,0,0,0,.67.63h0A.68.68,0,0,0,48,30.1l-.1-1.78,2.15-.78a.67.67,0,0,0,.42-.76l-1.12-5.39,3.78-2a.68.68,0,0,0,.36-.59.66.66,0,0,0-.36-.59L41.33,11.93a.64.64,0,0,0-.63,0L28.86,18.21a.66.66,0,0,0-.36.59A.68.68,0,0,0,28.86,19.39ZM41,29.43l-8.07-2.95L33.86,22l6.84,3.63a.7.7,0,0,0,.31.07.71.71,0,0,0,.32-.07l5-2.64.25,4.38Zm8.08-2.95-1.23.45-.26-4.59.57-.3ZM41,13.27,51.44,18.8l-4.53,2.4-5.58-3a.67.67,0,0,0-.9.27.66.66,0,0,0,.27.9L45.49,22,41,24.32,30.59,18.8Z"/></g></g></svg>