<svg xmlns="http://www.w3.org/2000/svg" xmlns:xlink="http://www.w3.org/1999/xlink" viewBox="0 0 80 80"><defs><style>.cls-1,.cls-2{isolation:isolate;}.cls-1{opacity:0.55;fill:url(#linear-gradient);}.cls-2{opacity:0.5;fill:url(#linear-gradient-2);}.cls-3{fill:#fff;}</style><linearGradient id="linear-gradient" x1="35.54" y1="-1030.73" x2="-2.23" y2="-1063.08" gradientTransform="matrix(1, 0, 0, -1, 0, -1018)" gradientUnits="userSpaceOnUse"><stop offset="0" stop-color="#00eb81"/><stop offset="1" stop-color="#35c8ff"/></linearGradient><linearGradient id="linear-gradient-2" x1="71.51" y1="-1051.25" x2="26.5" y2="-1089.79" gradientTransform="matrix(1, 0, 0, -1, 0, -1018)" gradientUnits="userSpaceOnUse"><stop offset="0" stop-color="#3e44fe"/><stop offset="0.32" stop-color="#7052ff"/><stop offset="0.55" stop-color="#975cff"/><stop offset="1" stop-color="#b85cff"/></linearGradient></defs><g id="Elevated"><g id="Entertainment"><path class="cls-1" d="M26.83,8.1h3.31V36.7H4V30.9a22.81,22.81,0,0,1,6.69-16.14A23,23,0,0,1,18.1,9.82,22.69,22.69,0,0,1,26.83,8.1Z"/><path class="cls-2" d="M53.1,71.9A22.9,22.9,0,1,0,30.21,49,22.89,22.89,0,0,0,53.1,71.9Z"/><path class="cls-3" d="M25.88,51.53a6.6,6.6,0,1,0,6.59-6.59A6.6,6.6,0,0,0,25.88,51.53Z"/><path class="cls-3" d="M49.41,59.44a11.73,11.73,0,0,0-8.18,3.31c-.1.1-.19.21-.29.32-.1-.11-.19-.22-.29-.32a11.74,11.74,0,0,0-19.9,8.07.73.73,0,0,0,.19.49.67.67,0,0,0,.48.2h39a.66.66,0,0,0,.48-.2.69.69,0,0,0,.19-.49A11.72,11.72,0,0,0,49.41,59.44ZM44.15,70.17a11.46,11.46,0,0,0-2.34-6.08c.12-.13.23-.26.36-.38a10.39,10.39,0,0,1,17.58,6.46Z"/><path class="cls-3" d="M42.81,51.53a6.59,6.59,0,1,0,6.59-6.59A6.6,6.6,0,0,0,42.81,51.53Zm6.59-5.25a5.26,5.26,0,1,1-5.25,5.25A5.26,5.26,0,0,1,49.4,46.28Z"/><path class="cls-3" d="M69.49,19.67a4.82,4.82,0,0,0-1.07-1.57A4.9,4.9,0,0,0,65,16.72h-48a5.08,5.08,0,0,0-1.86.35,4.86,4.86,0,0,0-2.67,2.6A5,5,0,0,0,12,21.54V51.68a.67.67,0,0,0,1.34,0v-5.2h7.42v5.2a.67.67,0,0,0,1.34,0V18.05H59.77V51.68a.67.67,0,1,0,1.34,0v-5.2h7.44v5a.67.67,0,0,0,.67.67.66.66,0,0,0,.66-.67V21.53A4.6,4.6,0,0,0,69.49,19.67Zm-8.38,8.58h7.44V36H61.11ZM20.76,36H13.34V28.25h7.42Zm-7.42,9.11V37.37h7.42v7.77Zm7.42-18.22H13.34V21.55a3.47,3.47,0,0,1,.28-1.35,3.56,3.56,0,0,1,.78-1.14,3.52,3.52,0,0,1,1.15-.75,3.1,3.1,0,0,1,1.37-.26h3.84ZM65,18.05a3,3,0,0,1,1.35.26,3.52,3.52,0,0,1,1.15.75,3.41,3.41,0,0,1,.78,1.14,3.47,3.47,0,0,1,.29,1.34v5.38H61.11V18.05ZM61.11,45.14V37.37h7.44v7.77Z"/><path class="cls-3" d="M36.27,25.57a.67.67,0,0,0-.67,0,.68.68,0,0,0-.33.58V39.79a.68.68,0,0,0,.33.58.69.69,0,0,0,.34.09.66.66,0,0,0,.33-.09l11.81-6.82a.67.67,0,0,0,0-1.16Z"/></g></g></svg>