<svg xmlns="http://www.w3.org/2000/svg" xmlns:xlink="http://www.w3.org/1999/xlink" viewBox="0 0 80 80"><defs><style>.cls-1,.cls-2{isolation:isolate;}.cls-1{opacity:0.5;fill:url(#linear-gradient);}.cls-2{opacity:0.6;fill:url(#linear-gradient-2);}.cls-3{fill:#fff;}</style><linearGradient id="linear-gradient" x1="51.88" y1="-632.95" x2="-2.43" y2="-672.35" gradientTransform="matrix(1, 0, 0, -1, 0, -618)" gradientUnits="userSpaceOnUse"><stop offset="0" stop-color="#3e44fe"/><stop offset="0.32" stop-color="#7052ff"/><stop offset="0.55" stop-color="#975cff"/><stop offset="1" stop-color="#b85cff"/></linearGradient><linearGradient id="linear-gradient-2" x1="74.22" y1="-649.03" x2="56.41" y2="-664.29" gradientTransform="matrix(1, 0, 0, -1, 0, -618)" gradientUnits="userSpaceOnUse"><stop offset="0" stop-color="#00eb81"/><stop offset="1" stop-color="#3e44fe"/></linearGradient></defs><g id="Elevated"><g id="Capture-Edit-Enhance-Media"><path class="cls-1" d="M42.22,16.69h-36A2.19,2.19,0,0,0,4,18.88V51.17a2.19,2.19,0,0,0,2.19,2.19h36a2.19,2.19,0,0,0,2.19-2.19V18.88A2.19,2.19,0,0,0,42.22,16.69Z"/><path class="cls-2" d="M66.94,46.33a9.06,9.06,0,1,0-9.06-9.06A9.06,9.06,0,0,0,66.94,46.33Z"/><path class="cls-3" d="M47.12,55.61a3.77,3.77,0,0,0-3.4,2.15l-2.64-6.44h4.78a2.81,2.81,0,0,0,2.81-2.81V16.21a2.81,2.81,0,0,0-2.81-2.81h-36A2.81,2.81,0,0,0,7,16.21v32.3a2.81,2.81,0,0,0,2.81,2.81H39.74L37.1,57.76a3.78,3.78,0,1,0,.13,3L40.41,53l3.18,7.76a3.78,3.78,0,1,0,3.53-5.11ZM33.7,61.93a2.56,2.56,0,1,1,2.39-1.7l-.05.12a.09.09,0,0,1,0,0A2.54,2.54,0,0,1,33.7,61.93ZM9.83,50.07a1.57,1.57,0,0,1-1.57-1.56V16.21a1.57,1.57,0,0,1,1.57-1.56h36a1.57,1.57,0,0,1,1.57,1.56v32.3a1.57,1.57,0,0,1-1.57,1.56H41.6l3.18-7.77a.62.62,0,0,0-1.15-.47l-3.22,7.86-3.22-7.86A.62.62,0,0,0,36,42.3l3.19,7.77ZM47.12,61.93a2.54,2.54,0,0,1-2.33-1.53s0,0,0,0l-.05-.11a2.66,2.66,0,0,1-.15-.85,2.54,2.54,0,1,1,2.54,2.54Z"/><path class="cls-3" d="M72,20.37a3.21,3.21,0,0,0-2.28-.95H51.22a.63.63,0,0,0,0,1.25H69.75a2,2,0,0,1,2,2V54.11a2,2,0,0,1-2,2H54.05a.63.63,0,0,0,0,1.25h15.7A3.24,3.24,0,0,0,73,54.11V22.65A3.21,3.21,0,0,0,72,20.37Z"/><path class="cls-3" d="M27.4,55.83h-14a1.68,1.68,0,0,0-3.14,0H8a.61.61,0,0,0-.62.62.62.62,0,0,0,.62.62h2.29a1.69,1.69,0,0,0,3.14,0h14a.63.63,0,0,0,.63-.62A.62.62,0,0,0,27.4,55.83Z"/><path class="cls-3" d="M27.4,60.05H21a1.69,1.69,0,0,0-3.14,0H8a.62.62,0,0,0,0,1.24h9.87a1.69,1.69,0,0,0,3.14,0H27.4a.62.62,0,1,0,0-1.24Z"/><path class="cls-3" d="M27.4,64.28h-11a1.69,1.69,0,0,0-3.14,0H8a.63.63,0,0,0,0,1.25h5.28a1.69,1.69,0,0,0,3.14,0h11a.63.63,0,1,0,0-1.25Z"/><path class="cls-3" d="M21.29,27.59a.61.61,0,0,0-.62.62v8.31a.61.61,0,0,0,.62.62.62.62,0,0,0,.62-.62V28.21A.62.62,0,0,0,21.29,27.59Z"/><path class="cls-3" d="M34.39,27.59a.62.62,0,0,0-.62.62v8.31a.62.62,0,0,0,1.24,0V28.21A.62.62,0,0,0,34.39,27.59Z"/><path class="cls-3" d="M27.83,23.71a.62.62,0,0,0-.62.62V40.39a.63.63,0,0,0,1.25,0V24.33A.62.62,0,0,0,27.83,23.71Z"/><path class="cls-3" d="M14.74,30.07a.62.62,0,0,0-.62.62V34a.62.62,0,0,0,1.24,0V30.69A.62.62,0,0,0,14.74,30.07Z"/><path class="cls-3" d="M40.94,34.66a.62.62,0,0,0,.62-.62V30.69a.62.62,0,0,0-.62-.62.62.62,0,0,0-.62.62V34A.62.62,0,0,0,40.94,34.66Z"/></g></g></svg>