<svg xmlns="http://www.w3.org/2000/svg" xmlns:xlink="http://www.w3.org/1999/xlink" viewBox="0 0 80 80"><defs><style>.cls-1,.cls-2{isolation:isolate;}.cls-1{opacity:0.5;fill:url(#linear-gradient);}.cls-2{opacity:0.6;fill:url(#linear-gradient-2);}.cls-3{fill:#fff;}</style><linearGradient id="linear-gradient" x1="18.79" y1="-833.88" x2="5.16" y2="-850.22" gradientTransform="matrix(1, 0, 0, -1, 0, -818)" gradientUnits="userSpaceOnUse"><stop offset="0" stop-color="#ff5898"/><stop offset="1" stop-color="#7d33ff"/></linearGradient><linearGradient id="linear-gradient-2" x1="71.07" y1="-841.99" x2="21.79" y2="-884.21" gradientTransform="matrix(1, 0, 0, -1, 0, -818)" gradientUnits="userSpaceOnUse"><stop offset="0" stop-color="#00eb81"/><stop offset="1" stop-color="#3e44fe"/></linearGradient></defs><g id="Elevated"><g id="Mobile_Content" data-name="Mobile Content"><path class="cls-1" d="M12.5,31.92A8.51,8.51,0,1,0,4,23.42,8.5,8.5,0,0,0,12.5,31.92Z"/><path class="cls-2" d="M50.92,66.33A25.08,25.08,0,1,0,25.84,41.25,25.08,25.08,0,0,0,50.92,66.33Z"/><path class="cls-3" d="M50.81,59a.62.62,0,0,0-.61.61V66.1a3.31,3.31,0,0,1-1,2.35,3.35,3.35,0,0,1-2.35,1H19.68a3.22,3.22,0,0,1-1.26-.25,3.3,3.3,0,0,1-1.08-.72,3.15,3.15,0,0,1-.72-1.08,3.28,3.28,0,0,1-.26-1.27V62.85a14.29,14.29,0,0,0,1.6.37,12.48,12.48,0,1,0-1.6-24.31v-25a3.28,3.28,0,0,1,.26-1.27,3.15,3.15,0,0,1,.72-1.08,3.3,3.3,0,0,1,1.08-.72,3.22,3.22,0,0,1,1.26-.25h7.11l.89,2.71a.6.6,0,0,0,.58.42H38.32a.62.62,0,0,0,.58-.42l.89-2.71h7.09a3.35,3.35,0,0,1,2.35,1,3.31,3.31,0,0,1,1,2.35V25.71a.61.61,0,0,0,.61.61.61.61,0,0,0,.61-.61V13.9a4.51,4.51,0,0,0-1.33-3.21,4.61,4.61,0,0,0-3.21-1.33H19.68A4.44,4.44,0,0,0,18,9.71a4.3,4.3,0,0,0-1.48,1,4.59,4.59,0,0,0-1,1.47,4.53,4.53,0,0,0-.34,1.74V39.33l-.83.37a12.48,12.48,0,0,0-3.27,20,12.27,12.27,0,0,0,4.1,2.73V66.1a4.53,4.53,0,0,0,.34,1.74,4.59,4.59,0,0,0,1,1.47,4.3,4.3,0,0,0,1.48,1,4.44,4.44,0,0,0,1.72.35h27.2a4.61,4.61,0,0,0,3.21-1.33,4.51,4.51,0,0,0,1.33-3.21V59.61A.61.61,0,0,0,50.81,59ZM17.45,47.21a.43.43,0,0,1,.05-.16.53.53,0,0,1,.13-.13.47.47,0,0,1,.17,0,.33.33,0,0,1,.17,0l3.18,1.87,3.17,1.87a.3.3,0,0,1,.12.13.34.34,0,0,1,0,.17.33.33,0,0,1,0,.16.3.3,0,0,1-.12.13L21.15,53,18,54.87a.31.31,0,0,1-.34,0,.3.3,0,0,1-.13-.12.55.55,0,0,1-.05-.17Z"/><path class="cls-3" d="M62.69,38.08H42.57a.61.61,0,0,0-.61.61.61.61,0,0,0,.61.61H62.69a.6.6,0,0,0,.6-.61A.61.61,0,0,0,62.69,38.08Z"/><path class="cls-3" d="M62.69,34H42.57a.61.61,0,0,0-.61.61.61.61,0,0,0,.61.61H62.69a.61.61,0,0,0,.6-.61A.6.6,0,0,0,62.69,34Z"/><path class="cls-3" d="M42,30.53a.6.6,0,0,0,.61.6H62.69a.61.61,0,0,0,0-1.21H42.57A.61.61,0,0,0,42,30.53Z"/><path class="cls-3" d="M62.69,42.17H42.57a.61.61,0,1,0,0,1.21H62.69a.61.61,0,0,0,0-1.21Z"/><path class="cls-3" d="M62.69,46.25H42.57a.61.61,0,0,0-.61.61.61.61,0,0,0,.61.61H62.69a.61.61,0,0,0,.6-.61A.6.6,0,0,0,62.69,46.25Z"/><path class="cls-3" d="M62.69,50.32H42.57a.61.61,0,0,0-.61.61.61.61,0,0,0,.61.61H62.69a.6.6,0,0,0,.6-.61A.61.61,0,0,0,62.69,50.32Z"/><path class="cls-3" d="M58.47,54.41H42.57a.61.61,0,1,0,0,1.21h15.9a.61.61,0,1,0,0-1.21Z"/></g></g></svg>