<svg xmlns="http://www.w3.org/2000/svg" xmlns:xlink="http://www.w3.org/1999/xlink" viewBox="0 0 80 80"><defs><style>.cls-1,.cls-2{isolation:isolate;}.cls-1{opacity:0.55;fill:url(#linear-gradient);}.cls-2{opacity:0.5;fill:url(#linear-gradient-2);}.cls-3{fill:#fff;}</style><linearGradient id="linear-gradient" x1="60.29" y1="-242.01" x2="-7.65" y2="-300.18" gradientTransform="matrix(1, 0, 0, -1, 0, -218)" gradientUnits="userSpaceOnUse"><stop offset="0" stop-color="#00eb81"/><stop offset="1" stop-color="#35c8ff"/></linearGradient><linearGradient id="linear-gradient-2" x1="76.7" y1="-236.41" x2="62" y2="-249" gradientTransform="matrix(1, 0, 0, -1, 0, -218)" gradientUnits="userSpaceOnUse"><stop offset="0" stop-color="#975cff"/><stop offset="1" stop-color="#3e44fe"/></linearGradient></defs><g id="Elevated"><g id="Real-time_First_Aid" data-name="Real-time First Aid"><path class="cls-1" d="M57.1,69H7.9a6.06,6.06,0,0,1-6.1-6.1V32.75a6.06,6.06,0,0,1,6.1-6.1H57.1a6.06,6.06,0,0,1,6.1,6.1V63A6,6,0,0,1,57.1,69Z"/><circle class="cls-2" cx="70.7" cy="23.55" r="7.5"/><path class="cls-3" d="M14.6,59.15a.68.68,0,0,0,.7.7H54.9a.7.7,0,0,0,0-1.4H15.3A.68.68,0,0,0,14.6,59.15Z"/><path class="cls-3" d="M43,31H38.2a1.69,1.69,0,0,0-1.7,1.7v5.5H31.1a1.69,1.69,0,0,0-1.7,1.7v4.8a1.69,1.69,0,0,0,1.7,1.7h5.5v5.5a1.69,1.69,0,0,0,1.7,1.7h4.8a1.69,1.69,0,0,0,1.7-1.7v-5.6h5.5a1.69,1.69,0,0,0,1.7-1.7v-4.8a1.76,1.76,0,0,0-1.8-1.6H44.7v-5.5A1.69,1.69,0,0,0,43,31Z"/><path class="cls-3" d="M61.9,21.55h4.8a3.48,3.48,0,0,1,3.5,3.5v23.1a.68.68,0,0,0,.7.7.58.58,0,0,0,.6-.6V25a4.8,4.8,0,0,0-4.8-4.8H61.9a.7.7,0,1,0,0,1.4Z"/><path class="cls-3" d="M56.9,64.55H14.7a3.48,3.48,0,0,1-3.5-3.5V25.15a3.48,3.48,0,0,1,3.5-3.5H56.3a.7.7,0,1,0,0-1.4H14.7a4.8,4.8,0,0,0-4.8,4.8V61a4.8,4.8,0,0,0,4.8,4.8H56.8c.4,0,.8-.1.8-.5A.68.68,0,0,0,56.9,64.55Z"/><path class="cls-3" d="M32.1,18.35a.68.68,0,0,0,.7-.7v-2.3a3,3,0,0,1,3-3h9.7a3,3,0,0,1,3,3v2.3a.68.68,0,0,0,.7.7c.4,0,.7-.3.5-.7v-2.3a4.27,4.27,0,0,0-4.3-4.3H35.7a4.27,4.27,0,0,0-4.3,4.3v2.3A.68.68,0,0,0,32.1,18.35Z"/><path class="cls-3" d="M66.8,50.15a9.1,9.1,0,1,0,9.1,9.1A9.13,9.13,0,0,0,66.8,50.15Zm0,16.9a7.8,7.8,0,1,1,7.8-7.8A7.81,7.81,0,0,1,66.8,67.05Z"/><path class="cls-3" d="M71.1,58.55H67.5v-4a.7.7,0,1,0-1.4,0v4.6a.68.68,0,0,0,.7.7h4.3c.4,0,.7-.2.7-.6A.68.68,0,0,0,71.1,58.55Z"/></g></g></svg>