<svg width="23" height="23" viewBox="0 0 23 23" fill="none" xmlns="../../../../../../../www.w3.org/2000/svg.html">
<path d="M20.1487 6.17939H8.03222C7.52566 6.18395 7.04138 6.38839 6.6848 6.74822C6.32821 7.10804 6.12818 7.59413 6.1282 8.10071V20.2172C6.12818 20.7237 6.32821 21.2098 6.6848 21.5696C7.04138 21.9295 7.52566 22.1339 8.03222 22.1385H20.1487C20.6552 22.1339 21.1395 21.9295 21.496 21.5696C21.8526 21.2098 22.0527 20.7237 22.0526 20.2172V8.10071C22.0527 7.59413 21.8526 7.10804 21.496 6.74822C21.1395 6.38839 20.6552 6.18395 20.1487 6.17939ZM20.841 20.1652C20.8433 20.2576 20.8271 20.3495 20.7934 20.4355C20.7596 20.5215 20.709 20.5999 20.6445 20.666C20.5799 20.7322 20.5028 20.7847 20.4176 20.8206C20.3325 20.8565 20.2411 20.8749 20.1487 20.8749H8.03222C7.93982 20.8749 7.84834 20.8565 7.76319 20.8206C7.67804 20.7847 7.60094 20.7322 7.53642 20.666C7.47189 20.5999 7.42121 20.5215 7.38746 20.4355C7.3537 20.3495 7.3375 20.2576 7.33981 20.1652V8.04878C7.33975 7.86353 7.41217 7.68559 7.54154 7.55299C7.67091 7.42038 7.84702 7.34362 8.03222 7.33911H20.1487C20.3339 7.34362 20.5099 7.42038 20.6393 7.55299C20.7687 7.68559 20.8411 7.86353 20.841 8.04878V20.1652ZM5.62621 18.4343C5.62621 18.595 5.56239 18.7491 5.44878 18.8627C5.33517 18.9763 5.18106 19.0401 5.02038 19.0401C4.5138 19.0401 4.02771 18.8401 3.66789 18.4835C3.30806 18.1269 3.10365 17.6427 3.09908 17.1361V5.01967C3.09908 4.51011 3.3015 4.02141 3.66181 3.66109C4.02213 3.30077 4.51082 3.09835 5.02038 3.09835H17.1368C17.3906 3.10059 17.6414 3.1531 17.8748 3.25283C18.1082 3.35257 18.3195 3.49755 18.4966 3.67941C18.6736 3.86128 18.8128 4.07641 18.9063 4.31239C18.9997 4.54837 19.0454 4.80053 19.0408 5.05429C19.0408 5.21497 18.977 5.36906 18.8634 5.48267C18.7498 5.59628 18.5957 5.66011 18.435 5.66011C18.2743 5.66011 18.1203 5.59628 18.0067 5.48267C17.8931 5.36906 17.8292 5.21497 17.8292 5.05429C17.8292 4.86607 17.7544 4.68556 17.6213 4.55247C17.4882 4.41938 17.3078 4.34461 17.1196 4.34461H5.00311C4.81489 4.34461 4.63438 4.41938 4.50128 4.55247C4.36819 4.68556 4.29342 4.86607 4.29342 5.05429V17.1707C4.29782 17.3576 4.374 17.5355 4.50614 17.6677C4.63829 17.7998 4.81627 17.876 5.00311 17.8804C5.15543 17.8751 5.30413 17.9273 5.41962 18.0268C5.53511 18.1262 5.60889 18.2656 5.62621 18.417V18.4343ZM2.57978 15.4052C2.57978 15.5659 2.51596 15.72 2.40234 15.8336C2.28873 15.9472 2.13467 16.011 1.974 16.011C1.71292 16.0182 1.45307 15.972 1.21043 15.8754C0.967791 15.7788 0.747443 15.6337 0.562764 15.449C0.378085 15.2643 0.232952 15.0439 0.13632 14.8013C0.0396879 14.5586 -0.00643502 14.2988 0.000721859 14.0378V1.92132C0.000721859 1.66901 0.0504347 1.41917 0.14699 1.18607C0.243546 0.95296 0.385039 0.741153 0.563451 0.562742C0.741862 0.384331 0.953663 0.242811 1.18677 0.146255C1.41987 0.0496996 1.66971 0 1.92202 0H14.0385C14.548 0 15.0368 0.202424 15.3971 0.562742C15.7574 0.92306 15.9598 1.41176 15.9598 1.92132C15.9598 2.082 15.896 2.23609 15.7824 2.3497C15.6688 2.46332 15.5147 2.52714 15.354 2.52714C15.2744 2.52714 15.1956 2.51147 15.1221 2.48103C15.0486 2.45058 14.9818 2.40596 14.9256 2.3497C14.8693 2.29345 14.8247 2.22666 14.7943 2.15316C14.7638 2.07966 14.7481 2.00088 14.7481 1.92132C14.7437 1.73449 14.6676 1.55652 14.5354 1.42437C14.4033 1.29222 14.2253 1.21604 14.0385 1.21165H1.92202C1.7338 1.21165 1.55334 1.28642 1.42025 1.41951C1.28716 1.5526 1.21239 1.7331 1.21239 1.92132V14.0378C1.21239 14.226 1.28716 14.4065 1.42025 14.5396C1.55334 14.6727 1.7338 14.7474 1.92202 14.7474C2.00883 14.7398 2.09628 14.751 2.17837 14.7802C2.26046 14.8095 2.33531 14.8561 2.39775 14.9169C2.46018 14.9777 2.50874 15.0512 2.54016 15.1325C2.57158 15.2138 2.58509 15.3009 2.57978 15.3879V15.4052ZM17.6388 13.6743L12.1172 10.4374C12.0232 10.3871 11.9178 10.3617 11.8112 10.3636C11.7046 10.3656 11.6002 10.3949 11.5082 10.4488C11.4161 10.5026 11.3394 10.5792 11.2854 10.6712C11.2314 10.7631 11.2019 10.8674 11.1998 10.974V17.2919C11.202 17.4004 11.2318 17.5066 11.2863 17.6004C11.3408 17.6943 11.4182 17.7728 11.5113 17.8285C11.6077 17.8542 11.7092 17.8542 11.8056 17.8285C11.908 17.8528 12.0147 17.8528 12.1172 17.8285L17.5869 14.6609C17.6798 14.6093 17.7575 14.5341 17.8122 14.443C17.8669 14.3518 17.8966 14.2479 17.8984 14.1416C17.9019 14.0378 17.8801 13.9348 17.8348 13.8413C17.7896 13.7478 17.7223 13.6667 17.6388 13.605V13.6743ZM12.446 16.3226V12.0126L16.1156 14.1416L12.446 16.3226Z" fill="#AA33FF"/>
</svg>
