<svg width="24" height="24" viewBox="0 0 24 24" fill="none" xmlns="../../../../../../www.w3.org/2000/svg.html">
<mask id="mask0" style="mask-type:alpha" maskUnits="userSpaceOnUse" x="0" y="0" width="24" height="24">
<path d="M22 0H2C0.895 0 0 0.895 0 2V22C0 23.105 0.895 24 2 24H13V15H10V11H13V8.413C13 5.313 14.893 3.625 17.659 3.625C18.984 3.625 20.122 3.724 20.454 3.768V7.008L18.536 7.009C17.032 7.009 16.741 7.724 16.741 8.772V11H21.181L20.181 15H16.741V24H22C23.105 24 24 23.105 24 22V2C24 0.895 23.105 0 22 0Z" fill="white"/>
</mask>
<g mask="url(#mask0)">
<path d="M22 0H2C0.895 0 0 0.895 0 2V22C0 23.105 0.895 24 2 24H13V15H10V11H13V8.413C13 5.313 14.893 3.625 17.659 3.625C18.984 3.625 20.122 3.724 20.454 3.768V7.008L18.536 7.009C17.032 7.009 16.741 7.724 16.741 8.772V11H21.181L20.181 15H16.741V24H22C23.105 24 24 23.105 24 22V2C24 0.895 23.105 0 22 0Z" fill="#6A6A6D"/>
</g>
</svg>
