<svg width="24" height="24" viewBox="0 0 24 24" fill="none" xmlns="../../../../../../www.w3.org/2000/svg.html">
<g clip-path="url(#clip0)">
<path fill-rule="evenodd" clip-rule="evenodd" d="M16.7568 5.67093C18.0532 4.44302 19.9724 4.44302 21.2689 5.67093C22.5317 6.86706 22.5345 8.58873 21.2771 9.78716L15.3993 15.0892C15.3708 15.1149 15.3438 15.1423 15.3184 15.1711C14.3474 16.2747 12.2049 16.3706 10.8694 15.1057C9.6038 13.9069 9.6038 12.1803 10.8694 10.9816C11.2704 10.6018 11.2876 9.96885 10.9078 9.56787C10.528 9.1669 9.89511 9.14971 9.49413 9.5295C7.39557 11.5171 7.39557 14.5701 9.49413 16.5577C11.5078 18.465 14.9362 18.5735 16.779 16.5381L22.6263 11.2636L22.6442 11.2471C24.7427 9.25946 24.7427 6.20649 22.6442 4.21886C20.5764 2.26038 17.4493 2.26038 15.3815 4.21886L14.8208 4.74992C14.4198 5.12971 14.4026 5.76264 14.7824 6.16362C15.1622 6.56459 15.7951 6.58178 16.1961 6.20199L16.7568 5.67093ZM8.57939 8.71809C9.87781 7.51241 11.8074 7.51241 13.1058 8.71809C13.7588 9.32444 14.0479 10.0413 14.0479 10.7187C14.0479 11.3961 13.7588 12.113 13.1058 12.7193C12.7011 13.0951 12.6777 13.7279 13.0535 14.1326C13.4293 14.5373 14.062 14.5607 14.4667 14.1849C15.4959 13.2293 16.0479 11.9937 16.0479 10.7187C16.0479 9.44368 15.4959 8.2081 14.4667 7.2525C12.401 5.33427 9.28427 5.33427 7.21849 7.2525L1.33113 12.7193C0.302023 13.6749 -0.25 14.9105 -0.25 16.1855C-0.25 17.4606 0.302023 18.6962 1.33113 19.6518C3.37192 21.5468 6.43836 21.5697 8.50397 19.7205L9.26634 19.2486C9.73593 18.9579 9.88095 18.3415 9.59025 17.872C9.29956 17.4024 8.68322 17.2573 8.21363 17.548L7.37258 18.0687C7.31754 18.1028 7.26593 18.1421 7.21849 18.1862C5.92006 19.3918 3.99045 19.3918 2.69203 18.1862C2.03903 17.5798 1.75 16.863 1.75 16.1855C1.75 15.5081 2.03903 14.7913 2.69203 14.1849L8.57939 8.71809Z" fill="#6A6A6D"/>
</g>
<defs>
<clipPath id="clip0">
<rect width="24" height="24" fill="white"/>
</clipPath>
</defs>
</svg>
