<?xml version="1.0" encoding="utf-8"?>
<!-- Generator: Adobe Illustrator 25.4.1, SVG Export Plug-In . SVG Version: 6.00 Build 0)  -->
<svg version="1.1" id="Layer_1" xmlns="http://www.w3.org/2000/svg" xmlns:xlink="http://www.w3.org/1999/xlink" x="0px" y="0px"
	 viewBox="0 0 48 48" style="enable-background:new 0 0 48 48;" xml:space="preserve">
<style type="text/css">
	.st0{fill:#FFFFFF;}
</style>
<path class="st0" d="M38.1,26.5h-6.6c-2.8,0-5,2.2-5,5v6.6c0,2.7,2.2,4.9,4.9,4.9h6.7c2.7,0,4.9-2.2,4.9-4.9v-6.7
	C43,28.7,40.8,26.5,38.1,26.5z M41,38.1c0,1.6-1.3,2.9-2.9,2.9h-6.7c-1.6,0-2.9-1.3-2.9-2.9v-6.6c0-1.7,1.3-3,3-3h6.6
	c1.6,0,2.9,1.3,2.9,2.9V38.1z M16.6,26.5H10c-2.8,0-5,2.2-5,5v6.6C5,40.8,7.2,43,9.9,43h6.7c2.7,0,4.9-2.2,4.9-4.9v-6.7
	C21.5,28.7,19.3,26.5,16.6,26.5z M19.5,38.1c0,1.6-1.3,2.9-2.9,2.9H9.9C8.3,41,7,39.7,7,38.1v-6.6c0-1.7,1.3-3,3-3h6.6
	c1.6,0,2.9,1.3,2.9,2.9V38.1z M38.1,5h-6.6c-2.8,0-5,2.2-5,5v6.6c0,2.7,2.2,4.9,4.9,4.9h6.7c2.7,0,4.9-2.2,4.9-4.9V9.9
	C43,7.2,40.8,5,38.1,5z M41,16.6c0,1.6-1.3,2.9-2.9,2.9h-6.7c-1.6,0-2.9-1.3-2.9-2.9V10c0-1.7,1.3-3,3-3h6.6C39.7,7,41,8.3,41,9.9
	V16.6z M16.6,5H10c-2.8,0-5,2.2-5,5v6.6c0,2.7,2.2,4.9,4.9,4.9h6.7c2.7,0,4.9-2.2,4.9-4.9V9.9C21.5,7.2,19.3,5,16.6,5z M19.5,16.6
	c0,1.6-1.3,2.9-2.9,2.9H9.9c-1.6,0-2.9-1.3-2.9-2.9V10c0-1.7,1.3-3,3-3h6.6c1.6,0,2.9,1.3,2.9,2.9V16.6z"/>
</svg>
