<svg width="80" height="80" viewBox="0 0 80 80" fill="none" xmlns="../../../../../www.w3.org/2000/svg.html">
<path d="M57.1589 12H20.8412C14.8537 12 10 16.8537 10 22.8411V59.1589C10 65.1463 14.8537 70 20.8412 70H57.1589C63.1462 70 68 65.1463 68 59.1589V22.8411C68 16.8537 63.1462 12 57.1589 12Z" fill="url(#paint0_linear_2715_1196)"/>
<path fill-rule="evenodd" clip-rule="evenodd" d="M57.4999 36C58.3284 36 59 36.7863 59 37.7561V43.2439C59 44.2137 58.3284 45 57.4999 45C56.6715 45 56 44.2137 56 43.2439V37.7561C56 36.7863 56.6715 36 57.4999 36Z" fill="white"/>
<path fill-rule="evenodd" clip-rule="evenodd" d="M25.4999 32C26.3284 32 27 32.6859 27 33.5319V48.4681C27 49.3141 26.3284 50 25.4999 50C24.6715 50 24 49.3141 24 48.4681V33.5319C24 32.6859 24.6715 32 25.4999 32Z" fill="white"/>
<path fill-rule="evenodd" clip-rule="evenodd" d="M52.4453 33.877C53.304 33.877 54 34.5666 54 35.4171V46.0054C54 46.8559 53.304 47.5454 52.4453 47.5454C51.5868 47.5454 50.8907 46.8559 50.8907 46.0054V35.4171C50.8907 34.5666 51.5868 33.877 52.4453 33.877ZM47.1984 30.0267C48.057 30.0267 48.753 30.7163 48.753 31.5669V49.5668C48.753 50.4174 48.057 51.107 47.1984 51.107C46.3398 51.107 45.6437 50.4174 45.6437 49.5668V31.5669C45.6437 30.7163 46.3398 30.0267 47.1984 30.0267ZM42.0486 23C42.9072 23 43.6033 23.6896 43.6033 24.5401V57.4599C43.6033 58.3104 42.9072 59 42.0486 59C41.19 59 40.494 58.3104 40.494 57.4599V24.5401C40.494 23.6896 41.19 23 42.0486 23ZM31.5547 33.877C32.4132 33.877 33.1094 34.5666 33.1094 35.4171V46.0054C33.1094 46.8559 32.4132 47.5454 31.5547 47.5454C30.696 47.5454 30 46.8559 30 46.0054V35.4171C30 34.5666 30.696 33.877 31.5547 33.877Z" fill="white"/>
<path fill-rule="evenodd" clip-rule="evenodd" d="M36.4999 36C37.3284 36 38 36.7863 38 37.7561V43.2439C38 44.2137 37.3284 45 36.4999 45C35.6715 45 35 44.2137 35 43.2439V37.7561C35 36.7863 35.6715 36 36.4999 36Z" fill="white"/>
<path fill-rule="evenodd" clip-rule="evenodd" d="M20.4999 36C21.3284 36 22 36.7863 22 37.7561V43.2439C22 44.2137 21.3284 45 20.4999 45C19.6716 45 19 44.2137 19 43.2439V37.7561C19 36.7863 19.6716 36 20.4999 36Z" fill="white"/>
<defs>
<linearGradient id="paint0_linear_2715_1196" x1="34.94" y1="3.68667" x2="34.753" y2="97.9164" gradientUnits="userSpaceOnUse">
<stop stop-color="#5056FA"/>
<stop offset="0.951687" stop-color="#5736B8"/>
</linearGradient>
</defs>
</svg>
