<svg width="80" height="80" viewBox="0 0 80 80" fill="none" xmlns="../../../../../www.w3.org/2000/svg.html">
<path d="M39.1428 26.0062L49.7584 34.9439V31.2905V19.8736C49.7584 13.2844 45.011 8 39.1428 8H36.5052C30.6369 8 25.8894 13.2844 25.8894 19.8736V23.9837L49.6926 44.0122V49.5575C49.6926 56.1468 44.9452 61.4312 39.0768 61.4312H36.4392C30.5709 61.4312 25.8235 56.0816 25.8235 49.5575V38.0754V32.8562L37.758 42.8379" stroke="#1F2841" stroke-width="4.49736" stroke-miterlimit="10"/>
<path d="M39.8681 24.8318C39.8681 25.7452 39.0768 26.5281 38.1537 26.5281C37.2306 26.5281 36.4395 25.7452 36.4395 24.8318C36.4395 23.9185 37.2306 23.1356 38.1537 23.1356C39.0768 23.1356 39.8681 23.9185 39.8681 24.8318Z" stroke="#1F2841" stroke-width="3.59003" stroke-miterlimit="10"/>
<path d="M39.8681 43.0988C39.8681 44.0775 39.0768 44.795 38.1537 44.795C37.2306 44.795 36.4395 44.0121 36.4395 43.0988C36.4395 42.1855 37.2306 41.4025 38.1537 41.4025C39.0768 41.4025 39.8681 42.1855 39.8681 43.0988Z" fill="#1F2841" stroke="#1F2841" stroke-width="3.59003" stroke-miterlimit="10"/>
<path d="M27.2085 71.6086C28.9888 70.4995 30.7691 69.9775 32.5494 69.521C34.3296 69.1294 36.11 68.9338 37.8903 68.9338C39.6705 68.9338 41.4508 69.1294 43.2312 69.521C45.0114 69.9123 46.7917 70.4995 48.5719 71.5432V71.8696L45.9346 71.9348H43.297L37.9561 72L32.6153 71.9348H29.9778L27.2744 71.8696C27.2085 71.8696 27.2085 71.6086 27.2085 71.6086Z" fill="#1F2841"/>
<path d="M38.0879 69.4557V67.9552" stroke="#1F2841" stroke-width="3.15586" stroke-miterlimit="10"/>
<path d="M53.7155 48.9705C53.7155 57.9083 47.7153 65.15 39.671 65.15H36.0445C28.0002 65.15 22 57.9083 22 48.9705" stroke="#1F2841" stroke-width="4.49736" stroke-miterlimit="10"/>
</svg>
