<?xml version="1.0" encoding="utf-8"?>
<!-- Generator: Adobe Illustrator 25.4.1, SVG Export Plug-In . SVG Version: 6.00 Build 0)  -->
<svg version="1.1" id="Layer_1" xmlns="http://www.w3.org/2000/svg" xmlns:xlink="http://www.w3.org/1999/xlink" x="0px" y="0px"
	 viewBox="0 0 48 48" style="enable-background:new 0 0 48 48;" xml:space="preserve">
<style type="text/css">
	.st0{fill:#1F1D29;}
</style>
<path class="st0" d="M7.6,33c-2,0-3.5,1.6-3.5,3.5c0,2,1.6,3.5,3.5,3.5c2,0,3.5-1.6,3.5-3.5C11.1,34.5,9.6,33,7.6,33z M7.6,38
	c-0.8,0-1.5-0.7-1.5-1.5S6.8,35,7.6,35c0.9,0,1.5,0.7,1.5,1.5S8.4,38,7.6,38z M14.9,33.7c0.7,1.8,0.7,3.8,0,5.7
	c0,0.4-0.3,0.6-0.8,0.6c-0.1,0-0.3,0-0.4-0.1c-0.5-0.2-0.8-0.8-0.6-1.3c1.2-3.1-0.4-6.6-3.5-7.7c-0.7-0.3-1.4-0.4-2.1-0.4
	S6,30.6,5.3,30.9c-0.5,0.2-1.1,0-1.3-0.5s0-1.1,0.5-1.3h0.1C8.7,27.5,13.4,29.6,14.9,33.7z M32.1,22.4c-1.6-1.1-5-3.3-6.7-4.4
	c-0.3-0.2-0.7-0.3-1.1-0.3c-1,0-1.8,0.9-1.8,1.9v8.7c0,0.7,0.4,1.4,1,1.7c0.3,0.1,0.6,0.2,0.9,0.2c0.4,0.1,0.8,0,1.1-0.2l6.7-4.4
	c0.5-0.4,0.8-1,0.8-1.6S32.7,22.7,32.1,22.4z M24.5,28.2v-8.3c1.7,1.1,4.8,3,6.3,4.2L24.5,28.2z M26.1,6.3C16.3,6.3,8.3,14.2,8.3,24
	c0,0.1,0,0.2,0,0.3c-1.2,0-2.5,0.3-3.6,0.7c-0.5,0.1-0.9,0.6-0.8,1.2C4,26.7,4.5,27.1,5.1,27c0.1,0,0.3-0.1,0.2-0.1
	c1.2-0.5,2.6-0.7,3.9-0.6c0,0,0.1,0,0.1,0c0,0,0,0,0,0c4.8,0.3,8.5,4.2,8.5,9c0,1.1-0.2,2.2-0.6,3.2c-0.1,0.4,0.1,1,0.5,1.2
	c2.6,1.4,5.5,2.1,8.4,2.1c9.8,0,17.8-8,17.7-17.7C43.8,14.3,35.9,6.3,26.1,6.3z M19.5,38.3c0.2-1,0.4-2,0.4-2.9
	c0-5.5-4.1-10.2-9.5-10.9v-0.4c0-2.3,0.5-4.6,1.5-6.7c3.6-7.9,13-11.2,20.9-7.6c7.9,3.6,11.3,13,7.6,20.9
	C36.8,38.6,27.4,42,19.5,38.3z"/>
</svg>
