<?xml version="1.0" encoding="utf-8"?>
<!-- Generator: Adobe Illustrator 25.4.1, SVG Export Plug-In . SVG Version: 6.00 Build 0)  -->
<svg version="1.1" id="Layer_1" xmlns="http://www.w3.org/2000/svg" xmlns:xlink="http://www.w3.org/1999/xlink" x="0px" y="0px"
	 viewBox="0 0 48 48" style="enable-background:new 0 0 48 48;" xml:space="preserve">
<style type="text/css">
	.st0{fill:#1F1D29;}
</style>
<path class="st0" d="M35,35.9c0-1-0.8-1.8-1.8-1.8h-2.6c-0.8,0-1.5,0.5-1.7,1.2l-2.4,7.5c-0.1,0.6,0,1.1,0.3,1.6
	c0.3,0.4,0.8,0.7,1.4,0.7h3c0.8,0,1.5-0.5,1.7-1.3l2-7.5C35,36.2,35,36,35,35.9z M31,43.1h-2.4l2.2-7h2L31,43.1z M41.2,34.1h-2.5
	c-0.8,0-1.5,0.5-1.7,1.2l-2.4,7.5c-0.1,0.6,0,1.1,0.3,1.6c0.3,0.4,0.8,0.7,1.4,0.7h3c0.8,0,1.4-0.5,1.6-1.3l2-7.5
	C43,36.2,43,36,43,35.9C43,34.9,42.2,34.1,41.2,34.1z M39.1,43.1h-2.5l2.2-7h2.1L39.1,43.1z M13,12.1c0,1,0.8,1.8,1.8,1.8h2.6
	c0.7,0,1.4-0.5,1.6-1.3l2.5-7.4c0.1-0.6,0-1.1-0.3-1.6c-0.3-0.4-0.8-0.7-1.4-0.7h-3c-0.8,0-1.5,0.5-1.7,1.3l-2,7.5
	C13,11.8,13,12,13,12.1z M17,4.9h2.4l-2.2,7h-2.1L17,4.9z M11,12.6l2.4-7.4c0.1-0.6,0-1.1-0.3-1.6c-0.3-0.4-0.8-0.7-1.4-0.7h-3
	C7.9,2.9,7.2,3.4,7,4.2l-1.9,7.5C5,11.8,5,12,5,12.1c0,1,0.8,1.8,1.8,1.8h2.5C10.1,13.9,10.8,13.4,11,12.6z M7.1,11.9l1.8-7h2.5
	l-2.2,7H7.1z M36,30.8H8c-0.6,0-1-0.4-1-1c0-0.6,0.4-1,1-1h28c0.6,0,1,0.4,1,1C37,30.4,36.6,30.8,36,30.8z M37.6,23c0.6,0,1,0.4,1,1
	s-0.4,1-1,1H8c-0.6,0-1-0.4-1-1s0.4-1,1-1H37.6z M8,17.2h32c0.6,0,1,0.4,1,1c0,0.6-0.4,1-1,1H8c-0.6,0-1-0.4-1-1
	C7,17.6,7.4,17.2,8,17.2z"/>
</svg>
