<svg xmlns="http://www.w3.org/2000/svg" viewBox="0 0 48 48"><defs><style>.cls-1,.cls-2,.cls-3{fill:none;}.cls-1,.cls-2{stroke:#000;stroke-width:2px;}.cls-1{stroke-linecap:round;stroke-linejoin:round;}.cls-2{stroke-miterlimit:10;}</style></defs><g id="Pages_Interactive_Streaming" data-name="Pages – Interactive Streaming"><path d="M2,30.35a2,2,0,0,0,2,1.94,1.94,1.94,0,0,0,0-3.88A2,2,0,0,0,2,30.35Z"/><path class="cls-1" d="M8.62,31.17a4.17,4.17,0,0,0,.29-1.54,4.25,4.25,0,0,0-4.23-4.25,4.2,4.2,0,0,0-1.56.29"/><path class="cls-1" d="M6,21.62l-.45,0A7.14,7.14,0,0,0,3,22.09"/><path class="cls-1" d="M27.33,33.87l6.32,5.25V32.54h0A11.64,11.64,0,0,0,45,20.71h0A11.63,11.63,0,0,0,33.65,8.88h-5.1"/><path class="cls-1" d="M17.82,8.88A11.83,11.83,0,0,0,6,20.71c0,.31,0,.61,0,.91a7,7,0,0,1,6.21,9.53A11.84,11.84,0,1,0,17.82,8.88Z"/><path class="cls-2" d="M21.67,21.22,17,24.31a.6.6,0,0,1-.94-.53V17.61a.62.62,0,0,1,.94-.53c1.2.78,3.58,2.33,4.72,3.09A.64.64,0,0,1,21.67,21.22Z"/><rect class="cls-3" width="48" height="48"/></g></svg>