<?xml version="1.0" encoding="utf-8"?>
<!-- Generator: Adobe Illustrator 25.4.1, SVG Export Plug-In . SVG Version: 6.00 Build 0)  -->
<svg version="1.1" id="Layer_1" xmlns="http://www.w3.org/2000/svg" xmlns:xlink="http://www.w3.org/1999/xlink" x="0px" y="0px"
	 viewBox="0 0 48 48" style="enable-background:new 0 0 48 48;" xml:space="preserve">
<style type="text/css">
	.st0{fill:#1F1D29;}
</style>
<path class="st0" d="M43.6,13h-4.3V8.7c0-1.1-1-2-2.1-2H33c-1.1,0.1-2,1-2,2.1V13h-4.3c-1.1,0-2,1-2,2.1v1.1H5.4c-1.7,0-3,1.3-3,3
	v19c0,1.7,1.3,3,3,3h27.7c1.7,0,3-1.3,3.1-3v-6.5c0-0.6-0.4-1-1-1c-0.6,0-1,0.4-1,1v6.5c0,0.6-0.4,1-1,1h-9.3c-0.5-3.9-3.9-7-7.9-7
	s-7.4,3.1-7.9,7H5.4c-0.6,0-1-0.4-1-1v-19c0-0.6,0.4-1,1-1h19.3v1.1c-0.1,1.2,0.9,2.1,2,2.1H31v4.3c0,1.2,0.9,2.1,2,2.1h4.2
	c1.2-0.1,2.1-1,2.1-2.1v-4.3h4.3c1.2,0,2.1-1,2.1-2.1v-4.2C45.7,13.9,44.7,13,43.6,13z M16,34.2c3,0,5.4,2.2,5.9,5H10.1
	C10.6,36.4,13,34.2,16,34.2z M43.6,19.6h-5.3c-0.6,0-1,0.4-1,1v5.3L33,25.8v-5.3c0-0.6-0.4-1-1-1l-5.3-0.1v-4.3H32c0.6,0,1-0.4,1-1
	V8.8h4.3v5.4c0,0.6,0.4,1,1,1h5.3c0.1,0,0.1,0.1,0.1,0.1L43.6,19.6z M11.2,26.2c0,2.7,2.2,4.8,4.8,4.8s4.8-2.1,4.8-4.8
	s-2.1-4.8-4.8-4.8S11.2,23.5,11.2,26.2z M18.8,26.2c0,1.6-1.3,2.8-2.8,2.8s-2.8-1.1-2.8-2.7c0-1.6,1.3-2.8,2.8-2.8
	S18.8,24.7,18.8,26.2z"/>
</svg>
