<?xml version="1.0" encoding="utf-8"?>
<!-- Generator: Adobe Illustrator 25.4.1, SVG Export Plug-In . SVG Version: 6.00 Build 0)  -->
<svg version="1.1" id="Layer_1" xmlns="http://www.w3.org/2000/svg" xmlns:xlink="http://www.w3.org/1999/xlink" x="0px" y="0px"
	 viewBox="0 0 48 48" style="enable-background:new 0 0 48 48;" xml:space="preserve">
<style type="text/css">
	.st0{fill:#1F1D29;}
</style>
<path class="st0" d="M24,25.7c-2,0-3.6,1.6-3.6,3.6s1.6,3.6,3.6,3.6s3.6-1.6,3.6-3.6S26,25.7,24,25.7z M24,31
	c-0.9,0-1.6-0.7-1.6-1.6c0-0.9,0.7-1.6,1.6-1.6s1.6,0.7,1.6,1.6C25.6,30.3,24.9,31,24,31z M29.1,9.9c-0.7-0.5-1.5-0.9-2.3-1.2
	s-1.7-0.4-2.6-0.4c-1.9,0-3.9,0.6-5.4,1.8c-1.5,1.3-2.4,3.1-2.5,5.1c-0.1,0.3,0,0.6,0.2,0.8c0.2,0.3,0.4,0.4,0.7,0.4l4.3,0.3
	c0.6,0.1,1.1-0.4,1.1-0.9c0-0.4,0.2-0.9,0.5-1.2c0.4-0.3,0.8-0.4,1.3-0.4c0.3,0,0.6,0.1,0.8,0.3c0.1,0.2,0.2,0.4,0.2,0.7
	c0,0.2,0,0.3-0.1,0.4c-0.2,0.3-0.4,0.6-0.6,0.8c-0.2,0.3-0.5,0.7-1,1c-0.5,0.3-1,0.8-1.5,1.3c-0.4,0.5-0.8,0.9-1,1.5
	c-0.2,0.6-0.3,1.2-0.3,1.8v1.2c0,0.6,0.4,1,1,1h4.2c0.5,0,1-0.4,0.8-1.3v-0.8c0-0.2,0-0.3,0.1-0.5c0.2-0.2,0.4-0.4,0.6-0.6
	c0.6-0.5,1.2-1,1.7-1.5s0.9-1,1.2-1.5s0.6-1,0.7-1.6c0.1-0.6,0.2-1.1,0.2-1.7c0-1-0.2-1.9-0.6-2.8C30.4,11.1,29.8,10.4,29.1,9.9z
	 M29.6,16.2c-0.2,0.4-0.3,0.7-0.5,1c-0.3,0.4-0.6,0.8-0.9,1.1c-0.5,0.5-1.1,1-1.6,1.4c-0.5,0.3-0.9,0.8-1.2,1.3
	c-0.2,0.4-0.3,0.8-0.3,1.2h-2v-0.3c-0.1-0.3,0-0.7,0.1-1c0.1-0.3,0.3-0.5,0.5-0.7c0.5-0.5,0.9-0.9,1.4-1.3c0.5-0.4,0.9-0.8,1.2-1.1
	c0.4-0.3,0.6-0.7,0.9-1.1c0.2-0.4,0.4-0.9,0.4-1.4c0-0.9-0.3-1.6-0.9-2.2c-0.6-0.5-1.3-0.8-2.1-0.8c-1-0.1-2,0.3-2.7,1
	c-0.3,0.4-0.6,0.9-0.8,1.4l-2.3-0.1c0.2-1.1,0.8-2.1,1.6-2.8c1.1-0.9,2.6-1.4,4.1-1.3c0.7,0,1.4,0.1,2.1,0.3
	c0.6,0.2,1.1,0.5,1.6,0.9c0.5,0.4,0.8,0.9,1.1,1.4c0.3,0.6,0.4,1.2,0.4,1.9C29.7,15.4,29.7,15.8,29.6,16.2z M30.4,3.5
	C21.2,0,10.9,4.6,7.3,13.8C3.7,23,8.3,33.4,17.5,37l4.4,7.5c0.4,0.7,1.2,1.2,2.1,1.2s1.7-0.5,2.1-1.2l4.3-7.5
	c4.8-1.9,8.5-5.6,10.3-10.3C44.2,17.4,39.6,7,30.4,3.5z M29.4,35.2c-0.2,0-0.4,0.2-0.5,0.4l-4.5,7.8c-0.1,0.1-0.1,0.2-0.2,0.2
	c-0.2,0.1-0.5,0-0.6-0.2l-4.5-7.8c-0.1-0.2-0.3-0.3-0.5-0.4c-6.3-2.3-10.5-8.3-10.5-15c0-8.8,7.1-15.9,15.9-15.9
	c6.7,0,12.7,4.2,15,10.5C42,23.1,37.7,32.2,29.4,35.2z"/>
</svg>
