<?xml version="1.0" encoding="utf-8"?>
<!-- Generator: Adobe Illustrator 25.4.1, SVG Export Plug-In . SVG Version: 6.00 Build 0)  -->
<svg version="1.1" id="Layer_1" xmlns="http://www.w3.org/2000/svg" xmlns:xlink="http://www.w3.org/1999/xlink" x="0px" y="0px"
	 viewBox="0 0 48 48" style="enable-background:new 0 0 48 48;" xml:space="preserve">
<style type="text/css">
	.st0{fill:#1F1D29;}
</style>
<path class="st0" d="M24,31c4.1,0,7.5-3.3,7.5-7.3V9.4c0-4.1-3.4-7.5-7.5-7.5s-7.5,3.4-7.5,7.5v14.2C16.5,27.7,19.9,31,24,31z
	 M18.5,9.4C18.5,6.4,21,4,24,4s5.5,2.4,5.5,5.4v14.3c0,3-2.5,5.5-5.5,5.5s-5.5-2.5-5.5-5.5V9.4z M37.5,23.3c0,5.9-3.8,11.2-9.5,12.9
	V43c0,1.7-1.3,3-3,3h-2c-1.7,0-3-1.3-3-3v-6.8c-5.7-1.7-9.5-7-9.5-12.9v-3.5c0-0.6,0.4-1,1-1s1,0.4,1,1v3.5c0,5.3,3.6,9.9,8.7,11.2
	c0.5,0.1,0.8,0.5,0.8,1V43c0,0.6,0.4,1,1,1h2c0.6,0,1-0.4,1-1v-7.6c0-0.5,0.3-0.9,0.8-1c5.1-1.3,8.7-5.9,8.7-11.1v-3.5
	c0-0.6,0.4-1,1-1s1,0.4,1,1V23.3z M12.7,41.8c-0.1,0.3-0.4,0.4-0.8,0.4c-0.2,0-0.4-0.1-0.6-0.2C1.4,35-1,21.3,6,11.4
	C7.5,9.3,9.3,7.5,11.4,6c0.5-0.3,1.1-0.2,1.4,0.2c0.3,0.5,0.2,1.1-0.2,1.4C3.5,14,1.3,26.5,7.6,35.5c1.3,1.9,3,3.5,4.9,4.9
	C13,40.7,13.1,41.3,12.7,41.8z M42,36.6c-1.5,2.1-3.3,3.9-5.4,5.4c-0.1,0.1-0.3,0.2-0.5,0.2c-0.6,0-1-0.4-1-1c0-0.3,0.2-0.6,0.4-0.8
	c9-6.3,11.2-18.8,4.9-27.9c-1.3-1.9-3-3.5-4.9-4.9c-0.4-0.3-0.6-0.9-0.2-1.4c0.3-0.4,0.9-0.6,1.4-0.2C46.6,13,49,26.7,42,36.6z"/>
</svg>
