<?xml version="1.0" encoding="utf-8"?>
<!-- Generator: Adobe Illustrator 25.4.1, SVG Export Plug-In . SVG Version: 6.00 Build 0)  -->
<svg version="1.1" id="Layer_1" xmlns="http://www.w3.org/2000/svg" xmlns:xlink="http://www.w3.org/1999/xlink" x="0px" y="0px"
	 viewBox="0 0 48 48" style="enable-background:new 0 0 48 48;" xml:space="preserve">
<style type="text/css">
	.st0{fill:#1F1D29;}
</style>
<path class="st0" d="M31.4,13.8c-0.4-0.4-1-0.4-1.4,0L5.3,38.5C5.1,38.7,5,38.9,5,39.2c0,0.2,0.1,0.5,0.3,0.7l2.8,2.8
	C8.3,42.9,8.5,43,8.8,43s0.5-0.1,0.7-0.3l19.6-19.6c0.1,0,0.1-0.1,0.2-0.2l4.9-4.9c0.4-0.4,0.4-1,0-1.4L31.4,13.8z M8.8,40.6
	l-1.4-1.4l18.4-18.4l1.4,1.4L8.8,40.6z M28.6,20.8l-1.4-1.4l3.5-3.5l1.4,1.4L28.6,20.8z M29.2,6c0-0.6,0.4-1,1-1c0.6,0,1,0.4,1,1
	s-0.4,1-1,1C29.6,7,29.2,6.6,29.2,6z M20.8,9.5c0-0.6,0.4-1,1-1c0.6,0,1,0.4,1,1s-0.4,1-1,1C21.2,10.5,20.8,10.1,20.8,9.5z
	 M17.4,17.8c0-0.6,0.4-1,1-1c0.6,0,1,0.4,1,1c0,0.6-0.5,1-1,1C17.8,18.8,17.4,18.4,17.4,17.8z M31.2,29.6c0,0.6-0.4,1-1,1
	c-0.6,0-1-0.4-1-1c0-0.6,0.4-1,1-1C30.8,28.6,31.2,29,31.2,29.6z M43,17.8c0,0.6-0.4,1-1,1s-1-0.4-1-1c0-0.6,0.4-1,1-1
	S43,17.2,43,17.8z M39.5,9.5c0,0.6-0.4,1-1,1s-1-0.4-1-1s0.4-1,1-1S39.5,8.9,39.5,9.5z M39.5,26.2c0,0.6-0.4,1-1,1s-1-0.4-1-1
	c0-0.6,0.4-1,1-1S39.5,25.6,39.5,26.2z"/>
</svg>
