<?xml version="1.0" encoding="utf-8"?>
<!-- Generator: Adobe Illustrator 25.4.1, SVG Export Plug-In . SVG Version: 6.00 Build 0)  -->
<svg version="1.1" id="Layer_1" xmlns="http://www.w3.org/2000/svg" xmlns:xlink="http://www.w3.org/1999/xlink" x="0px" y="0px"
	 viewBox="0 0 48 48" style="enable-background:new 0 0 48 48;" xml:space="preserve">
<style type="text/css">
	.st0{fill:#1F1D29;}
</style>
<path class="st0" d="M40.3,13.6c0-0.1,0-0.2-0.1-0.3c0,0,0-0.1,0-0.1c-0.1-0.1-0.1-0.2-0.2-0.3L29.5,2.4c-0.2-0.2-0.4-0.3-0.7-0.3
	h-15c-0.6,0-1,0.4-1,1v36.8c0,0.6,0.4,1,1,1h25.4c0.6,0,1.1-0.5,1.1-1L40.3,13.6C40.3,13.6,40.3,13.6,40.3,13.6z M36.8,12.6h-7.1v-7
	L36.8,12.6z M14.8,38.9V4.1h12.9v9.5c0,0.6,0.4,1,1,1h9.6v24.3H14.8z M35.3,44.9c0,0.6-0.5,1-1.1,1H8.8c-0.6,0-1-0.4-1-1V8.6
	c0-0.6,0.4-1,1-1c0.6,0,1,0.4,1,1v35.3h24.5C34.9,43.9,35.3,44.3,35.3,44.9z M35.3,23.5c0.4,0.4,0.4,1,0,1.4L31,29.3
	c-0.2,0.2-0.4,0.3-0.7,0.3s-0.5-0.1-0.7-0.3c-0.4-0.4-0.4-1,0-1.4l3.7-3.7l-3.7-3.7c-0.4-0.4-0.3-1.1,0.1-1.4c0.4-0.3,0.9-0.3,1.2,0
	L35.3,23.5z M23.4,20.6l-3.7,3.7l3.7,3.7c0.4,0.4,0.4,1,0,1.4c-0.2,0.1-0.5,0.2-0.7,0.2c-0.3,0-0.5-0.1-0.7-0.3L17.5,25
	c-0.4-0.4-0.4-1,0-1.4l4.5-4.4c0.4-0.4,1-0.4,1.4,0C23.8,19.6,23.8,20.2,23.4,20.6z M28.3,20l-1.6,8.7c0,0.6-0.4,0.9-0.9,0.9h-0.2
	c-0.5-0.1-0.9-0.6-0.8-1.2l1.5-8.8c0.1-0.6,0.6-0.9,1.2-0.8C28.1,18.9,28.4,19.4,28.3,20z"/>
</svg>
