<?xml version="1.0" encoding="utf-8"?>
<!-- Generator: Adobe Illustrator 25.4.1, SVG Export Plug-In . SVG Version: 6.00 Build 0)  -->
<svg version="1.1" id="Layer_1" xmlns="http://www.w3.org/2000/svg" xmlns:xlink="http://www.w3.org/1999/xlink" x="0px" y="0px"
	 viewBox="0 0 48 48" style="enable-background:new 0 0 48 48;" xml:space="preserve">
<style type="text/css">
	.st0{fill:#1F1D29;}
</style>
<path class="st0" d="M2,17.8c0-0.6,0.4-1,1-1h8.5c0.6,0,1,0.4,1,1c0,0.6-0.5,1-1,1H3C2.4,18.8,2,18.4,2,17.8z M46,17.7
	c0,0.6-0.4,1-1,1h-4.8c-0.5,6.7-6,11.9-12.8,11.9c-3.2,0-6.1-1.2-8.4-3.1l-2,2l0.4,0.4c0.8,0.8,0.8,2,0,2.8l-9.8,9.8
	c-0.4,0.4-0.9,0.6-1.4,0.6s-1-0.2-1.4-0.6l-2.2-2.2c-0.8-0.8-0.8-2,0-2.8l9.8-9.8c0.8-0.8,2-0.8,2.8,0l0.4,0.4l2-2
	c-1.9-2.3-3.1-5.2-3.1-8.4c0-7.1,5.8-12.8,12.9-12.8c6.7,0,12.3,5.2,12.8,11.8H45C45.6,16.7,46,17.1,46,17.7z M16,31.3l-1-1
	c-0.1-0.1-0.2-0.1-0.2-0.2l-1-1L4,38.9l2.2,2.2L16,31.3z M16.6,16.7h3.2c0.4,0,0.7,0.2,0.9,0.5l3.1,5.5L30,10.4
	c0.2-0.3,0.5-0.5,0.9-0.6c0.4,0,0.7,0.2,0.9,0.5l3.8,6.4h2.6c-0.6-5.6-5.2-9.8-10.8-9.8C21.8,6.9,17.1,11.2,16.6,16.7z M38.3,18.7
	h-3.2c-0.4,0-0.7-0.2-0.9-0.5L31,12.8l-6.2,12.4c-0.1,0.4-0.4,0.6-0.8,0.6s-0.7-0.2-0.9-0.5l-3.8-6.6h-2.8c0.5,5.6,5.2,10,10.9,10
	S37.8,24.3,38.3,18.7z"/>
</svg>
