<?xml version="1.0" encoding="utf-8"?>
<!-- Generator: Adobe Illustrator 25.4.1, SVG Export Plug-In . SVG Version: 6.00 Build 0)  -->
<svg version="1.1" id="Layer_1" xmlns="http://www.w3.org/2000/svg" xmlns:xlink="http://www.w3.org/1999/xlink" x="0px" y="0px"
	 viewBox="0 0 80 80" style="enable-background:new 0 0 80 80;" xml:space="preserve">
<style type="text/css">
	.st0{opacity:0.5;fill:url(#SVGID_1_);enable-background:new    ;}
	.st1{opacity:0.55;fill:url(#SVGID_00000117638527727219028330000012899889205021258378_);enable-background:new    ;}
	.st2{fill:#FFFFFF;}
</style>
<g id="Elevated">
	<g id="DolbyIO-Solutions-Icon-Secure-DRK">
		
			<linearGradient id="SVGID_1_" gradientUnits="userSpaceOnUse" x1="20.81" y1="64.01" x2="11.16" y2="52.43" gradientTransform="matrix(1 0 0 -1 0 82)">
			<stop  offset="0" style="stop-color:#00EB81"/>
			<stop  offset="1" style="stop-color:#3E44FE"/>
		</linearGradient>
		<circle class="st0" cx="16.4" cy="23.3" r="6"/>
		
			<linearGradient id="SVGID_00000098930811195296784350000006918485830985340567_" gradientUnits="userSpaceOnUse" x1="79.1828" y1="48.1551" x2="23.5528" y2="16.0551" gradientTransform="matrix(1 0 0 -1 0 82)">
			<stop  offset="0" style="stop-color:#35C8FF"/>
			<stop  offset="1" style="stop-color:#3E44FE"/>
		</linearGradient>
		
			<circle style="opacity:0.55;fill:url(#SVGID_00000098930811195296784350000006918485830985340567_);enable-background:new    ;" cx="53" cy="48.9" r="21.7"/>
		<path class="st2" d="M40,69.3h-0.2c-0.3-0.1-26.4-8.5-26.4-48.8c0-0.3,0.3-0.6,0.6-0.6c0.1,0,15.4-0.5,25.6-9.1
			c0.2-0.2,0.6-0.2,0.8,0c10.2,8.6,25.5,9.1,25.6,9.1c0.3,0,0.6,0.3,0.6,0.6s-0.3,0.6-0.6,0.6c-0.2,0-15.4-0.5-26-9
			c-9.4,7.6-22.5,8.8-25.4,9c0.2,37.2,23.1,46.2,25.4,47c2.2-0.8,23-9.7,25.2-41.6c0-0.3,0.3-0.6,0.6-0.5c0.3,0,0.6,0.3,0.6,0.6
			C65.1,44.5,58.1,55.2,52.4,61c-6.2,6.3-12,8.3-12.2,8.4C40.1,69.3,40.1,69.3,40,69.3z"/>
		<path class="st2" d="M47.9,35.3C47.9,35.3,47.9,35.3,47.9,35.3H47v-4.2c0-3.9-3.2-7-7-7c-3.9,0-7,3.2-7,7v4.2H32
			c-1,0-1.8,0.8-1.8,1.8c0,0,0,0,0,0v13.5c0,1,0.8,1.8,1.8,1.8c0,0,0,0,0,0h15.9c1,0,1.8-0.8,1.8-1.8c0,0,0,0,0,0V37.2
			C49.8,36.1,49,35.3,47.9,35.3z M40.6,44.1v3c0,0.3-0.3,0.6-0.6,0.6s-0.6-0.3-0.6-0.6v-3c-0.6-0.2-1-0.9-1-1.5
			c0-0.9,0.7-1.6,1.6-1.6c0.9,0,1.6,0.7,1.6,1.6C41.6,43.2,41.2,43.8,40.6,44.1z M45.8,35.3H34.2v-4.2c0-3.2,2.6-5.8,5.8-5.8
			c3.2,0,5.8,2.6,5.8,5.8V35.3z"/>
	</g>
</g>
</svg>
