<?xml version="1.0" encoding="utf-8"?>
<!-- Generator: Adobe Illustrator 25.4.1, SVG Export Plug-In . SVG Version: 6.00 Build 0)  -->
<svg version="1.1" id="Layer_1" xmlns="http://www.w3.org/2000/svg" xmlns:xlink="http://www.w3.org/1999/xlink" x="0px" y="0px"
	 viewBox="0 0 80 80" style="enable-background:new 0 0 80 80;" xml:space="preserve">
<style type="text/css">
	.st0{opacity:0.55;fill:url(#SVGID_1_);enable-background:new    ;}
	.st1{opacity:0.5;fill:url(#SVGID_00000134970492822003840370000000349394739231477430_);enable-background:new    ;}
	.st2{fill:#FFFFFF;}
</style>
<g id="Elevated">
	<g id="DolbyIO-Solution-Icon-Scalable-DRK">
		
			<linearGradient id="SVGID_1_" gradientUnits="userSpaceOnUse" x1="37.0695" y1="49.37" x2="69.6705" y2="49.37" gradientTransform="matrix(1 0 0 -1 0 82)">
			<stop  offset="0" style="stop-color:#00EB81"/>
			<stop  offset="1" style="stop-color:#35C8FF"/>
		</linearGradient>
		<path class="st0" d="M37.1,46.4V18.9c0-1.4,1.1-2.5,2.5-2.6h27.7c1.4,0,2.5,1.2,2.5,2.6c0,0,0,0,0,0v27.5c0,1.4-1.1,2.5-2.5,2.6
			H39.5C38.1,48.9,37,47.7,37.1,46.4z"/>
		
			<linearGradient id="SVGID_00000094587056116208411960000007981663439298495384_" gradientUnits="userSpaceOnUse" x1="21.9415" y1="33.1475" x2="12.1115" y2="27.1675" gradientTransform="matrix(1 0 0 -1 0 82)">
			<stop  offset="0" style="stop-color:#FF5898"/>
			<stop  offset="1" style="stop-color:#7D33FF"/>
		</linearGradient>
		
			<circle style="opacity:0.5;fill:url(#SVGID_00000094587056116208411960000007981663439298495384_);enable-background:new    ;" cx="17.3" cy="51.7" r="7.2"/>
		<path class="st2" d="M30,66.1H14.4c-0.3-0.1-0.6-0.3-0.5-0.7V50c0-0.3-0.3-0.6-0.6-0.6s-0.6,0.3-0.6,0.6v15.4c0,1,0.7,1.8,1.7,1.9
			H30c0.3,0,0.6-0.3,0.6-0.6C30.6,66.3,30.3,66.1,30,66.1C30,66.1,30,66.1,30,66.1z"/>
		<path class="st2" d="M44.5,33.1H23.7c-1.4,0-2.5,1.1-2.5,2.5v20.6c0,1.4,1.1,2.5,2.5,2.5h20.8c1.4,0,2.5-1.1,2.5-2.5V35.6
			C46.9,34.2,45.8,33.1,44.5,33.1z M45.7,56.2c0,0.7-0.5,1.3-1.2,1.3H23.7c-0.7,0-1.3-0.6-1.2-1.3V35.6c0-0.7,0.5-1.3,1.2-1.3h20.8
			c0.7,0,1.3,0.6,1.2,1.3V56.2z"/>
		<path class="st2" d="M63.9,12.7H36.8c-1.9,0-3.4,1.5-3.4,3.4v9.8c0,0.3,0.3,0.6,0.6,0.6s0.6-0.3,0.6-0.6v-9.8c0-1.2,1-2.2,2.2-2.2
			c0,0,0,0,0,0h27.1c1.2,0,2.2,1,2.2,2.2c0,0,0,0,0,0v27c0,1.2-1,2.2-2.2,2.2c0,0,0,0,0,0h-9.8c-0.3,0-0.6,0.3-0.6,0.6c0,0,0,0,0,0
			c0,0.3,0.3,0.6,0.6,0.6h9.8c1.9,0,3.4-1.5,3.4-3.4v-27C67.3,14.3,65.8,12.7,63.9,12.7z"/>
	</g>
</g>
</svg>
