<?xml version="1.0" encoding="utf-8"?>
<!-- Generator: Adobe Illustrator 25.4.1, SVG Export Plug-In . SVG Version: 6.00 Build 0)  -->
<svg version="1.1" id="Layer_1" xmlns="http://www.w3.org/2000/svg" xmlns:xlink="http://www.w3.org/1999/xlink" x="0px" y="0px"
	 viewBox="0 0 48 48" style="enable-background:new 0 0 48 48;" xml:space="preserve">
<style type="text/css">
	.st0{fill:#1F1D29;}
</style>
<path class="st0" d="M46,12.1c0.1-0.6-0.2-1.1-0.6-1.5c-0.4-0.2-0.9-0.3-1.4-0.1l-4,1.3v-1.7C40,8.9,39.1,8,37.9,8H23.6
	c-1.2,0-2.1,1-2.1,2.1V15H5c-1.7,0-3,1.3-3,3v19c0,1.7,1.3,3,3,3h27.8c1.6,0,3-1.3,3-3v-8.6c0-0.6-0.4-1-1-1c-0.6,0-1,0.4-1,1V37
	c0,0.6-0.4,1-1,1H5c-0.6,0-1-0.4-1-1V18c0-0.6,0.4-1,1-1h16.5v4.9c0,1.2,1,2.1,2.1,2.1h14.3c1.2,0,2.1-0.9,2.1-2v-1.7l4,1.3
	c0.5,0.2,1,0.2,1.4-0.1c0.4-0.4,0.7-0.9,0.6-1.5V12.1z M44,19.5l-4.7-1.6c-0.3-0.1-0.6-0.1-0.9,0.1c-0.2,0.2-0.4,0.5-0.4,0.8
	L37.9,22l-14.4-0.1L23.6,10L38,10.3v3.1c0,0.3,0.1,0.6,0.4,0.8c0.3,0.2,0.6,0.2,0.9,0.1l4.7-1.6V19.5z"/>
</svg>
