<?xml version="1.0" encoding="utf-8"?>
<!-- Generator: Adobe Illustrator 25.4.1, SVG Export Plug-In . SVG Version: 6.00 Build 0)  -->
<svg version="1.1" id="Layer_1" xmlns="http://www.w3.org/2000/svg" xmlns:xlink="http://www.w3.org/1999/xlink" x="0px" y="0px"
	 viewBox="0 0 48 48" style="enable-background:new 0 0 48 48;" xml:space="preserve">
<style type="text/css">
	.st0{fill:#1F1D29;}
</style>
<path class="st0" d="M42.6,38.8l-4.7,4.7c-0.2,0.2-0.4,0.3-0.7,0.3s-0.5-0.1-0.7-0.3c-0.4-0.4-0.4-1,0-1.4l3.1-3.1H15
	c-4.5,0-8-3.7-8-8.1c0-2.1,0.8-4.1,2.3-5.6c0.4-0.4,1-0.4,1.4,0c0.4,0.4,0.4,1,0,1.4c-2.4,2.4-2.3,6.2,0,8.6
	c1.1,1.1,2.6,1.7,4.2,1.8h24.8l-3.2-3.3c-0.4-0.4-0.5-1-0.1-1.4c0.4-0.4,1-0.5,1.4-0.1l0.1,0.1l4.8,4.9c0.3,0.3,0.4,0.8,0.1,1.2
	C42.8,38.7,42.7,38.8,42.6,38.8z M24,15c5,0,9,4,9,9s-4,9-9,9s-9-4-9-9S19,15,24,15z M24,17c-3.9,0-7,3.1-7,7s3.1,7,7,7s7-3.1,7-7
	S27.9,17,24,17z M10.1,15.6c0.2,0.2,0.4,0.3,0.7,0.3s0.5-0.1,0.7-0.3c0.4-0.4,0.4-1,0-1.4L8.4,11H33c1.6,0,3.1,0.6,4.2,1.7
	c2.4,2.4,2.4,6.2,0.1,8.6c-0.4,0.4-0.4,1,0,1.4c0.2,0.2,0.4,0.3,0.7,0.3s0.5-0.1,0.7-0.3c1.5-1.5,2.3-3.5,2.3-5.6
	c0-4.4-3.5-8.1-8-8.1H8.4l3.1-3.2c0.4-0.4,0.4-1,0-1.4c-0.4-0.4-1-0.4-1.4,0L5.4,9.2C5.2,9.4,5,9.6,5,10s0.2,0.6,0.4,0.8L10.1,15.6z
	"/>
</svg>
