<?xml version="1.0" encoding="utf-8"?>
<!-- Generator: Adobe Illustrator 25.4.1, SVG Export Plug-In . SVG Version: 6.00 Build 0)  -->
<svg version="1.1" id="Layer_1" xmlns="http://www.w3.org/2000/svg" xmlns:xlink="http://www.w3.org/1999/xlink" x="0px" y="0px"
	 viewBox="0 0 48 48" style="enable-background:new 0 0 48 48;" xml:space="preserve">
<style type="text/css">
	.st0{fill:#1F1D29;}
</style>
<path class="st0" d="M34.7,21.3v5.4c0,0.6-0.4,1-1,1c-0.6,0-1-0.4-1-1v-5.4c0-0.6,0.4-1,1-1C34.3,20.3,34.7,20.7,34.7,21.3z
	 M27.4,21.9c0.2,0.4,0.2,1.1-0.9,1.9l-2.7,2l1,3.1c0.4,1.2-0.1,1.8-0.4,2.1c-0.1,0.2-0.4,0.3-0.6,0.2c-0.5,0-0.9-0.2-1.3-0.5
	l-2.7-1.9l-2.8,2c-1,0.7-1.7,0.4-2,0.2s-0.8-0.8-0.4-2.1l1-3.1l-2.7-2c-1.1-0.8-1-1.5-0.9-1.9c0.1-0.4,0.5-1,1.9-1h3.3l1-3.2
	c0.4-1.2,1.1-1.4,1.5-1.4c0.4,0,1.1,0.2,1.5,1.4l1,3.2h3.3C26.8,20.9,27.2,21.5,27.4,21.9z M24.6,22.9h-2.9c-0.4,0-0.8-0.3-1-0.7
	l-0.9-2.8l-0.9,2.8c-0.1,0.4-0.5,0.7-1,0.7H15l2.3,1.7c0.3,0.3,0.5,0.7,0.4,1.1l-0.9,2.8l2.4-1.7c0.3-0.2,0.8-0.2,1.2,0l2.4,1.7
	l-0.9-2.8c-0.1-0.4,0-0.9,0.4-1.1L24.6,22.9z M41.4,23.8c0,1.6,1.2,2.8,2.8,2.8c1,0,1.7,0.8,1.8,1.8v6c-0.1,1.1-0.8,1.8-1.8,1.8H3.8
	c-1,0-1.7-0.8-1.8-1.8v-6c0-1,0.8-1.7,1.8-1.8c1.5,0,2.8-1.2,2.8-2.8c0-1.6-1.2-2.8-2.8-2.8c-1,0-1.7-0.8-1.8-1.8v-6
	c0-1,0.8-1.7,1.8-1.8h40.4c1,0,1.7,0.8,1.8,1.8v6c0,1-0.8,1.7-1.8,1.8C42.7,21,41.4,22.2,41.4,23.8z M39.6,23.7
	c0.2-2.4,2.1-4.3,4.4-4.4v-5.5h-9.3v2.1c0,0.5-0.4,1-1,1c-0.6,0-1-0.4-1-1v-2.1H4.1v5.5c2.6,0.2,4.6,2.4,4.4,5
	c-0.2,2.4-2.1,4.3-4.4,4.4v5.5h28.6v-2.1c0-0.6,0.4-1,1-1c0.6,0,1,0.4,1,1v2.1H44v-5.5C41.4,28.5,39.4,26.3,39.6,23.7z"/>
</svg>
