<svg id="Product_-_Call_Recording_API" data-name="Product - Call Recording API" xmlns="http://www.w3.org/2000/svg" viewBox="0 0 48 48"><defs><style>.cls-1{fill:none;}.cls-1,.cls-2{stroke:#fff;stroke-linecap:round;stroke-linejoin:round;stroke-width:1.3px;}.cls-2{fill:#fff;}</style></defs><path class="cls-1" d="M19.31,28.16a9,9,0,0,0-17.91,0Z"/><circle class="cls-1" cx="10.35" cy="11.24" r="4.8"/><path class="cls-1" d="M46.09,28.16a9,9,0,0,0-17.91,0Z"/><circle class="cls-1" cx="37.13" cy="11.24" r="4.8"/><path class="cls-2" d="M35,33.42a11.28,11.28,0,0,0-22.56,0Z"/><circle class="cls-2" cx="23.74" cy="12.11" r="6.04"/><path class="cls-1" d="M39.35,37.94l5-5a1.07,1.07,0,0,1,1.53,0l.38.37a1.1,1.1,0,0,1,0,1.54l-5,5"/><polyline class="cls-1" points="39.88 41.22 38.57 41.58 37.26 41.94 37.62 40.63 37.97 39.31"/></svg>