<?xml version="1.0" encoding="utf-8"?>
<!-- Generator: Adobe Illustrator 25.4.1, SVG Export Plug-In . SVG Version: 6.00 Build 0)  -->
<svg version="1.1" id="Layer_1" xmlns="http://www.w3.org/2000/svg" xmlns:xlink="http://www.w3.org/1999/xlink" x="0px" y="0px"
	 viewBox="0 0 48 48" style="enable-background:new 0 0 48 48;" xml:space="preserve">
<style type="text/css">
	.st0{fill:#FFFFFF;}
</style>
<path class="st0" d="M45.4,10.6c-0.4-0.3-0.9-0.3-1.4-0.2l-4,1.3v-1.7c0,0,0,0,0,0C40,8.9,39.1,8,37.9,8H23.6
	c-1.1,0-2.1,0.9-2.1,2.1V15H5c-1.7,0-3,1.3-3,3v19c0,1.7,1.3,3,3,3h27.8c1.7,0,3-1.3,3-3v-8.6c0-0.6-0.4-1-1-1s-1,0.4-1,1V37
	c0,0.6-0.4,1-1,1H5c-0.6,0-1-0.4-1-1V18c0-0.6,0.4-1,1-1h16.5v4.9c0,0,0,0,0,0c0,1.1,0.9,2.1,2.1,2.1h14.3c0,0,0,0,0,0
	c1.2,0,2.1-0.9,2.1-2.1v-1.7l4,1.3c0.5,0.2,1,0.1,1.4-0.2c0.4-0.4,0.7-0.9,0.6-1.5v-7.9C46,11.5,45.8,10.9,45.4,10.6z M44,19.4
	l-4.7-1.6c-0.3-0.1-0.6-0.1-0.9,0.1c-0.3,0.2-0.4,0.5-0.4,0.8L37.9,22l-14.4-0.1L23.6,10L38,10.1v3.1c0,0.3,0.2,0.6,0.4,0.8
	c0.3,0.2,0.6,0.2,0.9,0.1l4.7-1.5V19.4z"/>
</svg>
