<svg id="Layer_1" data-name="Layer 1" xmlns="http://www.w3.org/2000/svg" xmlns:xlink="http://www.w3.org/1999/xlink" viewBox="0 0 80 80"><defs><style>.cls-1,.cls-2{opacity:0.5;}.cls-1{fill:url(#linear-gradient);}.cls-2{fill:url(#linear-gradient-2);}.cls-3{fill:none;}.cls-3,.cls-4{stroke:#fff;stroke-linecap:round;stroke-linejoin:round;stroke-width:1.3px;}.cls-4{fill:#fff;}</style><linearGradient id="linear-gradient" x1="71.39" y1="8.82" x2="53.12" y2="30.73" gradientUnits="userSpaceOnUse"><stop offset="0" stop-color="#ff5898"/><stop offset="1" stop-color="#7d33ff"/></linearGradient><linearGradient id="linear-gradient-2" x1="45.71" y1="18.78" x2="2.04" y2="56.17" gradientUnits="userSpaceOnUse"><stop offset="0" stop-color="#00eb81"/><stop offset="1" stop-color="#3e44fe"/></linearGradient></defs><circle class="cls-1" cx="62.97" cy="18.92" r="11.4"/><circle class="cls-2" cx="27.85" cy="34.07" r="22.21"/><path class="cls-3" d="M17.15,43.08a27.14,27.14,0,1,1,51.11,0"/><path class="cls-3" d="M54.37,39.12a27.22,27.22,0,0,1,7.41-24.38"/><path class="cls-3" d="M31,39.12a27.25,27.25,0,0,0,.5-5.22,27.06,27.06,0,0,0-7.91-19.16"/><line class="cls-3" x1="42.7" y1="6.78" x2="42.7" y2="49.29"/><line class="cls-3" x1="15.56" y1="33.91" x2="69.84" y2="33.91"/><rect class="cls-4" x="22.84" y="41.63" width="6.89" height="25.41" rx="0.92" transform="translate(52.57 108.68) rotate(180)"/><path class="cls-4" d="M16.94,46.53h4.92a1,1,0,0,1,1,1V61.17a1,1,0,0,1-1,1H16.94a0,0,0,0,1,0,0V46.53A0,0,0,0,1,16.94,46.53Z" transform="translate(39.78 108.68) rotate(180)"/><rect class="cls-4" x="55.67" y="41.63" width="6.89" height="25.41" rx="0.92"/><path class="cls-4" d="M62.56,46.53h4.92a1,1,0,0,1,1,1V61.17a1,1,0,0,1-1,1H62.56a0,0,0,0,1,0,0V46.53a0,0,0,0,1,0,0Z"/><rect class="cls-4" x="29.73" y="52.33" width="25.94" height="4.02"/><path class="cls-3" d="M42.7,61.77h0C38.2,57.27,32.47,63,37,67.49l5.73,5.73h0l5.73-5.73C52.93,63,47.2,57.27,42.7,61.77Z"/></svg>