<svg xmlns="http://www.w3.org/2000/svg" viewBox="0 0 48 48"><defs><style>.cls-1,.cls-2,.cls-3{fill:none;}.cls-1,.cls-2{stroke:#fff;stroke-linejoin:round;stroke-width:2px;}.cls-2{stroke-linecap:round;}</style></defs><g id="Nav_-_Advanced_Network_Resiliency" data-name="Nav - Advanced Network Resiliency"><circle class="cls-1" cx="24" cy="24" r="6.87"/><circle class="cls-1" cx="24" cy="42" r="3"/><line class="cls-2" x1="24" y1="39" x2="24" y2="30.87"/><circle class="cls-1" cx="36.73" cy="36.73" r="3"/><line class="cls-2" x1="34.61" y1="34.61" x2="28.86" y2="28.86"/><circle class="cls-1" cx="42" cy="24" r="3"/><line class="cls-2" x1="39" y1="24" x2="30.87" y2="24"/><circle class="cls-1" cx="36.73" cy="11.27" r="3"/><line class="cls-2" x1="34.61" y1="13.39" x2="28.86" y2="19.14"/><circle class="cls-1" cx="24" cy="6" r="3"/><line class="cls-2" x1="24" y1="9" x2="24" y2="17.13"/><circle class="cls-1" cx="11.27" cy="11.27" r="3"/><line class="cls-2" x1="13.39" y1="13.39" x2="19.14" y2="19.14"/><circle class="cls-1" cx="6" cy="24" r="3"/><line class="cls-2" x1="9" y1="24" x2="17.13" y2="24"/><circle class="cls-1" cx="11.27" cy="36.73" r="3"/><line class="cls-2" x1="13.39" y1="34.61" x2="19.14" y2="28.86"/><rect class="cls-3" width="48" height="48"/></g></svg>