<svg id="Layer_1" data-name="Layer 1" xmlns="http://www.w3.org/2000/svg" xmlns:xlink="http://www.w3.org/1999/xlink" viewBox="0 0 80 80"><defs><style>.cls-1{opacity:0.55;fill:url(#linear-gradient);}.cls-2{opacity:0.5;fill:url(#linear-gradient-2);}.cls-3{fill:#fff;}.cls-3,.cls-4{stroke:#fff;stroke-linecap:round;stroke-linejoin:round;stroke-width:1.3px;}.cls-4{fill:none;}</style><linearGradient id="linear-gradient" x1="36.1" y1="6.64" x2="-3.38" y2="40.45" gradientUnits="userSpaceOnUse"><stop offset="0" stop-color="#00eb81"/><stop offset="1" stop-color="#35c8ff"/></linearGradient><linearGradient id="linear-gradient-2" x1="73.7" y1="28.09" x2="26.66" y2="68.37" gradientUnits="userSpaceOnUse"><stop offset="0" stop-color="#3e44fe"/><stop offset="0.32" stop-color="#7052ff"/><stop offset="0.55" stop-color="#975cff"/><stop offset="1" stop-color="#b85cff"/></linearGradient></defs><path class="cls-1" d="M27,1.8h3.46a0,0,0,0,1,0,0V31.7a0,0,0,0,1,0,0H3.14a0,0,0,0,1,0,0V25.63A23.83,23.83,0,0,1,27,1.8Z"/><circle class="cls-2" cx="54.46" cy="44.56" r="23.93"/><path class="cls-3" d="M44.46,67.38a11.56,11.56,0,0,0-23.11,0Z"/><circle class="cls-3" cx="32.9" cy="47.2" r="6.19"/><path class="cls-4" d="M62.15,67.38a11.56,11.56,0,0,0-23.11,0Z"/><circle class="cls-4" cx="50.59" cy="47.2" r="6.19"/><path class="cls-4" d="M12.2,47.35V15.85a4.39,4.39,0,0,1,4.44-4.34H66.86a4.39,4.39,0,0,1,4.44,4.34V47.1"/><line class="cls-4" x1="21.36" y1="12.01" x2="21.36" y2="47.35"/><line class="cls-4" x1="21.36" y1="22.17" x2="12.2" y2="22.17"/><line class="cls-4" x1="21.36" y1="31.7" x2="12.2" y2="31.7"/><line class="cls-4" x1="21.36" y1="41.22" x2="12.2" y2="41.22"/><line class="cls-4" x1="62.13" y1="12.01" x2="62.13" y2="47.35"/><line class="cls-4" x1="62.13" y1="22.17" x2="71.3" y2="22.17"/><line class="cls-4" x1="62.13" y1="31.7" x2="71.3" y2="31.7"/><line class="cls-4" x1="62.13" y1="41.22" x2="71.3" y2="41.22"/><polygon class="cls-3" points="48.86 27.8 42.69 31.36 36.52 34.93 36.52 27.8 36.52 20.67 42.69 24.23 48.86 27.8"/></svg>