<svg id="Layer_1" data-name="Layer 1" xmlns="http://www.w3.org/2000/svg" viewBox="0 0 60 60"><defs><style>.cls-1{fill:none;stroke:#fff;stroke-linecap:round;stroke-linejoin:round;stroke-width:1.3px;}.cls-2{fill:#fff;}</style></defs><circle class="cls-1" cx="44.36" cy="46.25" r="8.55"/><path class="cls-2" d="M44.36,37.7a8.56,8.56,0,1,0,8.55,8.55A8.55,8.55,0,0,0,44.36,37.7Zm3.7,9.48h0l-4.83,3.16a1.13,1.13,0,0,1-.63.19,1.07,1.07,0,0,1-.51-.13,1.11,1.11,0,0,1-.57-1V43.09a1.12,1.12,0,0,1,.59-1,1.1,1.1,0,0,1,1.12,0l4.83,3.16a1.12,1.12,0,0,1,0,1.87Z"/><polyline class="cls-1" points="23.2 19.63 25.68 22.14 23.2 24.66"/><path class="cls-1" d="M25.68,22.15H11.74a3.65,3.65,0,0,1-2.57-6.21"/><circle class="cls-1" cx="16.39" cy="14.92" r="4.13"/><path class="cls-1" d="M7.09,7.7H21a3.65,3.65,0,0,1,2.57,6.21"/><polyline class="cls-1" points="9.57 10.21 7.09 7.7 9.57 5.19"/><line class="cls-1" x1="20.82" y1="29.48" x2="36.67" y2="29.48"/><line class="cls-1" x1="20.82" y1="33.76" x2="36.67" y2="33.76"/><line class="cls-1" x1="20.82" y1="38.03" x2="29.05" y2="38.03"/><path class="cls-1" d="M30.65,47.48H19A3.45,3.45,0,0,1,15.53,44V23.8"/><path class="cls-1" d="M26.63,12H40.91a3.45,3.45,0,0,1,3.45,3.44V32.55"/></svg>