<svg id="Layer_1" data-name="Layer 1" xmlns="http://www.w3.org/2000/svg" xmlns:xlink="http://www.w3.org/1999/xlink" viewBox="0 0 80 80"><defs><style>.cls-1{opacity:0.55;fill:url(#linear-gradient);}.cls-2{opacity:0.5;fill:url(#linear-gradient-2);}.cls-3{fill:#fff;}.cls-3,.cls-4{stroke:#fff;stroke-linecap:round;stroke-linejoin:round;stroke-width:1.3px;}.cls-4{fill:none;}</style><linearGradient id="linear-gradient" x1="45.94" y1="25.06" x2="0.84" y2="63.68" gradientUnits="userSpaceOnUse"><stop offset="0" stop-color="#00eb81"/><stop offset="1" stop-color="#35c8ff"/></linearGradient><linearGradient id="linear-gradient-2" x1="73.92" y1="34.21" x2="58.6" y2="47.32" gradientUnits="userSpaceOnUse"><stop offset="0" stop-color="#975cff"/><stop offset="1" stop-color="#3e44fe"/></linearGradient></defs><circle class="cls-1" cx="27.5" cy="40.85" r="22.94"/><circle class="cls-2" cx="67.65" cy="39.57" r="7.79"/><path class="cls-3" d="M48.09,62.89a8.94,8.94,0,0,0-17.88,0Z"/><circle class="cls-3" cx="39.15" cy="47.28" r="4.79"/><circle class="cls-4" cx="39.15" cy="26.58" r="10.37"/><polygon class="cls-3" points="43 26.57 40.02 28.3 37.04 30.02 37.04 26.57 37.04 23.13 40.02 24.85 43 26.57"/><circle class="cls-4" cx="60.81" cy="44.43" r="10.37"/><circle class="cls-4" cx="17.49" cy="44.43" r="10.37"/><line class="cls-4" x1="14.55" y1="42.83" x2="14.55" y2="46.56"/><line class="cls-4" x1="20.43" y1="42.83" x2="20.43" y2="46.56"/><line class="cls-4" x1="17.49" y1="41.1" x2="17.49" y2="48.3"/><line class="cls-4" x1="11.61" y1="43.95" x2="11.61" y2="45.45"/><line class="cls-4" x1="23.37" y1="43.95" x2="23.37" y2="45.45"/><line class="cls-4" x1="57.19" y1="42.05" x2="65.51" y2="42.05"/><line class="cls-4" x1="57.19" y1="44.9" x2="65.51" y2="44.9"/><line class="cls-4" x1="57.19" y1="47.76" x2="62.53" y2="47.76"/><line class="cls-4" x1="23.26" y1="62.93" x2="55.04" y2="62.93"/></svg>