<svg id="Layer_1" data-name="Layer 1" xmlns="http://www.w3.org/2000/svg" xmlns:xlink="http://www.w3.org/1999/xlink" viewBox="0 0 60 60"><defs><style>.cls-1,.cls-4,.cls-5{fill:#fff;}.cls-1{opacity:0.2;}.cls-2{opacity:0.5;fill:url(#linear-gradient);}.cls-3{opacity:0.6;fill:url(#linear-gradient-2);}.cls-5,.cls-6{stroke:#fff;stroke-linecap:round;stroke-linejoin:round;stroke-width:1.3px;}.cls-6{fill:none;}</style><linearGradient id="linear-gradient" x1="55.41" y1="28.54" x2="-6.65" y2="44.22" gradientUnits="userSpaceOnUse"><stop offset="0" stop-color="#ff5898"/><stop offset="1" stop-color="#7d33ff"/></linearGradient><linearGradient id="linear-gradient-2" x1="37.98" y1="12.22" x2="29.93" y2="19.12" gradientUnits="userSpaceOnUse"><stop offset="0" stop-color="#35c8ff"/><stop offset="1" stop-color="#3e44fe"/></linearGradient></defs><rect class="cls-1" x="0.46" y="27.39" width="56.84" height="15.7" rx="7.85"/><circle class="cls-1" cx="34.69" cy="15.04" r="4.1"/><rect class="cls-2" x="0.46" y="27.39" width="56.84" height="15.7" rx="7.85"/><circle class="cls-3" cx="34.69" cy="15.04" r="4.1"/><path class="cls-4" d="M13.48,46.18l-.62.57-.26-.32.93-.77h.4V49h-.45Z"/><path class="cls-4" d="M15,47.33c0-.12,0-.25,0-.38s0-.26.07-.39a2.2,2.2,0,0,1,.13-.36,1.16,1.16,0,0,1,.22-.31.93.93,0,0,1,.3-.2.91.91,0,0,1,.41-.08,1,1,0,0,1,.72.28,1.16,1.16,0,0,1,.22.31,2.2,2.2,0,0,1,.13.36c0,.13.05.26.07.39s0,.26,0,.38a3.88,3.88,0,0,1-.05.57,1.75,1.75,0,0,1-.18.56,1.13,1.13,0,0,1-.35.43,1,1,0,0,1-.58.17.94.94,0,0,1-.57-.17,1.13,1.13,0,0,1-.35-.43A1.75,1.75,0,0,1,15,47.9,3.88,3.88,0,0,1,15,47.33Zm.46,0a2.82,2.82,0,0,0,0,.39,1.56,1.56,0,0,0,.09.44,1.07,1.07,0,0,0,.21.36.51.51,0,0,0,.37.14.52.52,0,0,0,.38-.14,1.07,1.07,0,0,0,.21-.36,1.56,1.56,0,0,0,.09-.44,2.82,2.82,0,0,0,0-.39v-.25c0-.1,0-.2,0-.3a1.28,1.28,0,0,0-.07-.28.66.66,0,0,0-.13-.25.47.47,0,0,0-.19-.18.54.54,0,0,0-.27-.07.53.53,0,0,0-.26.07.47.47,0,0,0-.19.18.66.66,0,0,0-.13.25,1.28,1.28,0,0,0-.07.28c0,.1,0,.2,0,.3Z"/><path class="cls-4" d="M19.18,45.66h.6l1.84,2.75h0V45.66h.45V49H21.5l-1.85-2.74h0V49h-.46Z"/><path class="cls-4" d="M23.15,48a.6.6,0,0,0,.06.27.55.55,0,0,0,.17.2.7.7,0,0,0,.24.13.92.92,0,0,0,.28,0,.65.65,0,0,0,.35-.09,1.46,1.46,0,0,0,.27-.24l.32.24a1.18,1.18,0,0,1-1,.46,1.21,1.21,0,0,1-.48-.09.93.93,0,0,1-.36-.25,1,1,0,0,1-.23-.37,1.19,1.19,0,0,1-.08-.47,1.39,1.39,0,0,1,.08-.46,1.18,1.18,0,0,1,.24-.37,1.15,1.15,0,0,1,.83-.34,1.2,1.2,0,0,1,.5.1.93.93,0,0,1,.34.28,1,1,0,0,1,.19.37,1.54,1.54,0,0,1,.06.43V48Zm1.34-.34a1.09,1.09,0,0,0,0-.26.37.37,0,0,0-.12-.2.48.48,0,0,0-.2-.14.78.78,0,0,0-.28-.05.64.64,0,0,0-.28.06.71.71,0,0,0-.22.15.7.7,0,0,0-.14.21.68.68,0,0,0-.05.23Z"/><path class="cls-4" d="M25.18,46.77h.48l.5,1.67h0l.53-1.67h.46l.56,1.67h0l.48-1.67h.45L27.94,49h-.43l-.59-1.67h0L26.37,49h-.45Z"/><path class="cls-4" d="M30.45,45.66h2.09v.43H30.9v1h1.53v.42H30.9V49h-.45Z"/><path class="cls-4" d="M32.93,47.88a1.14,1.14,0,0,1,.1-.45,1.05,1.05,0,0,1,.25-.37,1.12,1.12,0,0,1,.38-.26,1.18,1.18,0,0,1,.46-.09,1.15,1.15,0,0,1,.85.35,1.21,1.21,0,0,1,.25.37,1.13,1.13,0,0,1,.09.45,1.14,1.14,0,0,1-.09.46,1.25,1.25,0,0,1-.25.38,1.67,1.67,0,0,1-.38.25,1.23,1.23,0,0,1-.47.09,1.18,1.18,0,0,1-.46-.09,1.47,1.47,0,0,1-.38-.25,1.09,1.09,0,0,1-.25-.38A1.15,1.15,0,0,1,32.93,47.88Zm.46,0a.83.83,0,0,0,0,.32.63.63,0,0,0,.14.24.78.78,0,0,0,.24.16.73.73,0,0,0,.3.06.75.75,0,0,0,.31-.06.63.63,0,0,0,.23-.16.82.82,0,0,0,.15-.24,1.07,1.07,0,0,0,0-.32,1.06,1.06,0,0,0,0-.31.7.7,0,0,0-.15-.24.63.63,0,0,0-.23-.16.75.75,0,0,0-.31-.06.73.73,0,0,0-.3.06.78.78,0,0,0-.24.16.57.57,0,0,0-.14.24A.81.81,0,0,0,33.39,47.88Z"/><path class="cls-4" d="M35.88,45.44h.42V49h-.42Z"/><path class="cls-4" d="M37,45.44h.42V49H37Z"/><path class="cls-4" d="M38,47.88a1.13,1.13,0,0,1,.09-.45,1.21,1.21,0,0,1,.25-.37,1.12,1.12,0,0,1,.38-.26,1.19,1.19,0,0,1,.47-.09,1.18,1.18,0,0,1,.46.09,1.12,1.12,0,0,1,.38.26,1.05,1.05,0,0,1,.25.37,1.13,1.13,0,0,1,.09.45,1.14,1.14,0,0,1-.09.46,1.09,1.09,0,0,1-.25.38,1.47,1.47,0,0,1-.38.25,1.18,1.18,0,0,1-.46.09,1.19,1.19,0,0,1-.47-.09,1.47,1.47,0,0,1-.38-.25,1.25,1.25,0,0,1-.25-.38A1.14,1.14,0,0,1,38,47.88Zm.45,0a1.07,1.07,0,0,0,0,.32.82.82,0,0,0,.15.24.63.63,0,0,0,.23.16.75.75,0,0,0,.31.06.73.73,0,0,0,.3-.06.63.63,0,0,0,.23-.16.65.65,0,0,0,.15-.24,1.07,1.07,0,0,0,.05-.32,1.06,1.06,0,0,0-.05-.31.58.58,0,0,0-.15-.24.63.63,0,0,0-.23-.16.73.73,0,0,0-.3-.06.75.75,0,0,0-.31.06.63.63,0,0,0-.23.16.7.7,0,0,0-.15.24A1.06,1.06,0,0,0,38.45,47.88Z"/><path class="cls-4" d="M40.64,46.77h.47l.5,1.67h0l.54-1.67h.45l.57,1.67h0l.47-1.67h.46L43.39,49H43l-.6-1.67h0L41.82,49h-.45Z"/><path class="cls-4" d="M44.8,48a.5.5,0,0,0,.07.27.64.64,0,0,0,.16.2.7.7,0,0,0,.24.13,1,1,0,0,0,.29,0,.64.64,0,0,0,.34-.09,1,1,0,0,0,.27-.24l.32.24a1.17,1.17,0,0,1-1,.46A1.24,1.24,0,0,1,45,49a1.08,1.08,0,0,1-.59-.62,1.4,1.4,0,0,1-.08-.47,1.2,1.2,0,0,1,.33-.83A1,1,0,0,1,45,46.8a1.23,1.23,0,0,1,.47-.09,1.27,1.27,0,0,1,.5.1.9.9,0,0,1,.33.28,1,1,0,0,1,.2.37,1.54,1.54,0,0,1,.05.43V48Zm1.34-.34a1.09,1.09,0,0,0,0-.26.57.57,0,0,0-.32-.34.82.82,0,0,0-.28-.05.68.68,0,0,0-.29.06.71.71,0,0,0-.22.15,1,1,0,0,0-.14.21.68.68,0,0,0-.05.23Z"/><path class="cls-4" d="M47.1,46.77h.43v.34h0a.57.57,0,0,1,.11-.16l.16-.13.19-.08a.76.76,0,0,1,.21,0,.58.58,0,0,1,.19,0l0,.46-.11,0h-.1a.62.62,0,0,0-.48.18.74.74,0,0,0-.16.54V49H47.1Z"/><path class="cls-4" d="M50,47.33a.58.58,0,0,0-.19-.16.54.54,0,0,0-.27-.06.53.53,0,0,0-.26.06.19.19,0,0,0-.11.19.23.23,0,0,0,.06.16.56.56,0,0,0,.15.1l.19.05.17,0a1.84,1.84,0,0,1,.25.09.72.72,0,0,1,.21.12.62.62,0,0,1,.14.18.68.68,0,0,1,0,.27.66.66,0,0,1-.08.32.88.88,0,0,1-.21.22.93.93,0,0,1-.29.12,1.24,1.24,0,0,1-.33,0A1.26,1.26,0,0,1,49,49a.82.82,0,0,1-.37-.31L49,48.4a1.3,1.3,0,0,0,.23.18.53.53,0,0,0,.31.08h.16a.34.34,0,0,0,.15-.06.22.22,0,0,0,.1-.09.16.16,0,0,0,0-.12.28.28,0,0,0,0-.16.38.38,0,0,0-.15-.09.49.49,0,0,0-.17-.06l-.16,0L49.18,48,49,47.85a.65.65,0,0,1-.15-.18.54.54,0,0,1-.06-.27.62.62,0,0,1,.08-.31.76.76,0,0,1,.19-.21.84.84,0,0,1,.27-.13,1.15,1.15,0,0,1,.31,0,1.12,1.12,0,0,1,.44.09.73.73,0,0,1,.33.28Z"/><path class="cls-5" d="M33.1,22.37a3.89,3.89,0,0,0-7.77,0Z"/><circle class="cls-5" cx="29.21" cy="14.66" r="2.08"/><line class="cls-5" x1="33.4" y1="15.04" x2="35.98" y2="15.04"/><line class="cls-5" x1="34.69" y1="13.75" x2="34.69" y2="16.33"/><rect class="cls-6" x="2.24" y="25.56" width="56.84" height="15.7" rx="7.85"/><path class="cls-5" d="M24.16,37.82a3.31,3.31,0,0,0-6.62,0Z"/><circle class="cls-5" cx="20.85" cy="30.78" r="1.78"/><path class="cls-5" d="M34,37.82a3.32,3.32,0,0,0-6.63,0Z"/><circle class="cls-5" cx="30.66" cy="30.78" r="1.78"/><path class="cls-5" d="M43.77,37.82a3.31,3.31,0,0,0-6.62,0Z"/><circle class="cls-5" cx="40.46" cy="30.78" r="1.78"/></svg>