<svg id="Layer_1" data-name="Layer 1" xmlns="http://www.w3.org/2000/svg" xmlns:xlink="http://www.w3.org/1999/xlink" viewBox="0 0 60 60"><defs><style>.cls-1,.cls-3,.cls-6,.cls-7{fill:#fff;}.cls-1{opacity:0.2;}.cls-2{opacity:0.5;fill:url(#linear-gradient);}.cls-3{opacity:0.22;}.cls-4{opacity:0.55;fill:url(#linear-gradient-2);}.cls-5{fill:none;}.cls-5,.cls-6{stroke:#fff;stroke-linecap:round;stroke-linejoin:round;stroke-width:1.3px;}</style><linearGradient id="linear-gradient" x1="46.32" y1="25.03" x2="5.1" y2="39.97" gradientUnits="userSpaceOnUse"><stop offset="0" stop-color="#ff5898"/><stop offset="1" stop-color="#7d33ff"/></linearGradient><linearGradient id="linear-gradient-2" x1="58.18" y1="21.91" x2="48.9" y2="29.85" gradientUnits="userSpaceOnUse"><stop offset="0" stop-color="#35c8ff"/><stop offset="1" stop-color="#3e44fe"/></linearGradient></defs><path class="cls-1" d="M29,25.32H5a.58.58,0,0,0-.32,1.09l1,.55a3.91,3.91,0,0,1,2.07,3.25l.13,3.3c0,4.52,3.94,8.19,8.81,8.19h21.8c6.37,0,9-3.53,9.1-8,0-1.15,0-8.34-7.45-8.34Z"/><path class="cls-2" d="M29,25.32H5a.58.58,0,0,0-.32,1.09l1,.55a3.91,3.91,0,0,1,2.07,3.25l.13,3.3c0,4.52,3.94,8.19,8.81,8.19h21.8c6.37,0,9-3.53,9.1-8,0-1.15,0-8.34-7.45-8.34Z"/><circle class="cls-3" cx="54.39" cy="25.16" r="4.72"/><circle class="cls-4" cx="54.39" cy="25.16" r="4.72"/><path class="cls-5" d="M36.59,22.41H12.67a.58.58,0,0,0-.33,1.09l1,.56a3.88,3.88,0,0,1,2.07,3.24l.13,3.3c0,4.52,3.94,8.19,8.81,8.19H46.16c4.85,0,9-3.53,9.1-8a7.66,7.66,0,0,0-.65-3.24"/><path class="cls-6" d="M11.14,34.84a5.13,5.13,0,0,0-10.25,0Z"/><circle class="cls-6" cx="6.02" cy="25.16" r="2.75"/><line class="cls-5" x1="22.32" y1="32.37" x2="39.83" y2="32.37"/><line class="cls-5" x1="22.32" y1="28.83" x2="35.64" y2="28.83"/><rect class="cls-5" x="38.54" y="18.3" width="18.46" height="7.27" rx="3.64"/><path class="cls-7" d="M53.37,18.3H42.18a3.64,3.64,0,0,0,0,7.28H53.37a3.64,3.64,0,0,0,0-7.28Zm-9.8,5.2a.52.52,0,0,1-.52.52H42.4a.52.52,0,0,1-.52-.52V21.25a.51.51,0,0,1,.52-.51h.65a.51.51,0,0,1,.52.51Zm3.58,0a.68.68,0,0,1-.68.54H44.72a.66.66,0,0,1-.66-.65V21.28a1.39,1.39,0,0,1,.14-.6l.44-1a.69.69,0,0,1,.55-.41.68.68,0,0,1,.63.27.69.69,0,0,1,.1.69l-.17.4a.08.08,0,0,0,0,.07.09.09,0,0,0,.06,0h1.26a.69.69,0,0,1,.53.25.67.67,0,0,1,.15.56Zm6.13-1.12-1.57,1.57a.27.27,0,0,1-.2.09.29.29,0,0,1-.21-.09l-1.57-1.57a1.54,1.54,0,0,1-.48-1.51,1.31,1.31,0,0,1,.94-1,1.51,1.51,0,0,1,1.32.3,1.49,1.49,0,0,1,1.31-.3,1.32,1.32,0,0,1,1,1A1.55,1.55,0,0,1,53.28,22.36Z"/></svg>