<svg id="Pages_Background_Hum_Removal" data-name="Pages – Background Hum Removal" xmlns="http://www.w3.org/2000/svg" viewBox="0 0 48 48"><defs><style>.cls-1,.cls-2{fill:none;}.cls-1{stroke:#fff;stroke-linecap:round;stroke-linejoin:round;stroke-width:2px;}</style></defs><path class="cls-1" d="M26.7,33.94c1.13,3,2.49,5,4.3,5s3-1.82,4.3-5"/><path class="cls-1" d="M3,28.2s.49-2.44,1.75-2.48c1.75,0,1.88,5,3.49,5,1.35,0,2.24-4.91,3.51-4.94,1.74-.06,1.88,5,3.49,5,1.34,0,2.24-5,3.5-5,1.75,0,1.88,5,3.49,5,1.35,0,2.24-4.91,3.51-4.94,1.74-.06,1.88,5,3.49,5,1.34,0,2.24-5,3.5-5,1.75,0,1.88,5,3.49,5,1.35,0,2.24-4.91,3.51-4.94,1.74-.06,1.88,5,3.49,5,.67,0,1.23-1.24,1.78-2.49"/><path class="cls-1" d="M11.72,22c1.61-6.3,3.12-13,6.06-13,2.7,0,4.23,6.3,5.75,13.13"/><rect class="cls-2" width="48" height="48"/></svg>