<?xml version="1.0" encoding="utf-8"?>
<!-- Generator: Adobe Illustrator 25.4.1, SVG Export Plug-In . SVG Version: 6.00 Build 0)  -->
<svg version="1.1" id="Layer_1" xmlns="http://www.w3.org/2000/svg" xmlns:xlink="http://www.w3.org/1999/xlink" x="0px" y="0px"
	 viewBox="0 0 48 48" style="enable-background:new 0 0 48 48;" xml:space="preserve">
<style type="text/css">
	.st0{fill:#FFFFFF;}
</style>
<path class="st0" d="M7.6,33c-1.9,0-3.5,1.6-3.5,3.5c0,1.9,1.6,3.5,3.5,3.5c1.9,0,3.5-1.6,3.5-3.5c0,0,0,0,0,0
	C11.1,34.5,9.5,33,7.6,33z M7.6,38c-0.8,0-1.5-0.7-1.5-1.5S6.8,35,7.6,35s1.5,0.7,1.5,1.5S8.5,38,7.6,38z M15.1,33.7
	c0.3,0.9,0.5,1.8,0.5,2.8c0,1-0.2,2-0.5,2.9c-0.2,0.4-0.5,0.6-0.9,0.6c-0.1,0-0.3,0-0.4-0.1c-0.5-0.2-0.8-0.8-0.6-1.3c0,0,0,0,0,0
	c1.2-3.1-0.4-6.6-3.5-7.7c-0.7-0.3-1.4-0.4-2.1-0.4c-0.7,0-1.5,0.1-2.2,0.4c-0.5,0.2-1.1,0-1.3-0.5c-0.2-0.5,0-1.1,0.5-1.3
	c0,0,0.1,0,0.1,0C8.9,27.5,13.5,29.5,15.1,33.7z M32.1,22.4c-1.6-1.1-5-3.3-6.7-4.4c-0.3-0.2-0.7-0.3-1.1-0.3c-1,0-1.9,0.9-1.8,1.9
	v8.7c0,0.7,0.4,1.4,1,1.7c0.3,0.1,0.6,0.2,0.9,0.2c0.4,0,0.8-0.1,1.1-0.3l6.7-4.4c0.5-0.4,0.8-0.9,0.8-1.6
	C33,23.3,32.7,22.7,32.1,22.4z M24.5,28.1v-8.3c1.7,1.1,4.7,3.1,6.3,4.1L24.5,28.1z M26.1,6.2C16.3,6.2,8.4,14.2,8.4,24
	c0,0.1,0,0.2,0,0.3c-1.2,0-2.5,0.3-3.6,0.7c-0.6,0.1-0.9,0.6-0.8,1.2s0.6,0.9,1.2,0.8c0.1,0,0.3-0.1,0.4-0.1
	c1.2-0.5,2.6-0.7,3.9-0.6c0,0,0,0,0,0c4.8,0.3,8.5,4.2,8.5,9c0,1.1-0.2,2.2-0.6,3.2c-0.2,0.5,0,1,0.5,1.2c2.6,1.4,5.5,2.1,8.4,2.1
	c9.8,0,17.7-7.9,17.8-17.7C43.9,14.2,36,6.3,26.1,6.2z M19.5,38.3c0.3-1,0.4-2,0.4-3c0-5.5-4.1-10.1-9.5-10.9V24
	c0-2.3,0.5-4.6,1.5-6.7C15.6,9.4,24.9,6,32.8,9.7s11.3,13.1,7.6,20.9S27.3,41.9,19.5,38.3z"/>
</svg>
