<svg id="Layer_1" data-name="Layer 1" xmlns="http://www.w3.org/2000/svg" xmlns:xlink="http://www.w3.org/1999/xlink" viewBox="0 0 80 80"><defs><style>.cls-1{opacity:0.55;fill:url(#linear-gradient);}.cls-2{opacity:0.5;fill:url(#linear-gradient-2);}.cls-3,.cls-5{fill:#fff;}.cls-3,.cls-4{stroke:#fff;stroke-linecap:round;stroke-linejoin:round;stroke-width:1.3px;}.cls-4{fill:none;}</style><linearGradient id="linear-gradient" x1="61.54" y1="44.17" x2="18.87" y2="84.23" gradientUnits="userSpaceOnUse"><stop offset="0" stop-color="#00eb81"/><stop offset="1" stop-color="#35c8ff"/></linearGradient><linearGradient id="linear-gradient-2" x1="50.28" y1="10.61" x2="40.16" y2="19.28" gradientUnits="userSpaceOnUse"><stop offset="0" stop-color="#ff5898"/><stop offset="1" stop-color="#7d33ff"/></linearGradient></defs><path class="cls-1" d="M68.1,57.79c2.81,0,5.08,1.89,5.08,4.22v4.76c0,2.32-2.28,4.22-5.08,4.22H11.17a4.18,4.18,0,0,1-4.35-4V62c0-2.33,2.27-4.22,5.08-4.22Z"/><circle class="cls-2" cx="46.14" cy="14.16" r="5.15"/><path class="cls-3" d="M42.12,60.46a10.16,10.16,0,0,0-20.32,0Z"/><circle class="cls-3" cx="31.96" cy="42.71" r="5.44"/><path class="cls-4" d="M60.18,60.46a10.16,10.16,0,0,0-20.32,0Z"/><circle class="cls-4" cx="50.02" cy="42.71" r="5.44"/><rect class="cls-4" x="9.68" y="60.44" width="62.62" height="10.55" rx="1.96"/><path class="cls-4" d="M56.05,19.29h9.76a3.91,3.91,0,0,1,3.9,3.9V60.46"/><path class="cls-4" d="M12.28,60.46V23.19a3.9,3.9,0,0,1,3.9-3.9H25.9"/><line class="cls-4" x1="14.29" y1="65.72" x2="67.69" y2="65.72"/><circle class="cls-5" cx="24.35" cy="65.72" r="2.14"/><polygon class="cls-4" points="40.99 25.44 29.43 19.31 40.99 13.18 52.55 19.31 40.99 25.44"/><polyline class="cls-4" points="48.43 21.5 49.62 27.23 40.99 30.38 32.36 27.23 33.55 21.5"/><polyline class="cls-4" points="40.99 19.31 46.74 22.39 47.2 30.38"/></svg>