<?xml version="1.0" encoding="utf-8"?>
<!-- Generator: Adobe Illustrator 25.4.1, SVG Export Plug-In . SVG Version: 6.00 Build 0)  -->
<svg version="1.1" id="Layer_1" xmlns="http://www.w3.org/2000/svg" xmlns:xlink="http://www.w3.org/1999/xlink" x="0px" y="0px"
	 viewBox="0 0 48 48" style="enable-background:new 0 0 48 48;" xml:space="preserve">
<style type="text/css">
	.st0{fill:#FFFFFF;}
</style>
<path class="st0" d="M18.5,27.7c0.6,0,1,0.4,1,1c0,0.6-0.4,1-1,1h-5.8c-0.6,0-1-0.4-1-1c0-0.6,0.4-1,1-1H18.5z M21,23.3
	c0-0.6-0.4-1-1-1h-7.2c-0.6,0-1,0.4-1,1c0,0.6,0.4,1,1,1H20C20.6,24.3,21,23.9,21,23.3z M23.3,18c0-0.6-0.4-1-1-1h-9.5
	c-0.6,0-1,0.4-1,1s0.4,1,1,1h9.5C22.8,19,23.3,18.6,23.3,18z M21.2,28.8c0-0.1,0-0.2,0-0.3l2.1-7.4c0-0.2,0.1-0.3,0.2-0.4l8.3-8.3
	H14.5c-5.9,0.1-10.7,5.1-10.6,11c-0.1,6,4.6,10.9,10.6,11.1h8c0.2,0,0.5,0.1,0.6,0.2l6.5,5.4v-4.6c0-0.6,0.4-1,1-1
	c6-0.1,10.7-5.1,10.6-11.1c0-0.9-0.1-1.8-0.3-2.7c-0.2-0.5,0.1-1.1,0.7-1.3c0.5-0.2,1.1,0.1,1.3,0.7c0,0,0,0.1,0,0.1
	c0.3,1,0.4,2.1,0.4,3.2c0.1,6.7-4.9,12.3-11.6,13v5.8c0,0.4-0.3,0.7-0.6,0.9c-0.1,0.1-0.2,0.1-0.4,0.1c-0.2,0-0.5-0.1-0.6-0.2
	l-7.8-6.5h-7.7c-7.1-0.1-12.7-6-12.6-13.1c-0.1-7,5.5-12.9,12.6-13h19.4l4.6-4.6c0.5-0.5,1.3-0.9,2.1-0.9c0.8,0,1.5,0.3,2.1,0.8
	l2.6,2.6c0.5,0.6,0.8,1.3,0.8,2.1c0,0.8-0.3,1.5-0.9,2.1L30.3,27.4c-0.1,0.1-0.3,0.2-0.4,0.2l-7.4,2.1c-0.1,0-0.2,0-0.3,0
	C21.7,29.7,21.2,29.3,21.2,28.8z M39.9,7.2l-1.4,1.4l3.9,3.9l1.4-1.4c0.2-0.2,0.3-0.4,0.3-0.7c0-0.2-0.1-0.4-0.2-0.6l-2.7-2.6
	C41,7,40.8,6.9,40.6,6.9C40.3,6.9,40.1,7,39.9,7.2z M23.7,27.3l5.4-1.5L41,13.8l-3.9-3.9l-2,2.1c0,0-0.1,0.1-0.1,0.1l-9.8,9.8
	L23.7,27.3z"/>
</svg>
