<svg id="Layer_1" data-name="Layer 1" xmlns="http://www.w3.org/2000/svg" xmlns:xlink="http://www.w3.org/1999/xlink" viewBox="0 0 80 80"><defs><style>.cls-1{opacity:0.55;fill:url(#linear-gradient);}.cls-2{opacity:0.5;fill:url(#linear-gradient-2);}.cls-3{fill:none;stroke:#fff;stroke-linecap:round;stroke-linejoin:round;stroke-width:1.3px;}.cls-4{fill:#fff;}</style><linearGradient id="linear-gradient" x1="75.98" y1="20.97" x2="60.73" y2="39.26" gradientUnits="userSpaceOnUse"><stop offset="0" stop-color="#00eb81"/><stop offset="1" stop-color="#35c8ff"/></linearGradient><linearGradient id="linear-gradient-2" x1="37.54" y1="19.95" x2="-1.69" y2="53.54" gradientUnits="userSpaceOnUse"><stop offset="0" stop-color="#ff5898"/><stop offset="1" stop-color="#7d33ff"/></linearGradient></defs><circle class="cls-1" cx="68.95" cy="29.4" r="9.51"/><circle class="cls-2" cx="21.5" cy="33.68" r="19.96"/><rect class="cls-3" x="13.71" y="56.27" width="59.4" height="10.01" rx="1.96"/><path class="cls-4" d="M70.79,56.27H16a2.33,2.33,0,0,0-2.33,2.33V64A2.33,2.33,0,0,0,16,66.28H70.79A2.33,2.33,0,0,0,73.11,64V58.6A2.32,2.32,0,0,0,70.79,56.27ZM68.17,62H35.87a2.37,2.37,0,0,1-4.49,0H18.65a.77.77,0,0,1,0-1.54H31.38a2.37,2.37,0,0,1,4.49,0h32.3a.77.77,0,1,1,0,1.54Z"/><path class="cls-4" d="M45.12,27a10.1,10.1,0,1,0,8.24,8.24A10.11,10.11,0,0,0,45.12,27Zm-.68,11.67-2.57,1.49a.28.28,0,0,1-.42-.24V34a.28.28,0,0,1,.42-.24l2.57,1.48L47,36.68a.27.27,0,0,1,0,.48Z"/><path class="cls-4" d="M59.1,44.69a.23.23,0,0,1-.18-.08l-.1-.1a.25.25,0,0,1,0-.33,11.72,11.72,0,0,0,0-14.52.25.25,0,0,1,0-.33l.1-.1a.23.23,0,0,1,.18-.08h0a.25.25,0,0,1,.18.1,12.33,12.33,0,0,1,0,15.35.24.24,0,0,1-.18.09Z"/><path class="cls-4" d="M59.1,29.4a12.1,12.1,0,0,1,0,15l-.1-.1a11.95,11.95,0,0,0,0-14.83l.1-.11m0-.5a.48.48,0,0,0-.36.16l-.1.1a.51.51,0,0,0,0,.66,11.44,11.44,0,0,1,0,14.2.51.51,0,0,0,0,.66l.1.11a.48.48,0,0,0,.36.15h0a.49.49,0,0,0,.37-.18,12.61,12.61,0,0,0,0-15.67.54.54,0,0,0-.37-.19Z"/><path class="cls-4" d="M61.89,47.66a.25.25,0,0,1-.18-.08l-.1-.11a.26.26,0,0,1,0-.33,16,16,0,0,0,0-20.44.26.26,0,0,1,0-.33l.1-.1a.25.25,0,0,1,.18-.08h0a.21.21,0,0,1,.18.09,16.67,16.67,0,0,1,0,21.29.28.28,0,0,1-.18.09Z"/><path class="cls-4" d="M61.89,26.44a16.45,16.45,0,0,1,0,21l-.09-.1a16.31,16.31,0,0,0,0-20.76l.09-.1m0-.5a.5.5,0,0,0-.36.16l-.1.1a.5.5,0,0,0,0,.66,15.79,15.79,0,0,1,0,20.12.52.52,0,0,0,0,.67l.1.1a.49.49,0,0,0,.36.15h0a.5.5,0,0,0,.37-.17,17,17,0,0,0,0-21.61.51.51,0,0,0-.37-.18Z"/><path class="cls-4" d="M56.3,41.72a.23.23,0,0,1-.18-.08l-.1-.1a.24.24,0,0,1,0-.32,7.33,7.33,0,0,0,0-8.59.26.26,0,0,1,0-.33l.1-.1a.23.23,0,0,1,.18-.08h0a.32.32,0,0,1,.19.1,8,8,0,0,1,0,9.4.24.24,0,0,1-.19.1Z"/><path class="cls-4" d="M56.3,32.37a7.73,7.73,0,0,1,0,9.1l-.1-.1a7.58,7.58,0,0,0,0-8.89l.1-.11m0-.5a.52.52,0,0,0-.37.16l-.09.1a.49.49,0,0,0,0,.64,7.1,7.1,0,0,1,0,8.3.49.49,0,0,0,0,.64l.09.1a.52.52,0,0,0,.37.16h0a.51.51,0,0,0,.37-.2,8.22,8.22,0,0,0,0-9.69.52.52,0,0,0-.37-.21Z"/><path class="cls-4" d="M27.72,44.69a.28.28,0,0,1-.19-.09,12.37,12.37,0,0,1,0-15.35.3.3,0,0,1,.19-.1h0a.25.25,0,0,1,.18.08l.1.1a.26.26,0,0,1,0,.33,11.68,11.68,0,0,0,0,14.52.26.26,0,0,1,0,.33l-.1.1a.25.25,0,0,1-.18.08Z"/><path class="cls-4" d="M27.73,29.4l.1.11a11.91,11.91,0,0,0,0,14.83l-.1.1a12.1,12.1,0,0,1,0-15m0-.5h0a.52.52,0,0,0-.37.19,12.61,12.61,0,0,0,0,15.67.47.47,0,0,0,.37.18h0a.48.48,0,0,0,.36-.15l.1-.11a.5.5,0,0,0,0-.66,11.44,11.44,0,0,1,0-14.2.5.5,0,0,0,0-.66l-.1-.1a.48.48,0,0,0-.36-.16Z"/><path class="cls-4" d="M24.93,47.66a.34.34,0,0,1-.19-.09,16.71,16.71,0,0,1,0-21.29.25.25,0,0,1,.19-.09h0a.23.23,0,0,1,.18.08l.1.1a.25.25,0,0,1,0,.33,16.07,16.07,0,0,0,0,20.44.25.25,0,0,1,0,.33l-.09.11a.27.27,0,0,1-.19.08Z"/><path class="cls-4" d="M24.93,26.44l.1.1A16.31,16.31,0,0,0,25,47.3l-.1.1a16.45,16.45,0,0,1,0-21m0-.5h0a.49.49,0,0,0-.37.18,17,17,0,0,0,0,21.61.48.48,0,0,0,.37.17h0a.51.51,0,0,0,.37-.15l.09-.1a.49.49,0,0,0,0-.67,15.82,15.82,0,0,1,0-20.12.48.48,0,0,0,0-.66l-.09-.1a.52.52,0,0,0-.37-.16Z"/><path class="cls-4" d="M30.51,41.72a.22.22,0,0,1-.18-.1,8,8,0,0,1,0-9.4.29.29,0,0,1,.18-.1h0a.25.25,0,0,1,.18.08l.1.1a.27.27,0,0,1,0,.33,7.33,7.33,0,0,0,0,8.59.26.26,0,0,1,0,.32l-.1.1a.25.25,0,0,1-.18.08Z"/><path class="cls-4" d="M30.53,32.37l.1.11a7.58,7.58,0,0,0,0,8.89l-.1.1a7.73,7.73,0,0,1,0-9.1m0-.5h0a.51.51,0,0,0-.37.21,8.22,8.22,0,0,0,0,9.69.49.49,0,0,0,.37.2h0a.48.48,0,0,0,.36-.16l.1-.1a.5.5,0,0,0,0-.64,7.1,7.1,0,0,1,0-8.3.5.5,0,0,0,0-.64l-.1-.1a.48.48,0,0,0-.36-.16Z"/><path class="cls-3" d="M19.29,17.21H67.54a3.12,3.12,0,0,1,3.12,3.12V56.27a0,0,0,0,1,0,0H16.17a0,0,0,0,1,0,0V20.33A3.12,3.12,0,0,1,19.29,17.21Z"/></svg>