<svg id="Layer_1" data-name="Layer 1" xmlns="http://www.w3.org/2000/svg" xmlns:xlink="http://www.w3.org/1999/xlink" viewBox="0 0 80 80"><defs><style>.cls-1{opacity:0.5;fill:url(#linear-gradient);}.cls-2{opacity:0.55;fill:url(#linear-gradient-2);}.cls-3{fill:none;}.cls-3,.cls-4{stroke:#fff;stroke-linecap:round;stroke-linejoin:round;stroke-width:1.3px;}.cls-4{fill:#fff;}</style><linearGradient id="linear-gradient" x1="43.06" y1="23.75" x2="-2.23" y2="62.53" gradientUnits="userSpaceOnUse"><stop offset="0" stop-color="#ff5898"/><stop offset="1" stop-color="#7d33ff"/></linearGradient><linearGradient id="linear-gradient-2" x1="68.61" y1="29.19" x2="56.95" y2="39.17" gradientUnits="userSpaceOnUse"><stop offset="0" stop-color="#00eb81"/><stop offset="1" stop-color="#35c8ff"/></linearGradient></defs><circle class="cls-1" cx="24.54" cy="39.61" r="23.04"/><circle class="cls-2" cx="63.84" cy="33.27" r="5.93"/><circle class="cls-3" cx="47.71" cy="31.22" r="15.48"/><rect class="cls-4" x="66.33" y="43.22" width="6.88" height="20.13" rx="1.99" transform="translate(156.78 41.62) rotate(135)"/><rect class="cls-4" x="60.49" y="40.69" width="3.44" height="10.06" transform="translate(138.53 34.06) rotate(135)"/><path class="cls-3" d="M19.1,38.05a4.81,4.81,0,0,1,9.61,0Z"/><circle class="cls-3" cx="23.91" cy="28.96" r="2.57"/><path class="cls-3" d="M28.87,41H19a4,4,0,0,1-4-4V27a4,4,0,0,1,4-4h9.92"/><path class="cls-4" d="M42.78,38.05a4.81,4.81,0,0,1,9.61,0Z"/><circle class="cls-4" cx="47.58" cy="28.65" r="2.57"/><rect class="cls-3" x="38.59" y="23.01" width="17.98" height="17.98" rx="3.32"/><path class="cls-3" d="M19.1,61.32a4.81,4.81,0,0,1,9.61,0Z"/><circle class="cls-3" cx="23.91" cy="52.24" r="2.57"/><rect class="cls-3" x="14.92" y="46.28" width="17.98" height="17.98" rx="3.32"/><path class="cls-3" d="M42.78,61.32a4.81,4.81,0,0,1,9.61,0Z"/><path class="cls-3" d="M45,52.24a2.58,2.58,0,0,0,5.15,0"/><path class="cls-3" d="M56.57,50.31v9.92a4,4,0,0,1-4,4H42.62a4,4,0,0,1-4-4V50.31"/></svg>