<svg id="Layer_1" data-name="Layer 1" xmlns="http://www.w3.org/2000/svg" xmlns:xlink="http://www.w3.org/1999/xlink" viewBox="0 0 80 80"><defs><style>.cls-1{opacity:0.5;fill:url(#linear-gradient);}.cls-2{opacity:0.6;fill:url(#linear-gradient-2);}.cls-3{fill:none;}.cls-3,.cls-4{stroke:#fff;stroke-linecap:round;stroke-linejoin:round;stroke-width:1.3px;}.cls-4{fill:#fff;}</style><linearGradient id="linear-gradient" x1="52.43" y1="13.79" x2="-4.4" y2="55.02" gradientUnits="userSpaceOnUse"><stop offset="0" stop-color="#3e44fe"/><stop offset="0.32" stop-color="#7052ff"/><stop offset="0.55" stop-color="#975cff"/><stop offset="1" stop-color="#b85cff"/></linearGradient><linearGradient id="linear-gradient-2" x1="75.81" y1="30.61" x2="57.17" y2="46.58" gradientUnits="userSpaceOnUse"><stop offset="0" stop-color="#00eb81"/><stop offset="1" stop-color="#3e44fe"/></linearGradient></defs><rect class="cls-1" x="2.33" y="15.61" width="42.28" height="38.37" rx="2.29"/><circle class="cls-2" cx="68.19" cy="37.14" r="9.48"/><circle class="cls-3" cx="33.41" cy="60.29" r="3.31"/><line class="cls-3" x1="36.46" y1="61.54" x2="44.4" y2="42.16"/><circle class="cls-3" cx="47.45" cy="60.29" r="3.31"/><line class="cls-3" x1="44.4" y1="61.54" x2="36.46" y2="42.16"/><rect class="cls-3" x="6.14" y="12.82" width="42.28" height="38.37" rx="2.29"/><path class="cls-3" d="M51.74,19.12H71.13a2.73,2.73,0,0,1,2.73,2.73V54.76a2.73,2.73,0,0,1-2.73,2.73H54.7"/><line class="cls-3" x1="6.46" y1="57.21" x2="26.82" y2="57.21"/><circle class="cls-4" cx="10.5" cy="57.21" r="1.12"/><line class="cls-3" x1="6.46" y1="61.63" x2="26.82" y2="61.63"/><circle class="cls-4" cx="18.43" cy="61.63" r="1.12"/><line class="cls-3" x1="6.46" y1="66.06" x2="26.82" y2="66.06"/><circle class="cls-4" cx="13.63" cy="66.06" r="1.12"/><line class="cls-3" x1="20.42" y1="27.66" x2="20.42" y2="36.36"/><line class="cls-3" x1="34.13" y1="27.66" x2="34.13" y2="36.36"/><line class="cls-3" x1="27.27" y1="23.6" x2="27.27" y2="40.41"/><line class="cls-3" x1="13.57" y1="30.26" x2="13.57" y2="33.76"/><line class="cls-3" x1="40.98" y1="30.26" x2="40.98" y2="33.76"/></svg>