<svg width="61" height="60" viewBox="0 0 61 60" fill="none" xmlns="../../../../../www.w3.org/2000/svg.html">
<path d="M56.7204 38.75H52.9704V10C52.9704 7.875 51.3454 6.25 49.2204 6.25H11.7204C9.5954 6.25 7.9704 7.875 7.9704 10V38.75H4.2204C3.4704 38.75 2.9704 39.25 2.9704 40V42.5C2.9704 44.625 4.5954 46.25 6.7204 46.25H14.3454V50.625C14.3454 52.375 15.7204 53.75 17.4704 53.75H30.3454C32.0954 53.75 33.4704 52.375 33.5954 50.75V46.25H54.2204C56.3454 46.25 57.9704 44.625 57.9704 42.5V40C57.9704 39.25 57.4704 38.75 56.7204 38.75ZM10.4704 10C10.4704 9.25 10.9704 8.75 11.7204 8.75H49.2204C49.9704 8.75 50.4704 9.25 50.4704 10V38.75H33.5954V24.75C33.5954 23 32.2204 21.625 30.4704 21.625H17.4704C15.7204 21.625 14.3454 23 14.3454 24.75V38.75H10.4704V10ZM6.7204 43.75C5.9704 43.75 5.4704 43.25 5.4704 42.5V41.25H14.3454V43.75H6.7204ZM30.4704 51.25H17.4704C17.0954 51.25 16.8454 51 16.8454 50.625V24.75C16.8454 24.375 17.0954 24.125 17.4704 24.125H30.4704C30.8454 24.125 31.0954 24.375 31.0954 24.75V50.625C31.0954 51 30.8454 51.25 30.4704 51.25ZM55.4704 42.5C55.4704 43.25 54.9704 43.75 54.2204 43.75H33.5954V41.25H55.4704V42.5ZM28.0954 27.5C28.0954 28.25 27.5954 28.75 26.8454 28.75H20.9704C20.2204 28.75 19.7204 28.25 19.7204 27.5C19.7204 26.75 20.2204 26.25 20.9704 26.25H26.8454C27.5954 26.25 28.0954 26.75 28.0954 27.5Z" fill="white"/>
</svg>
