<svg width="80" height="80" viewBox="0 0 80 80" fill="none" xmlns="../../../../../www.w3.org/2000/svg.html">
<path opacity="0.5" d="M31.4998 53.2C43.4844 53.2 53.1998 43.4846 53.1998 31.5C53.1998 19.5154 43.4844 9.79999 31.4998 9.79999C19.5152 9.79999 9.7998 19.5154 9.7998 31.5C9.7998 43.4846 19.5152 53.2 31.4998 53.2Z" fill="url(#paint0_linear)"/>
<path opacity="0.55" d="M67.9998 56.5C71.9763 56.5 75.1998 53.2764 75.1998 49.3C75.1998 45.3235 71.9763 42.1 67.9998 42.1C64.0234 42.1 60.7998 45.3235 60.7998 49.3C60.7998 53.2764 64.0234 56.5 67.9998 56.5Z" fill="url(#paint1_linear)"/>
<path d="M17.3999 61C17.3999 63.6 15.2999 65.7 12.6999 65.7C10.0999 65.7 7.9999 63.6 7.9999 61C7.9999 58.4 10.0999 56.3 12.6999 56.3C15.2999 56.3 17.3999 58.4 17.3999 61ZM71.9999 40C71.9999 55.7 59.1999 68.5 43.4999 68.5C38.8999 68.5 34.2999 67.4 30.1999 65.2C30.1999 65.2 30.1999 65.2 30.0999 65.1C30.0999 65.1 29.9999 65.1 29.9999 65C29.9999 65 29.9999 64.9 29.8999 64.9C29.8999 64.9 29.8999 64.8 29.7999 64.8V64.7V64.6V64.5V64.4C30.4999 62.6 30.8999 60.6 30.8999 58.7C30.8999 50.1 24.1999 43.1 15.5999 42.7C13.2999 42.6 10.9999 43 8.7999 43.9C8.6999 43.9 8.5999 43.9 8.5999 43.9C8.3999 43.9 8.0999 43.8 7.9999 43.5C7.8999 43.2 7.9999 42.8 8.2999 42.7C10.3999 41.8 12.6999 41.4 14.8999 41.4C14.9999 41 14.9999 40.5 14.9999 40C14.9999 24.3 27.7999 11.5 43.4999 11.5C59.1999 11.5 71.9999 24.3 71.9999 40ZM35.1999 39.4H42.7999V23.3C38.6999 23.9 35.3999 30.8 35.1999 39.4ZM51.6999 40.6H44.0999V56.7C48.1999 56.1 51.5999 49.2 51.6999 40.6ZM51.6999 39.4C51.5999 30.8 48.1999 23.9 44.0999 23.3V39.4H51.6999ZM35.1999 40.6C35.2999 49.2 38.6999 56.1 42.7999 56.7V40.6H35.1999ZM47.5999 56.3C54.6999 54.5 59.9999 48.2 60.2999 40.6H52.9999C52.7999 47.6 50.6999 53.5 47.5999 56.3ZM60.1999 39.4C59.8999 31.8 54.5999 25.5 47.4999 23.7C50.5999 26.5 52.6999 32.3 52.8999 39.4H60.1999ZM39.3999 23.7C32.2999 25.5 26.9999 31.8 26.6999 39.4H33.9999C34.1999 32.4 36.2999 26.5 39.3999 23.7ZM26.6999 40.6C26.9999 48.2 32.2999 54.5 39.3999 56.3C36.2999 53.5 34.1999 47.7 33.9999 40.6H26.6999ZM70.7999 40C70.7999 24.9 58.4999 12.7 43.4999 12.7C28.4999 12.7 16.1999 24.9 16.1999 40C16.1999 40.5 16.1999 41 16.2999 41.6C20.2999 41.9 23.8999 43.5 26.6999 46.1C25.9999 44.2 25.5999 42.2 25.5999 40C25.5999 30.1 33.6999 22 43.5999 22C53.4999 22 61.5999 30.1 61.5999 40C61.5999 49.9 53.4999 58 43.5999 58C38.7999 58 34.4999 56.1 31.2999 53.1C31.8999 54.9 32.2999 56.8 32.2999 58.8C32.2999 60.7 31.9999 62.6 31.2999 64.4C35.0999 66.3 39.2999 67.3 43.5999 67.3C58.4999 67.3 70.7999 55.1 70.7999 40ZM12.6999 48.6C11.1999 48.6 9.7999 48.9 8.3999 49.4C8.0999 49.5 7.8999 49.9 7.9999 50.2C8.0999 50.5 8.4999 50.7 8.7999 50.6C10.0999 50.1 11.3999 49.9 12.6999 49.9C18.8999 49.9 23.8999 54.9 23.8999 61.1C23.8999 62.4 23.6999 63.7 23.1999 65C23.0999 65.3 23.1999 65.7 23.5999 65.8C23.6999 65.8 23.6999 65.8 23.7999 65.8C23.9999 65.8 24.2999 65.7 24.3999 65.4C24.8999 64 25.1999 62.5 25.1999 61.1C25.0999 54.1 19.5999 48.6 12.6999 48.6Z" fill="white"/>
<defs>
<linearGradient id="paint0_linear" x1="57.6214" y1="16.3948" x2="1.98661" y2="48.4918" gradientUnits="userSpaceOnUse">
<stop stop-color="#FFABCB"/>
<stop offset="1" stop-color="#7D33FF"/>
</linearGradient>
<linearGradient id="paint1_linear" x1="72.6689" y1="46.5304" x2="62.8462" y2="52.5037" gradientUnits="userSpaceOnUse">
<stop stop-color="#00EB81"/>
<stop offset="1" stop-color="#35C8FF"/>
</linearGradient>
</defs>
</svg>
