<svg id="Product_-_Call_Recording_API" data-name="Product - Call Recording API" xmlns="http://www.w3.org/2000/svg" viewBox="0 0 48 48"><defs><style>.cls-1{fill:none;stroke-width:2px;}.cls-1,.cls-2{stroke:#fff;stroke-linecap:round;stroke-linejoin:round;}.cls-2{fill:#fff;stroke-width:1.3px;}</style></defs><path class="cls-1" d="M6,32.69H25.67l8,6.85-.15-6.85h2.64A5.89,5.89,0,0,0,42,26.81v-10"/><rect class="cls-1" x="6" y="1.98" width="31.31" height="25.7" rx="1.71"/><polygon class="cls-2" points="37.23 22.23 26.93 11.92 18.44 20.41 14.88 16.85 6 25.73 8.12 27.69 35.2 27.69 37.32 25.57 37.23 22.23"/><circle class="cls-2" cx="16.37" cy="10.19" r="1.73"/><path class="cls-1" d="M12.49,46H9.88A3.88,3.88,0,0,1,6,42.14H6a3.88,3.88,0,0,1,3.88-3.88h3.75a3.88,3.88,0,0,1,3.88,3.88h0"/><path class="cls-1" d="M19.15,38.26h2.61a3.88,3.88,0,0,1,3.88,3.88h0A3.88,3.88,0,0,1,21.76,46H18a3.88,3.88,0,0,1-3.88-3.88h0"/></svg>