<svg xmlns="http://www.w3.org/2000/svg" viewBox="0 0 48 48"><defs><style>.cls-1{fill:#231f20;}.cls-1,.cls-2{stroke:#fff;stroke-linecap:round;stroke-linejoin:round;stroke-width:2px;}.cls-2{fill:none;}.cls-3{fill:#fff;}</style></defs><g id="Product_-_Call_Recording_API" data-name="Product - Call Recording API"><line class="cls-1" x1="6.18" y1="34.18" x2="13" y2="34.18"/><line class="cls-1" x1="6.18" y1="37.62" x2="15.47" y2="37.62"/><line class="cls-1" x1="29.38" y1="12.42" x2="36.2" y2="12.42"/><line class="cls-1" x1="29.38" y1="15.86" x2="38.67" y2="15.86"/><polyline class="cls-2" points="20.42 10.62 14.78 10.62 12.9 12.98 11.02 10.62 8.64 10.62"/><polyline class="cls-2" points="20.42 15.63 14.78 15.63 12.9 18 11.02 15.63 8.64 15.63"/><path class="cls-2" d="M24,4.09H11.6a9.42,9.42,0,0,0,0,18.84l-.1,4.7L17,22.93h7"/><path class="cls-2" d="M24,22.92H36.07a9.64,9.64,0,0,1,9.73,8.79,9.42,9.42,0,0,1-9.4,10l.1,4.7L31,41.76H24Z"/><line class="cls-2" x1="24" y1="1.3" x2="24" y2="46.7"/><path class="cls-3" d="M45.8,31.71a9.64,9.64,0,0,0-9.73-8.79H24V41.76h7l5.46,4.7-.1-4.7A9.42,9.42,0,0,0,45.8,31.71ZM39.25,35.4h-3l-.73,2a.63.63,0,0,1-.49.4H35a.65.65,0,0,1-.5-.24L32.8,35.4H27.46a.63.63,0,0,1,0-1.25H33.1a.61.61,0,0,1,.49.23l1.19,1.5.5-1.32a.62.62,0,0,1,.59-.41h3.38a.63.63,0,0,1,0,1.25Zm0-5h-3l-.73,2a.62.62,0,0,1-.49.41H35a.66.66,0,0,1-.5-.23L32.8,30.39H27.46a.63.63,0,0,1,0-1.26H33.1a.62.62,0,0,1,.49.24l1.19,1.5.5-1.33a.62.62,0,0,1,.59-.41h3.38a.63.63,0,0,1,0,1.26Z"/></g></svg>