<svg width="80" height="80" viewBox="0 0 80 80" fill="none" xmlns="../../../../../www.w3.org/2000/svg.html">
<path opacity="0.55" d="M26.6 32.5C33.5 32.5 39.1 38.1 39.1 45C39.1 51.9 33.5 57.5 26.6 57.5H23.4H15.8C8.90005 57.5 3.30005 51.9 3.30005 45C3.30005 38.1 8.90005 32.5 15.8 32.5H23.4H26.6Z" fill="url(#paint0_linear)"/>
<path opacity="0.5" d="M58.9 59C62.8764 59 66.0999 55.7764 66.0999 51.8C66.0999 47.8235 62.8764 44.6 58.9 44.6C54.9235 44.6 51.7 47.8235 51.7 51.8C51.7 55.7764 54.9235 59 58.9 59Z" fill="url(#paint1_linear)"/>
<path d="M64.6999 15H48C41.0999 15 35.4 20.9 35.4 28.1C35.4 29.4 35.6 30.7 35.9 31.9H20.3C13.4 31.9 7.69995 37.8 7.69995 45C7.69995 52.2 13.4 58.1 20.3 58.1H28.4L36.5999 64.9C36.6999 65 36.9 65 37 65C37.1 65 37.1999 65 37.2999 64.9C37.5 64.8 37.5999 64.6 37.5999 64.4V58C41 57.8 44.1 56.3 46.4 53.6C46.6 53.3 46.5999 53 46.2999 52.8C46 52.6 45.7 52.6 45.5 52.9C43.2999 55.4 40.2 56.9 37 56.9C36.7 56.9 36.4 57.2 36.4 57.5V63.2L29 57C28.9 56.9 28.8 56.9 28.6 56.9H20.2C14 56.9 8.89995 51.5 8.89995 45C8.89995 38.5 14 33.1 20.3 33.1H36.2999C38.0999 37.7 42.3999 40.9 47.2999 41.2V47.6C47.2999 47.8 47.3999 48 47.5999 48.1C47.6999 48.1 47.8 48.2 47.9 48.2C48 48.2 48.2 48.2 48.2999 48.1L56.5 41.3H64.5999C71.5 41.3 77.2 35.4 77.2 28.2C77.2 21 71.5999 15 64.6999 15ZM63 29L57 35C56.7 35.3 56.4 35.4 56 35.4C55.5999 35.4 55.2999 35.3 55 35L49.0999 29.1C47.5 27.5 47.1 25 48.4 23.2C49.2 22 50.5 21.3 51.7999 21.2C53.0999 21.1 54.4 21.6 55.4 22.5L55.9 23L56.2999 22.6C57.8999 21 60.3999 20.7 62.0999 21.9C63.1999 22.7 64 23.9 64.0999 25.2C64.5 26.7 64 28 63 29ZM35.5 42.2C35.7999 42.2 36.0999 41.9 36.0999 41.6C36.0999 41.3 35.7999 41 35.5 41H32.2999L32.9 38.5C33 38.2 32.7999 37.9 32.5 37.8C32.2 37.7 31.9 37.9 31.7999 38.2L31 41H25L25.6 38.5C25.7 38.2 25.5 37.9 25.2 37.8C24.9 37.7 24.6 37.9 24.5 38.2L23.7 41H20.2C19.9 41 19.6 41.3 19.6 41.6C19.6 41.9 19.9 42.2 20.2 42.2H23.5L22.1 48.2H18.7C18.4 48.2 18.1 48.5 18.1 48.8C18.1 49.1 18.4 49.4 18.7 49.4H21.9L21.3 51.8C21.2 52.1 21.4 52.4 21.7 52.5H21.8C22.1 52.5 22.3 52.3 22.4 52L23 49.3H29L28.4 51.7C28.3 52 28.5 52.3 28.7999 52.4H28.9C29.2 52.4 29.4 52.2 29.5 51.9L30.1 49.2H33.7C34 49.2 34.2999 48.9 34.2999 48.6C34.2999 48.3 34 48 33.7 48H30.4L31.7999 42H35.5V42.2ZM29.2999 48.3H23.2L24.6 42.3H30.7L29.2999 48.3Z" fill="white"/>
<defs>
<linearGradient id="paint0_linear" x1="43.0171" y1="44.0385" x2="1.21055" y2="45.8562" gradientUnits="userSpaceOnUse">
<stop stop-color="#00EB81"/>
<stop offset="1" stop-color="#35C8FF"/>
</linearGradient>
<linearGradient id="paint1_linear" x1="63.5686" y1="49.0057" x2="53.7458" y2="54.9789" gradientUnits="userSpaceOnUse">
<stop stop-color="#FF5898"/>
<stop offset="1" stop-color="#7D33FF"/>
</linearGradient>
</defs>
</svg>
