<svg id="Product_-_Call_Recording_API" data-name="Product - Call Recording API" xmlns="http://www.w3.org/2000/svg" viewBox="0 0 48 48"><defs><style>.cls-1{fill:none;stroke-width:1.3px;}.cls-1,.cls-2{stroke:#fff;stroke-linecap:round;stroke-linejoin:round;}.cls-2,.cls-3{fill:#fff;}.cls-2{stroke-width:1.3px;}</style></defs><path class="cls-1" d="M46.33,15.87V42.2a4.25,4.25,0,0,1-4.25,4.25H5.92A4.25,4.25,0,0,1,1.67,42.2V6A4.25,4.25,0,0,1,5.92,1.8H42.08A4.25,4.25,0,0,1,46.33,6V9.12"/><circle class="cls-2" cx="24.96" cy="27.75" r="2.08"/><circle class="cls-2" cx="33.37" cy="27.75" r="2.08"/><polygon class="cls-2" points="13.78 34.61 10.75 34.61 16.71 18.52 19.73 18.52 13.78 34.61"/><path class="cls-1" d="M1.67,6.19V9.12H46.33V5.88A4.33,4.33,0,0,0,42,1.55H6.31A4.64,4.64,0,0,0,1.67,6.19Z"/><path class="cls-3" d="M6,7A1.67,1.67,0,1,1,7.63,5.34,1.66,1.66,0,0,1,6,7Z"/><path class="cls-3" d="M10.75,7a1.67,1.67,0,1,1,1.67-1.66A1.66,1.66,0,0,1,10.75,7Z"/></svg>