<?xml version="1.0" encoding="utf-8"?>
<!-- Generator: Adobe Illustrator 25.4.1, SVG Export Plug-In . SVG Version: 6.00 Build 0)  -->
<svg version="1.1" id="Layer_1" xmlns="http://www.w3.org/2000/svg" xmlns:xlink="http://www.w3.org/1999/xlink" x="0px" y="0px"
	 viewBox="0 0 48 48" style="enable-background:new 0 0 48 48;" xml:space="preserve">
<style type="text/css">
	.st0{fill:#FFFFFF;}
</style>
<path class="st0" d="M42.7,38.7l-4.8,4.8c-0.2,0.2-0.4,0.3-0.7,0.3c-0.3,0-0.5-0.1-0.7-0.3c-0.4-0.4-0.4-1,0-1.4l3.1-3.1H15
	c-4.5,0-8-3.7-8-8.1c0-2.1,0.8-4.1,2.3-5.6c0.4-0.4,1-0.4,1.4,0c0.4,0.4,0.4,1,0,1.4c-2.4,2.4-2.3,6.2,0,8.6
	c1.1,1.1,2.6,1.7,4.2,1.8h24.6l-3.1-3.2c-0.4-0.4-0.5-1-0.1-1.4c0.4-0.4,1-0.5,1.4-0.1c0,0,0.1,0.1,0.1,0.1l4.8,4.8
	c0.1,0.1,0.2,0.2,0.2,0.3c0,0.1,0.1,0.2,0.1,0.4c0,0,0,0,0,0c0,0,0,0,0,0C43,38.3,42.9,38.5,42.7,38.7z M24,15c5,0,9,4,9,9s-4,9-9,9
	s-9-4-9-9S19,15,24,15z M24,17c-3.9,0-7,3.1-7,7s3.1,7,7,7s7-3.1,7-7S27.9,17,24,17z M10.8,15.9c0.3,0,0.5-0.1,0.7-0.3
	c0.4-0.4,0.4-1,0-1.4L8.4,11H33c1.6,0,3.1,0.6,4.2,1.7c2.4,2.3,2.5,6.2,0.1,8.6c-0.4,0.4-0.4,1,0,1.4c0.2,0.2,0.4,0.3,0.7,0.3
	c0.3,0,0.5-0.1,0.7-0.3c1.5-1.5,2.3-3.5,2.3-5.6c0-4.5-3.5-8.1-8-8.1H8.4l3.1-3.1c0.4-0.4,0.4-1,0-1.4c0,0,0,0,0,0
	c-0.4-0.4-1-0.4-1.4,0L5.3,9.3C5.2,9.4,5.1,9.5,5.1,9.6c0,0,0,0.1,0,0.1C5,9.8,5,9.9,5,10c0,0,0,0,0,0c0,0.3,0.1,0.5,0.3,0.7
	l4.8,4.9C10.3,15.8,10.5,15.9,10.8,15.9z"/>
</svg>
