<svg id="Layer_1" data-name="Layer 1" xmlns="http://www.w3.org/2000/svg" xmlns:xlink="http://www.w3.org/1999/xlink" viewBox="0 0 80 80"><defs><style>.cls-1,.cls-4{opacity:0.5;}.cls-1{fill:url(#linear-gradient);}.cls-2{opacity:0.28;}.cls-3,.cls-8{fill:#fff;}.cls-5{fill:url(#linear-gradient-2);}.cls-6{fill:url(#linear-gradient-3);}.cls-7{fill:none;}.cls-7,.cls-8{stroke:#fff;stroke-linecap:round;stroke-linejoin:round;stroke-width:1.3px;}</style><linearGradient id="linear-gradient" x1="74.73" y1="3.77" x2="54.98" y2="27.46" gradientUnits="userSpaceOnUse"><stop offset="0" stop-color="#00eb81"/><stop offset="1" stop-color="#3e44fe"/></linearGradient><linearGradient id="linear-gradient-2" x1="29.8" y1="25.2" x2="52.04" y2="25.2" gradientUnits="userSpaceOnUse"><stop offset="0" stop-color="#ff5898"/><stop offset="1" stop-color="#7d33ff"/></linearGradient><linearGradient id="linear-gradient-3" x1="32.62" y1="31.57" x2="49.22" y2="31.57" xlink:href="#linear-gradient-2"/></defs><circle class="cls-1" cx="65.62" cy="14.7" r="12.32"/><g class="cls-2"><polygon class="cls-3" points="40.92 31.09 29.8 25.2 40.92 19.3 52.04 25.2 40.92 31.09"/><polyline class="cls-3" points="48.07 27.3 49.22 32.81 40.92 35.84 32.62 32.81 33.77 27.3"/></g><g class="cls-4"><polygon class="cls-5" points="40.92 31.09 29.8 25.2 40.92 19.3 52.04 25.2 40.92 31.09"/><polyline class="cls-6" points="48.07 27.3 49.22 32.81 40.92 35.84 32.62 32.81 33.77 27.3"/></g><path class="cls-7" d="M13.82,25.26V12.54a3.39,3.39,0,0,1,3.54-3.22H66.51a3.39,3.39,0,0,1,3.54,3.22V43.07a3.41,3.41,0,0,1-3.54,3.22H25"/><path class="cls-7" d="M26,55.93A12.41,12.41,0,0,0,1.42,58.17H22.17"/><circle class="cls-7" cx="13.82" cy="35.38" r="6.64"/><path class="cls-8" d="M48.84,70.68a12.4,12.4,0,0,0-24.8,0Z"/><circle class="cls-8" cx="36.44" cy="47.89" r="6.64"/><path class="cls-8" d="M77.12,70.68a12.4,12.4,0,0,0-24.79,0Z"/><circle class="cls-8" cx="64.72" cy="47.89" r="6.64"/><polygon class="cls-7" points="41.93 30.84 32.37 25.76 41.93 20.69 51.5 25.76 41.93 30.84"/><polyline class="cls-7" points="48.09 27.57 49.07 32.31 41.93 34.92 34.79 32.31 35.78 27.57"/></svg>