<svg id="Layer_1" data-name="Layer 1" xmlns="http://www.w3.org/2000/svg" xmlns:xlink="http://www.w3.org/1999/xlink" viewBox="0 0 80 80"><defs><style>.cls-1{opacity:0.5;fill:url(#linear-gradient);}.cls-2{opacity:0.55;fill:url(#linear-gradient-2);}.cls-3{fill:#fff;}.cls-3,.cls-4{stroke:#fff;stroke-linecap:round;stroke-linejoin:round;stroke-width:1.3px;}.cls-4{fill:none;}</style><linearGradient id="linear-gradient" x1="24.26" y1="16.19" x2="61.22" y2="16.19" gradientUnits="userSpaceOnUse"><stop offset="0" stop-color="#ff5898"/><stop offset="1" stop-color="#7d33ff"/></linearGradient><linearGradient id="linear-gradient-2" x1="67.59" y1="44.26" x2="28.1" y2="78.07" gradientUnits="userSpaceOnUse"><stop offset="0" stop-color="#00eb81"/><stop offset="1" stop-color="#35c8ff"/></linearGradient></defs><path class="cls-1" d="M50.07,5a11.15,11.15,0,0,1,0,22.3H35.4A11.15,11.15,0,0,1,35.4,5Z"/><path class="cls-2" d="M58.45,39.43h3.46a0,0,0,0,1,0,0V69.32a0,0,0,0,1,0,0H34.62a0,0,0,0,1,0,0V63.26A23.83,23.83,0,0,1,58.45,39.43Z"/><path class="cls-3" d="M41.58,68.74a10.81,10.81,0,0,0-21.61,0Z"/><circle class="cls-3" cx="30.77" cy="49.87" r="5.79"/><path class="cls-4" d="M57.1,68.74a10.81,10.81,0,0,0-21.61,0Z"/><circle class="cls-4" cx="46.29" cy="49.87" r="5.79"/><path class="cls-4" d="M54.08,61.14h3.65a3.79,3.79,0,0,0,3.82-3.74V29.22a3.78,3.78,0,0,0-3.82-3.74H56.45"/><path class="cls-4" d="M20.55,25.48H19.34a3.79,3.79,0,0,0-3.83,3.74V57.61a3.41,3.41,0,0,0,3.28,3.53h4.89"/><path class="cls-4" d="M72.79,25.48H69.07a3.78,3.78,0,0,0-3.83,3.74V57.61a3.41,3.41,0,0,0,3.28,3.53h4.27"/><path class="cls-4" d="M4.28,61.14H8a3.79,3.79,0,0,0,3.83-3.74V29a3.41,3.41,0,0,0-3.28-3.53H4.28"/><path class="cls-4" d="M45,10.26a9.82,9.82,0,1,1,0,19.63L38.76,34l.66-4.12H32.07a9.82,9.82,0,0,1,0-19.63Z"/></svg>