<svg id="Layer_1" data-name="Layer 1" xmlns="http://www.w3.org/2000/svg" xmlns:xlink="http://www.w3.org/1999/xlink" viewBox="0 0 80 80"><defs><style>.cls-1{opacity:0.55;fill:url(#linear-gradient);}.cls-2{opacity:0.5;fill:url(#linear-gradient-2);}.cls-3{fill:none;}.cls-3,.cls-4{stroke:#fff;stroke-linecap:round;stroke-linejoin:round;stroke-width:1.3px;}.cls-4{fill:#fff;}</style><linearGradient id="linear-gradient" x1="67.78" y1="28.15" x2="55.05" y2="39.04" gradientUnits="userSpaceOnUse"><stop offset="0" stop-color="#00eb81"/><stop offset="1" stop-color="#35c8ff"/></linearGradient><linearGradient id="linear-gradient-2" x1="50.2" y1="25.69" x2="7.43" y2="62.32" gradientUnits="userSpaceOnUse"><stop offset="0" stop-color="#ff5898"/><stop offset="1" stop-color="#7d33ff"/></linearGradient></defs><circle class="cls-1" cx="62.57" cy="32.6" r="6.47"/><circle class="cls-2" cx="32.71" cy="40.67" r="21.76"/><line class="cls-3" x1="40.55" y1="29.72" x2="42.55" y2="26.86"/><line class="cls-3" x1="37.08" y1="29.72" x2="39.08" y2="26.86"/><line class="cls-3" x1="44.02" y1="29.72" x2="46.02" y2="26.86"/><polyline class="cls-3" points="17.94 23.89 28.35 25.93 34.22 47.32 47.49 47.32"/><path class="cls-4" d="M32.72,41.87h13a2.9,2.9,0,0,0,2.64-1.71l2.77-8.38H30Z"/><circle class="cls-4" cx="36.72" cy="51.8" r="1.7"/><circle class="cls-4" cx="44.14" cy="51.8" r="1.7"/><path class="cls-3" d="M23.86,22.15a24.38,24.38,0,1,1-4.37,5.45"/><line class="cls-3" x1="31.16" y1="54.7" x2="49.94" y2="54.7"/></svg>