<svg width="80" height="80" viewBox="0 0 80 80" fill="none" xmlns="../../../../../www.w3.org/2000/svg.html">
<path opacity="0.55" d="M29.7 72.3C41.6846 72.3 51.4 62.5845 51.4 50.6C51.4 38.6154 41.6846 28.9 29.7 28.9C17.7154 28.9 8 38.6154 8 50.6C8 62.5845 17.7154 72.3 29.7 72.3Z" fill="url(#paint0_linear)"/>
<path opacity="0.5" d="M69.1999 27.7C72.5137 27.7 75.1999 25.0137 75.1999 21.7C75.1999 18.3863 72.5137 15.7 69.1999 15.7C65.8862 15.7 63.2 18.3863 63.2 21.7C63.2 25.0137 65.8862 27.7 69.1999 27.7Z" fill="url(#paint1_linear)"/>
<path d="M68.1999 20.7H61.3999V13.9C61.3999 12.8 60.4999 11.8 59.2999 11.8H53.3999C52.2999 11.8 51.2999 12.7 51.2999 13.9V20.7H44.4999C43.3999 20.7 42.3999 21.6 42.3999 22.8V25.2H14.7999C12.8999 25.2 11.3999 26.7 11.3999 28.6V55.2C11.3999 57.1 12.8999 58.6 14.7999 58.6H53.5999C55.4999 58.6 56.9999 57.1 56.9999 55.2V46C56.9999 45.7 56.6999 45.4 56.3999 45.4C56.0999 45.4 55.7999 45.7 55.7999 46V55.1C55.7999 56.3 54.7999 57.3 53.5999 57.3H40.0999C39.7999 51.9 35.2999 47.6 29.6999 47.6C24.0999 47.6 19.6999 51.9 19.2999 57.3H14.7999C13.5999 57.3 12.5999 56.3 12.5999 55.1V28.5C12.5999 27.3 13.5999 26.3 14.7999 26.3H42.4999V28.7C42.4999 29.8 43.3999 30.8 44.5999 30.8H51.3999V37.6C51.3999 38.7 52.2999 39.7 53.4999 39.7H59.3999C60.4999 39.7 61.4999 38.8 61.4999 37.6V30.8H68.2999C69.3999 30.8 70.3999 29.9 70.3999 28.7V22.8C70.2999 21.7 69.3999 20.7 68.1999 20.7ZM29.6999 48.8C34.5999 48.8 38.4999 52.6 38.8999 57.3H20.4999C20.8999 52.6 24.7999 48.8 29.6999 48.8ZM23.8999 39.9C23.8999 43.1 26.4999 45.7 29.6999 45.7C32.8999 45.7 35.4999 43.1 35.4999 39.9C35.4999 36.7 32.8999 34.1 29.6999 34.1C26.4999 34.1 23.8999 36.7 23.8999 39.9ZM34.3999 39.9C34.3999 42.5 32.2999 44.5 29.7999 44.5C27.2999 44.5 25.1999 42.4 25.1999 39.9C25.1999 37.3 27.2999 35.3 29.7999 35.3C32.2999 35.3 34.3999 37.4 34.3999 39.9Z" fill="white"/>
<defs>
<linearGradient id="paint0_linear" x1="55.8523" y1="35.5359" x2="0.2175" y2="67.6329" gradientUnits="userSpaceOnUse">
<stop stop-color="#35C8FF"/>
<stop offset="1" stop-color="#3E44FE"/>
</linearGradient>
<linearGradient id="paint1_linear" x1="73.6385" y1="16.3183" x2="63.9875" y2="27.8995" gradientUnits="userSpaceOnUse">
<stop stop-color="#00EB81"/>
<stop offset="1" stop-color="#3E44FE"/>
</linearGradient>
</defs>
</svg>
