<svg xmlns="http://www.w3.org/2000/svg" viewBox="0 0 48 48"><defs><style>.cls-1,.cls-2{fill:none;}.cls-1{stroke:#fff;stroke-linecap:round;stroke-linejoin:round;stroke-width:2px;}</style></defs><g id="Pages_Dynamic_Talker_Balancing" data-name="Pages – Dynamic Talker Balancing"><line class="cls-1" x1="15.87" y1="30.24" x2="21.63" y2="28.32"/><line class="cls-1" x1="9.33" y1="19.36" x2="12.63" y2="28.65"/><line class="cls-1" x1="21.93" y1="26.13" x2="10.57" y2="18.45"/><line class="cls-1" x1="21.81" y1="9.71" x2="10.69" y2="15.79"/><line class="cls-1" x1="24" y1="25.05" x2="24" y2="11.05"/><line class="cls-1" x1="34.15" y1="38.65" x2="15.84" y2="31.87"/><line class="cls-1" x1="25.78" y1="29.29" x2="34.57" y2="37.95"/><line class="cls-1" x1="37.24" y1="21.57" x2="26.28" y2="26.51"/><line class="cls-1" x1="25.97" y1="10.03" x2="37.52" y2="18.97"/><line class="cls-1" x1="36.93" y1="37.04" x2="39.12" y2="22.97"/><circle class="cls-1" cx="13.5" cy="31" r="2.5"/><circle class="cls-1" cx="24" cy="27.53" r="2.5"/><circle class="cls-1" cx="39.5" cy="20.5" r="2.5"/><circle class="cls-1" cx="24" cy="8.5" r="2.5"/><circle class="cls-1" cx="8.5" cy="17" r="2.5"/><path class="cls-1" d="M39,39.5A2.5,2.5,0,1,0,36.5,42,2.5,2.5,0,0,0,39,39.5Z"/><rect class="cls-2" width="48" height="48"/></g></svg>