<svg xmlns="http://www.w3.org/2000/svg" viewBox="0 0 48 48"><defs><style>.cls-1,.cls-2{fill:none;}.cls-1{stroke:#fff;stroke-linecap:round;stroke-linejoin:round;stroke-width:2px;}</style></defs><g id="Pages_Scalable" data-name="Pages – Scalable"><path class="cls-1" d="M17.25,42H6.75A.81.81,0,0,1,6,41.15V30.75"/><path class="cls-1" d="M11.75,35V21.05A1.27,1.27,0,0,1,13,19.75H27a1.27,1.27,0,0,1,1.25,1.3V35A1.27,1.27,0,0,1,27,36.25H13A1.27,1.27,0,0,1,11.75,35Z"/><path class="cls-1" d="M20,14.5V7.87A1.87,1.87,0,0,1,21.86,6H40.14A1.87,1.87,0,0,1,42,7.88V26.12A1.87,1.87,0,0,1,40.14,28H33.55"/><rect class="cls-2" width="48" height="48"/></g></svg>