<svg id="Layer_1" data-name="Layer 1" xmlns="http://www.w3.org/2000/svg" xmlns:xlink="http://www.w3.org/1999/xlink" viewBox="0 0 80 80"><defs><style>.cls-1{opacity:0.5;fill:url(#linear-gradient);}.cls-2{opacity:0.6;fill:url(#linear-gradient-2);}.cls-3{fill:none;}.cls-3,.cls-4,.cls-5{stroke:#fff;stroke-linecap:round;stroke-linejoin:round;stroke-width:1.3px;}.cls-4,.cls-6{fill:#fff;}.cls-5{fill:#231f20;}</style><linearGradient id="linear-gradient" x1="17.29" y1="14.19" x2="2.71" y2="31.68" gradientUnits="userSpaceOnUse"><stop offset="0" stop-color="#ff5898"/><stop offset="1" stop-color="#7d33ff"/></linearGradient><linearGradient id="linear-gradient-2" x1="73.26" y1="22.88" x2="20.51" y2="68.06" gradientUnits="userSpaceOnUse"><stop offset="0" stop-color="#00eb81"/><stop offset="1" stop-color="#3e44fe"/></linearGradient></defs><circle class="cls-1" cx="10.57" cy="22.26" r="9.1"/><circle class="cls-2" cx="51.69" cy="41.35" r="26.84"/><path class="cls-3" d="M51.57,61v6.94a4.21,4.21,0,0,1-4.21,4.21H18.27a4.21,4.21,0,0,1-4.22-4.21V12.08a4.21,4.21,0,0,1,4.22-4.21H47.36a4.21,4.21,0,0,1,4.21,4.21V24.72"/><polygon class="cls-4" points="38.2 11.22 27.43 11.22 26.37 7.99 39.26 7.99 38.2 11.22"/><line class="cls-5" x1="42.75" y1="38.61" x2="64.28" y2="38.61"/><line class="cls-5" x1="42.75" y1="34.24" x2="64.28" y2="34.24"/><line class="cls-5" x1="42.75" y1="29.87" x2="64.28" y2="29.87"/><line class="cls-5" x1="42.75" y1="42.98" x2="64.28" y2="42.98"/><line class="cls-5" x1="42.75" y1="47.35" x2="64.28" y2="47.35"/><line class="cls-5" x1="42.75" y1="51.71" x2="64.28" y2="51.71"/><line class="cls-5" x1="42.75" y1="56.08" x2="59.77" y2="56.08"/><path class="cls-6" d="M20.73,38.49A13.36,13.36,0,1,0,31.63,49.4,13.37,13.37,0,0,0,20.73,38.49Zm-.91,15.44-3.4,2a.37.37,0,0,1-.55-.32V47.73a.37.37,0,0,1,.55-.31l3.4,2,3.4,2a.37.37,0,0,1,0,.63Z"/></svg>