<svg id="Product_-_Call_Recording_API" data-name="Product - Call Recording API" xmlns="http://www.w3.org/2000/svg" viewBox="0 0 48 48"><defs><style>.cls-1{fill:#fff;}.cls-1,.cls-2,.cls-3{stroke:#fff;stroke-linecap:round;stroke-linejoin:round;stroke-width:1.3px;}.cls-2{fill:none;}.cls-3{fill:#231f20;}</style></defs><path class="cls-1" d="M9.9,6.58h0c-3.17-3.17-7.2.86-4,4l4,4h0l4-4C17.11,7.44,13.07,3.41,9.9,6.58Z"/><path class="cls-2" d="M31.69,29.58a9.34,9.34,0,0,1-9.29,8.34l-5.26,4.66,0-4.66h-7a9.33,9.33,0,0,1,0-18.66h3.19"/><path class="cls-2" d="M37.88,8.44a9.34,9.34,0,0,1,0,18.67l.1,4.65-5.4-4.65h-7a9.34,9.34,0,1,1,0-18.67Z"/><line class="cls-3" x1="8.87" y1="27.4" x2="18" y2="27.4"/><line class="cls-3" x1="8.87" y1="30.78" x2="21.31" y2="30.78"/><rect class="cls-1" x="25.87" y="16.23" width="2.23" height="5.43" rx="0.51"/><path class="cls-1" d="M30.26,16.74v4.2a.73.73,0,0,0,.73.72h3.52a.81.81,0,0,0,.8-.67l1.22-3.8a.82.82,0,0,0-.8-1H33.2a.72.72,0,0,1-.67-1l.33-.8a.82.82,0,0,0-.11-.81h0a.81.81,0,0,0-1.38.16l-.9,2A2.32,2.32,0,0,0,30.26,16.74Z"/></svg>