<svg id="Layer_1" data-name="Layer 1" xmlns="http://www.w3.org/2000/svg" xmlns:xlink="http://www.w3.org/1999/xlink" viewBox="0 0 80 80"><defs><style>.cls-1,.cls-2{opacity:0.5;}.cls-1{fill:url(#linear-gradient);}.cls-2{fill:url(#linear-gradient-2);}.cls-3,.cls-4{fill:none;}.cls-3,.cls-4,.cls-5{stroke:#fff;stroke-linecap:round;stroke-linejoin:round;stroke-width:1.3px;}.cls-4{stroke-dasharray:2.91 2.91;}.cls-5{fill:#fff;}</style><linearGradient id="linear-gradient" x1="62.28" y1="25.1" x2="22.57" y2="59.1" gradientUnits="userSpaceOnUse"><stop offset="0" stop-color="#975cff"/><stop offset="1" stop-color="#3e44fe"/></linearGradient><linearGradient id="linear-gradient-2" x1="16.75" y1="39.55" x2="2.61" y2="51.66" gradientUnits="userSpaceOnUse"><stop offset="0" stop-color="#ff5898"/><stop offset="1" stop-color="#7d33ff"/></linearGradient></defs><circle class="cls-1" cx="46.04" cy="39" r="20.2"/><circle class="cls-2" cx="10.97" cy="44.5" r="7.19"/><path class="cls-3" d="M35.81,28.33H34.34a4.75,4.75,0,0,1-8.65,0H14.15A3.18,3.18,0,0,0,11,31.51V53a3.18,3.18,0,0,0,3.18,3.18H25.69a4.75,4.75,0,0,1,8.65,0H45.65"/><path class="cls-3" d="M59.09,56.2H69.77A3.18,3.18,0,0,0,73,53V31.51a3.18,3.18,0,0,0-3.18-3.18h-.92"/><line class="cls-3" x1="30.04" y1="33.49" x2="30.04" y2="34.99"/><line class="cls-4" x1="30.04" y1="37.9" x2="30.04" y2="48.09"/><line class="cls-3" x1="30.04" y1="49.54" x2="30.04" y2="51.04"/><path class="cls-3" d="M52.44,21.07A16.42,16.42,0,0,0,36,37.48h0A16.41,16.41,0,0,0,46.84,52.89l4.4,7.62a1.38,1.38,0,0,0,2.39,0L58,52.9a16.4,16.4,0,0,0-5.59-31.83Z"/><circle class="cls-5" cx="52.42" cy="46.33" r="2.49"/><path class="cls-5" d="M50.4,39.21a3.68,3.68,0,0,1,.22-1.37,2.67,2.67,0,0,1,.73-1.05c.5-.49,1-.91,1.38-1.27s.79-.7,1.09-1a4.85,4.85,0,0,0,.72-.89,1.65,1.65,0,0,0,.25-.87,1.76,1.76,0,0,0-.55-1.39,2,2,0,0,0-1.39-.5,2.5,2.5,0,0,0-1.92.7,2.7,2.7,0,0,0-.74,1.7L46,33a6.24,6.24,0,0,1,2.1-4.35,7,7,0,0,1,4.63-1.5,8,8,0,0,1,2.33.34,5.83,5.83,0,0,1,1.93,1,5,5,0,0,1,1.32,1.67,5.24,5.24,0,0,1,.48,2.29,5.58,5.58,0,0,1-.16,1.41,4.48,4.48,0,0,1-.55,1.26,7.38,7.38,0,0,1-1,1.25,19.82,19.82,0,0,1-1.61,1.39,2.68,2.68,0,0,0-.83.94,2,2,0,0,0-.22.91v.78h-4Z"/><line class="cls-3" x1="15.58" y1="42.73" x2="23.82" y2="42.73"/><line class="cls-3" x1="15.58" y1="46.23" x2="23.82" y2="46.23"/><line class="cls-3" x1="15.58" y1="49.72" x2="23.82" y2="49.72"/><circle class="cls-5" cx="19.7" cy="36.59" r="3.1"/></svg>