<svg id="Layer_1" data-name="Layer 1" xmlns="http://www.w3.org/2000/svg" xmlns:xlink="http://www.w3.org/1999/xlink" viewBox="0 0 80 80"><defs><style>.cls-1{opacity:0.5;fill:url(#linear-gradient);}.cls-2{opacity:0.6;fill:url(#linear-gradient-2);}.cls-3,.cls-5{fill:#fff;}.cls-3,.cls-4,.cls-6{stroke:#fff;stroke-width:1.3px;}.cls-3,.cls-4{stroke-linecap:round;stroke-linejoin:round;}.cls-4,.cls-6{fill:none;}.cls-6{stroke-miterlimit:10;}</style><linearGradient id="linear-gradient" x1="75.32" y1="14.1" x2="61.13" y2="26.25" gradientUnits="userSpaceOnUse"><stop offset="0" stop-color="#3e44fe"/><stop offset="0.32" stop-color="#7052ff"/><stop offset="0.55" stop-color="#975cff"/><stop offset="1" stop-color="#b85cff"/></linearGradient><linearGradient id="linear-gradient-2" x1="48.84" y1="29.16" x2="-0.83" y2="71.69" gradientUnits="userSpaceOnUse"><stop offset="0" stop-color="#00eb81"/><stop offset="1" stop-color="#3e44fe"/></linearGradient></defs><circle class="cls-1" cx="69.52" cy="19.07" r="7.22"/><circle class="cls-2" cx="28.53" cy="46.55" r="25.27"/><path class="cls-3" d="M35.14,49.69a7,7,0,0,0-13.9,0Z"/><circle class="cls-3" cx="28.19" cy="36.43" r="3.72"/><path class="cls-4" d="M64.3,49.69a7,7,0,0,0-13.9,0Z"/><circle class="cls-4" cx="57.35" cy="36.43" r="3.72"/><path class="cls-4" d="M64.28,19.07h2.43a3.46,3.46,0,0,1,3.51,3.42V60.66a3.49,3.49,0,0,1-3.51,3.43H17.57a3.13,3.13,0,0,1-3-3.24V22.49a3.46,3.46,0,0,1,3.51-3.42H59.77"/><path class="cls-4" d="M14.57,23.93V17.05a3.46,3.46,0,0,1,3.51-3.42H59.77"/><path class="cls-4" d="M64.28,13.63h2.43a3.46,3.46,0,0,1,3.51,3.42v6.69"/><path class="cls-4" d="M14.57,18.49V11.61a3.46,3.46,0,0,1,3.51-3.42H59.77"/><path class="cls-4" d="M64.28,8.19h2.43a3.46,3.46,0,0,1,3.51,3.42v5.56"/><line class="cls-3" x1="42.77" y1="19.37" x2="42.77" y2="35.7"/><line class="cls-3" x1="42.77" y1="45.03" x2="42.77" y2="63.37"/><path class="cls-5" d="M43.66,34.54A5.29,5.29,0,1,0,48,38.86,5.29,5.29,0,0,0,43.66,34.54Zm-.36,6.11L42,41.43a.14.14,0,0,1-.22-.12V38.2a.15.15,0,0,1,.22-.13l1.34.78,1.35.78a.15.15,0,0,1,0,.25Z"/><path class="cls-6" d="M43.66,34.54A5.29,5.29,0,1,0,48,38.86,5.29,5.29,0,0,0,43.66,34.54Z"/></svg>