<svg id="Layer_1" data-name="Layer 1" xmlns="http://www.w3.org/2000/svg" xmlns:xlink="http://www.w3.org/1999/xlink" viewBox="0 0 80 80"><defs><style>.cls-1,.cls-2{opacity:0.5;}.cls-1{fill:url(#linear-gradient);}.cls-2{fill:url(#linear-gradient-2);}.cls-3,.cls-6{fill:none;}.cls-3,.cls-4,.cls-5,.cls-6{stroke:#fff;}.cls-3,.cls-4{stroke-linecap:round;stroke-linejoin:round;}.cls-3,.cls-4,.cls-6{stroke-width:1.3px;}.cls-4,.cls-5,.cls-7{fill:#fff;}.cls-5,.cls-6{stroke-miterlimit:10;}</style><linearGradient id="linear-gradient" x1="38.36" y1="11.95" x2="21.16" y2="26.68" gradientUnits="userSpaceOnUse"><stop offset="0" stop-color="#ff5898"/><stop offset="1" stop-color="#7d33ff"/></linearGradient><linearGradient id="linear-gradient-2" x1="71.54" y1="29.24" x2="27.72" y2="66.77" gradientUnits="userSpaceOnUse"><stop offset="0" stop-color="#00eb81"/><stop offset="1" stop-color="#35c8ff"/></linearGradient></defs><circle class="cls-1" cx="31.33" cy="17.97" r="8.75"/><circle class="cls-2" cx="53.62" cy="44.59" r="22.3"/><path class="cls-3" d="M71.36,13.27A13.31,13.31,0,0,1,60.9,34.81l-8.76,7.56,1.2-7.56h-10a13.31,13.31,0,0,1,0-26.62H60.9a13.24,13.24,0,0,1,7.15,2.08"/><path class="cls-4" d="M60.28,31.3A8.14,8.14,0,0,0,44,31.3Z"/><circle class="cls-4" cx="52.14" cy="15.92" r="4.36"/><path class="cls-3" d="M17.39,37.63a13.31,13.31,0,0,0,0,26.62l8.76,7.56L25,64.25h10a13.31,13.31,0,1,0,0-26.62Z"/><path class="cls-5" d="M34.91,37.63H17.39a13.31,13.31,0,0,0,0,26.62l8.76,7.56L25,64.25h10a13.31,13.31,0,1,0,0-26.62Zm-8.76,2.55A5.18,5.18,0,1,1,21,45.36,5.19,5.19,0,0,1,26.15,40.18Zm8.14,21.38H18a.82.82,0,0,1-.82-.82,9,9,0,0,1,17.92,0A.82.82,0,0,1,34.29,61.56Z"/><path class="cls-6" d="M17.93,20.15a4.36,4.36,0,1,0,3.56,3.56A4.37,4.37,0,0,0,17.93,20.15Z"/><path class="cls-7" d="M17.52,22.57a1.9,1.9,0,0,0-2.2,2.2,1.88,1.88,0,0,0,1.55,1.55,1.9,1.9,0,0,0,.65-3.75Z"/></svg>