<svg xmlns="http://www.w3.org/2000/svg" viewBox="0 0 48 48"><defs><style>.cls-1,.cls-2{fill:none;}.cls-1{stroke:#fff;stroke-linecap:round;stroke-linejoin:round;stroke-width:2px;}</style></defs><g id="Pages_Identify_Audio_Issues" data-name="Pages – Identify Audio Issues"><path class="cls-1" d="M3.78,15.26c1.93,0,2.08,5,3.85,5,1.49,0,2.48-5,3.87-5,1.92-.06,2.07,5,3.85,5,1.48,0,2.47-4.91,3.86-5,1.93,0,2.08,5,3.85,5,.75,0,1.36-1.24,2-2.49"/><rect class="cls-1" x="12.42" y="27.19" width="5.1" height="15.86" rx="2.55" transform="translate(0.73 70.55) rotate(-135)"/><line class="cls-1" x1="20.6" y1="29.53" x2="23.96" y2="26.16"/><path class="cls-1" d="M22.22,24a11.88,11.88,0,1,0-.57-11.38"/><rect class="cls-2" width="48" height="48"/><line class="cls-1" x1="35.3" y1="18.89" x2="33.18" y2="18.89"/><line class="cls-1" x1="34.34" y1="15.81" x2="30.53" y2="15.81"/><path class="cls-1" d="M25,14.22a4.72,4.72,0,0,1,3.68-1.8H35.4a4.92,4.92,0,0,1,4.81,5h0a4.92,4.92,0,0,1-4.81,5H32.56L29,25.21V22.42h-.25a4.54,4.54,0,0,1-1.64-.3"/></g></svg>