<svg id="Pages_Plosive_Removal" data-name="Pages – Plosive Removal" xmlns="http://www.w3.org/2000/svg" viewBox="0 0 48 48"><defs><style>.cls-1,.cls-3{fill:none;}.cls-1{stroke:#fff;stroke-linecap:round;stroke-linejoin:round;stroke-width:2px;}.cls-2{fill:#fff;}</style></defs><path class="cls-1" d="M17.84,15.13A6.13,6.13,0,0,1,24,9a6,6,0,0,1,6,6.1,6,6,0,0,1-6,6.09H5"/><path class="cls-1" d="M29.65,35a4,4,0,1,0,4-4H5"/><line class="cls-1" x1="3" y1="26.09" x2="22.5" y2="26.09"/><line class="cls-1" x1="24.62" y1="35" x2="17" y2="35"/><circle class="cls-2" cx="31" cy="26.09" r="1.44"/><circle class="cls-2" cx="26.74" cy="26.09" r="1.44"/><line class="cls-1" x1="37.96" y1="13.49" x2="41.04" y2="16.58"/><line class="cls-1" x1="41.04" y1="13.49" x2="37.96" y2="16.58"/><circle class="cls-1" cx="39.5" cy="15.04" r="5.5"/><rect class="cls-3" width="48" height="48"/></svg>