<svg xmlns="http://www.w3.org/2000/svg" viewBox="0 0 48 48"><defs><style>.cls-1,.cls-2,.cls-3{fill:none;}.cls-1,.cls-2{stroke:#fff;stroke-linejoin:round;stroke-width:2px;}.cls-1{stroke-linecap:round;}</style></defs><g id="Pages_Live_Streaming" data-name="Pages – Live Streaming"><path class="cls-1" d="M5.12,36.5A2.52,2.52,0,0,0,7.64,39a2.5,2.5,0,0,0,0-5A2.53,2.53,0,0,0,5.12,36.5Z"/><path class="cls-1" d="M14.15,39a7,7,0,0,0-6.47-9.5A7.06,7.06,0,0,0,5.12,30"/><path class="cls-1" d="M9.44,25.28l-.65,0a10,10,0,0,0-3.67.7"/><path class="cls-1" d="M26.13,7.25A16.74,16.74,0,0,0,9.38,24c0,.43,0,.86.06,1.28a10,10,0,0,1,8.79,13.49,16.75,16.75,0,1,0,7.9-31.52Z"/><path class="cls-1" d="M35.66,37.77V35.3A8.34,8.34,0,0,0,32.82,29a26.27,26.27,0,0,0-3-2.22"/><path class="cls-1" d="M22.42,26.83a29.32,29.32,0,0,0-3,2.21,8.17,8.17,0,0,0-1.55,1.82"/><circle class="cls-2" cx="26.11" cy="21.64" r="6.37"/><rect class="cls-3" width="48" height="48"/></g></svg>