<svg width="80" height="80" viewBox="0 0 80 80" fill="none" xmlns="../../../../../www.w3.org/2000/svg.html">
<path opacity="0.55" d="M55 63.5001C66.9846 63.5001 76.7 53.7847 76.7 41.8001C76.7 29.8155 66.9846 20.1001 55 20.1001C43.0155 20.1001 33.3 29.8155 33.3 41.8001C33.3 53.7847 43.0155 63.5001 55 63.5001Z" fill="url(#paint0_linear)"/>
<path opacity="0.7" d="M10.5 35.2001C14.4765 35.2001 17.7 31.9765 17.7 28C17.7 24.0236 14.4765 20.8 10.5 20.8C6.5236 20.8 3.30005 24.0236 3.30005 28C3.30005 31.9765 6.5236 35.2001 10.5 35.2001Z" fill="url(#paint1_linear)"/>
<path d="M52 40.8C52 47 48.6 52.8001 43.2 55.9001C43.1 56 43 56 42.9 56C42.7 56 42.5 55.9001 42.4 55.7001C42.2 55.4001 42.3 55 42.6 54.9001C47.7 52 50.8 46.7001 50.8 40.9001V36.2001C50.8 35.9001 51.1 35.6 51.4 35.6C51.7 35.6 52 35.9001 52 36.2001V40.8ZM38.7 56.5C38.4 56.5 38.1 56.8 38.1 57.1V67.3001C38.1 68.4001 37.2 69.4001 36 69.4001H33.3C32.2 69.4001 31.2 68.5001 31.2 67.3001V57.1C31.2 56.8 31 56.6 30.7 56.5C23.5 54.7001 18.5 48.3001 18.5 40.9001V36.2001C18.5 35.9001 18.2 35.6 17.9 35.6C17.6 35.6 17.3 35.9001 17.3 36.2001V40.9001C17.3 48.7001 22.5 55.5 30 57.6V67.3001C30 69.1001 31.5 70.6 33.3 70.6H36C37.8 70.6 39.3 69.1001 39.3 67.3001V57.1C39.3 56.7 39 56.5 38.7 56.5ZM7.2 41.8C7.2 32.9 11.6 24.5 18.9 19.3C19.2 19.1 19.2 18.7 19 18.5C18.8 18.2 18.4 18.2 18.2 18.4C10.6 23.7 6 32.5 6 41.8C6 51.1 10.6 59.9001 18.2 65.3001C18.3 65.4001 18.4 65.4001 18.5 65.4001C18.7 65.4001 18.9 65.3 19 65.1C19.2 64.8 19.1 64.5001 18.9 64.3001C11.6 59.2001 7.2 50.8 7.2 41.8ZM51.2 18.4C50.9 18.2 50.6 18.3 50.4 18.5C50.2 18.8 50.3 19.1 50.5 19.3C57.8 24.4 62.2 32.9 62.2 41.8C62.2 50.7001 57.8 59.1001 50.5 64.3001C50.2 64.5001 50.2 64.9 50.4 65.1C50.5 65.3 50.7 65.4001 50.9 65.4001C51 65.4001 51.1 65.4001 51.2 65.3001C58.8 59.9001 63.4 51.2001 63.4 41.8C63.4 32.5 58.8 23.7 51.2 18.4ZM44 40.6C44 40.3 43.7 40 43.4 40H39.9C39.4 40 39 39.6 39 39.1C39 38.6 39.4 38.2001 39.9 38.2001H43.4C43.7 38.2001 44 37.9 44 37.6V35.1C44 34.8 43.7 34.5 43.4 34.5H39.9C39.4 34.5 39 34.1 39 33.6C39 33.1 39.4 32.7001 39.9 32.7001H43.4C43.7 32.7001 44 32.4 44 32.1V29.6C44 29.3 43.7 29 43.4 29H39.9C39.4 29 39 28.6 39 28.1C39 27.6 39.4 27.2 39.9 27.2H43.4C43.7 27.2 44 26.9 44 26.6V21.9C44 16.9 39.8 12.8 34.7 12.8C29.6 12.8 25.4 16.9 25.4 21.9V26.6C25.4 26.9 25.7 27.2 26 27.2H29.5C30 27.2 30.4 27.6 30.4 28.1C30.4 28.6 30 29 29.5 29H26C25.7 29 25.4 29.3 25.4 29.6V32.1C25.4 32.4 25.7 32.7001 26 32.7001H29.5C30 32.7001 30.4 33.1 30.4 33.6C30.4 34.1 30 34.5 29.5 34.5H26C25.7 34.5 25.4 34.8 25.4 35.1V37.6C25.4 37.9 25.7 38.2001 26 38.2001H29.5C30 38.2001 30.4 38.6 30.4 39.1C30.4 39.6 30 40 29.5 40H26C25.7 40 25.4 40.3 25.4 40.6V41.4001C25.4 46.4001 29.6 50.5 34.7 50.5C39.8 50.5 44 46.4001 44 41.4001V40.6Z" fill="white"/>
<defs>
<linearGradient id="paint0_linear" x1="81.0939" y1="26.7525" x2="25.4592" y2="58.8495" gradientUnits="userSpaceOnUse">
<stop stop-color="#00EB81"/>
<stop offset="1" stop-color="#35C8FF"/>
</linearGradient>
<linearGradient id="paint1_linear" x1="15.1459" y1="25.1577" x2="5.32315" y2="31.131" gradientUnits="userSpaceOnUse">
<stop stop-color="#975CFF"/>
<stop offset="1" stop-color="#3E44FE"/>
</linearGradient>
</defs>
</svg>
