<?xml version="1.0" encoding="utf-8"?>
<!-- Generator: Adobe Illustrator 25.4.1, SVG Export Plug-In . SVG Version: 6.00 Build 0)  -->
<svg version="1.1" id="Layer_1" xmlns="http://www.w3.org/2000/svg" xmlns:xlink="http://www.w3.org/1999/xlink" x="0px" y="0px"
	 viewBox="0 0 48 48" style="enable-background:new 0 0 48 48;" xml:space="preserve">
<style type="text/css">
	.st0{fill:#FFFFFF;}
</style>
<path class="st0" d="M35.8,30.2v7.6c-0.1,1.6-1.4,3-3.1,3H5c-1.7,0-3-1.3-3-3v-19c0-1.7,1.3-3,3-3h13.4v-1c0-0.6,0.4-1,1-1
	c0.6,0,1,0.4,1,1v4c0,0.5-0.5,1-1,1c-0.6,0-1-0.4-1-1v-1H5c-0.6,0-1,0.4-1,1v19c0,0.6,0.4,1,1,1h27.8c0.6,0,1-0.4,1-1v-7.6
	c0-0.6,0.4-1,1-1C35.4,29.2,35.8,29.6,35.8,30.2z M29.6,23.2c0.6,0,1-0.4,1-1v-11c0-0.6-0.4-1-1-1c-0.6,0-1,0.4-1,1v11
	C28.6,22.8,29,23.2,29.6,23.2z M39.9,10.2c-0.6,0-1,0.4-1,1v11c0,0.6,0.4,1,1,1c0.5,0,1-0.4,1-1v-11C40.9,10.6,40.5,10.2,39.9,10.2z
	 M34.7,26.2c0.6,0,1-0.4,1-1v-17c0-0.6-0.4-1-1-1c-0.6,0-1,0.4-1,1v17C33.7,25.8,34.1,26.2,34.7,26.2z M24.5,24.2c0.6,0,1-0.4,1-1
	v-13c0-0.6-0.4-1-1-1s-1,0.4-1,1v13C23.5,23.8,23.9,24.2,24.5,24.2z M45,13.8c-0.6,0-1,0.4-1,1v4c0,0.6,0.4,1,1,1s1-0.5,1-1v-4
	C46,14.2,45.6,13.8,45,13.8z"/>
</svg>
