<svg id="Layer_1" data-name="Layer 1" xmlns="http://www.w3.org/2000/svg" viewBox="0 0 60 60"><defs><style>.cls-1{fill:none;}.cls-1,.cls-2{stroke:#fff;stroke-linecap:round;stroke-linejoin:round;stroke-width:1.3px;}.cls-2,.cls-3{fill:#fff;}</style></defs><polyline class="cls-1" points="36.28 20.41 39.92 24.05 36.28 27.69"/><polyline class="cls-1" points="30.87 27.69 27.23 24.05 30.87 20.41"/><line class="cls-1" x1="34.47" y1="20.41" x2="32.67" y2="27.69"/><path class="cls-1" d="M20,13.66H43.77a2.16,2.16,0,0,1,2.16,2.16V31.68a2.16,2.16,0,0,1-2.16,2.16H20"/><line class="cls-1" x1="25.12" y1="34.18" x2="25.12" y2="43.12"/><line class="cls-1" x1="31.45" y1="33.88" x2="31.45" y2="39.49"/><circle class="cls-2" cx="31.45" cy="41.51" r="1.64"/><circle class="cls-2" cx="25.12" cy="45.14" r="1.64"/><line class="cls-1" x1="45.93" y1="27.26" x2="54.87" y2="27.26"/><line class="cls-1" x1="46.47" y1="20.92" x2="52.15" y2="20.92"/><circle class="cls-2" cx="54.17" cy="20.92" r="1.64"/><circle class="cls-2" cx="56.89" cy="27.26" r="1.64"/><circle class="cls-1" cx="12" cy="23.75" r="10.53"/><path class="cls-3" d="M12,13.22A10.53,10.53,0,1,0,22.53,23.75,10.52,10.52,0,0,0,12,13.22Zm4.55,11.67h0c-1.48,1-4.46,2.93-6,3.89a1.34,1.34,0,0,1-.76.24,1.4,1.4,0,0,1-.63-.16,1.37,1.37,0,0,1-.7-1.23V19.85a1.39,1.39,0,0,1,.72-1.2,1.32,1.32,0,0,1,1.37.05c1.52,1,4.51,2.94,6,3.89a1.38,1.38,0,0,1,0,2.3Z"/></svg>