<svg width="80" height="80" viewBox="0 0 80 80" fill="none" xmlns="../../../../../www.w3.org/2000/svg.html">
<path opacity="0.5" d="M64.0999 60.5C68.0763 60.5 71.2999 57.2764 71.2999 53.3C71.2999 49.3235 68.0763 46.1 64.0999 46.1C60.1234 46.1 56.8999 49.3235 56.8999 53.3C56.8999 57.2764 60.1234 60.5 64.0999 60.5Z" fill="url(#paint0_linear)"/>
<path opacity="0.6" d="M65.3999 32.5L35.5999 16.7C34.9999 16.4 34.2999 16.4 33.5999 16.7L3.7999 32.5C3.0999 32.8 3.0999 33.8 3.7999 34.1L33.5999 49.9C34.1999 50.2 34.8999 50.2 35.5999 49.9L65.3999 34.1C65.9999 33.8 65.9999 32.8 65.3999 32.5Z" fill="url(#paint1_linear)"/>
<path d="M76.9 32.4L44.6 15.2C44.4 15.1 44.2 15.1 44 15.2L11.8 32.4C11.6 32.5 11.5 32.7 11.5 32.9C11.5 33.1 11.6 33.3 11.8 33.4L20.8 38.2C20.7 38.3 20.7 38.4 20.7 38.5V51.5C20.7 51.7 20.8 51.9 21 52C22 53 28.8 59.8 44.4 59.8C48 59.8 51.4 59.4 54.5 58.7C54.8 58.6 55 58.3 54.9 58C54.8 57.7 54.5 57.5 54.2 57.6C51.2 58.3 47.9 58.7 44.4 58.7C29.7 58.7 23 52.4 21.9 51.3V38.8L44.1 50.6C44.2 50.6 44.3 50.7 44.4 50.7C44.5 50.7 44.6 50.7 44.7 50.6L54.7 45.3C55 45.1 55.1 44.8 54.9 44.5C54.7 44.2 54.4 44.1 54.1 44.3L44.4 49.4L13.4 33L44.4 16.6L75.4 33L60.5 40.9L44.7 32.5C44.4 32.3 44 32.5 43.9 32.8C43.7 33.1 43.9 33.5 44.1 33.6L59.9 41.9V64.3C59.9 64.6 60.2 64.9 60.5 64.9C60.8 64.9 61.1 64.6 61.1 64.3V56.5C65 54.6 67.3 52.6 67.8 52.1C68 52 68.1 51.8 68.1 51.6V38.1L77 33.4C77.2 33.3 77.3 33.1 77.3 32.9C77.3 32.7 77.1 32.5 76.9 32.4ZM66.8 51.2C66.2 51.7 64.3 53.4 61 55.1V41.8L66.8 38.7V51.2Z" fill="white"/>
<defs>
<linearGradient id="paint0_linear" x1="68.7228" y1="50.4473" x2="58.9001" y2="56.4206" gradientUnits="userSpaceOnUse">
<stop stop-color="#FF5898"/>
<stop offset="1" stop-color="#7D33FF"/>
</linearGradient>
<linearGradient id="paint1_linear" x1="58.3518" y1="16.6624" x2="13.6466" y2="48.0021" gradientUnits="userSpaceOnUse">
<stop stop-color="#00EB81"/>
<stop offset="1" stop-color="#3E44FE"/>
</linearGradient>
</defs>
</svg>
