<svg width="61" height="60" viewBox="0 0 61 60" fill="none" xmlns="../../../../../www.w3.org/2000/svg.html">
<path d="M8.33856 22.25H33.7136C34.3386 28.25 39.3386 32.875 45.4636 32.875C51.9636 32.875 57.3386 27.5 57.3386 21C57.3386 14.5 51.9636 9.125 45.4636 9.125C39.3386 9.125 34.3386 13.75 33.7136 19.75H8.33856C6.21356 19.75 4.58856 21.375 4.58856 23.5V47.25C4.58856 49.375 6.21356 51 8.33856 51H42.9636C45.0886 51 46.7136 49.375 46.7136 47.25V37.125C46.7136 36.375 46.2136 35.875 45.4636 35.875C44.7136 35.875 44.2136 36.375 44.2136 37.125V47.25C44.2136 48 43.7136 48.5 42.9636 48.5H8.33856C7.58856 48.5 7.08856 48 7.08856 47.25V23.5C7.08856 22.75 7.58856 22.25 8.33856 22.25ZM45.4636 11.5C50.5886 11.5 54.8386 15.75 54.8386 20.875C54.8386 26 50.5886 30.25 45.4636 30.25C40.3386 30.25 36.0886 26 36.0886 20.875C36.0886 15.75 40.3386 11.5 45.4636 11.5ZM45.4636 26.25C48.4636 26.25 50.8386 23.875 50.8386 21C50.8386 18.125 48.4636 15.75 45.5886 15.75C42.7136 15.75 40.2136 18.125 40.2136 21C40.2136 23.875 42.5886 26.25 45.4636 26.25ZM45.4636 18.125C47.0886 18.125 48.3386 19.375 48.3386 20.875C48.3386 22.375 47.0886 23.625 45.5886 23.625C44.0886 23.625 42.7136 22.375 42.7136 20.875C42.7136 19.375 43.9636 18.125 45.4636 18.125Z" fill="white"/>
</svg>
