<svg width="80" height="80" viewBox="0 0 80 80" fill="none" xmlns="../../../../../www.w3.org/2000/svg.html">
<path opacity="0.55" d="M14.2999 61.2C18.663 61.2 22.1999 57.6631 22.1999 53.3C22.1999 48.937 18.663 45.4 14.2999 45.4C9.93685 45.4 6.3999 48.937 6.3999 53.3C6.3999 57.6631 9.93685 61.2 14.2999 61.2Z" fill="url(#paint0_linear)"/>
<path opacity="0.5" d="M51.2 65.4C63.1846 65.4 72.9 55.6846 72.9 43.7C72.9 31.7154 63.1846 22 51.2 22C39.2154 22 29.5 31.7154 29.5 43.7C29.5 55.6846 39.2154 65.4 51.2 65.4Z" fill="url(#paint1_linear)"/>
<path d="M74.2 63.6V65.4001C74.2 66.6001 72.6 66.9001 72 67C71 67.2001 69.6 67.3001 68.2 67.3001C66.8 67.3001 65.4 67.2001 64.4 67C63.7 66.9001 62.2 66.6001 62.2 65.4001V63.6C62.2 62.1 62.9 60.6 64 59.6C64 59.6 64.9 58.9 65.8 58.3C64.7 57.5 64 56.3001 64 54.9001C64 52.6001 65.9 50.7001 68.2 50.7001C70.5 50.7001 72.4 52.6001 72.4 54.9001C72.4 56.3001 71.7 57.6 70.6 58.3C71.6 58.9 72.3 59.6 72.4 59.6C73.5 60.5 74.2 62 74.2 63.6ZM22.2 59.5C22.2 59.5 21.4 58.8 20.4 58.2001C21.5 57.4001 22.2 56.2001 22.2 54.8C22.2 52.5 20.3 50.6 18 50.6C15.7 50.6 13.8 52.5 13.8 54.8C13.8 56.2001 14.5 57.5 15.6 58.2001C14.7 58.8 13.9 59.5 13.8 59.5C12.6 60.5 12 62 12 63.5V65.3001C12 66.5001 13.6 66.8001 14.2 66.9001C15.2 67.1001 16.6 67.2 18 67.2C19.4 67.2 20.8 67.1001 21.8 66.9001C22.5 66.8001 24 66.5001 24 65.3001V63.5C24 62 23.3 60.5 22.2 59.5ZM39.2 29.1C40.2 29.3 41.6 29.4 43 29.4C44.4 29.4 45.8 29.3 46.8 29.1C47.5 29 49 28.7 49 27.5V25.7C49 24.2 48.3 22.7 47.2 21.7C47.2 21.7 46.4 21 45.4 20.4C46.5 19.6 47.2 18.4 47.2 17C47.2 14.7 45.3 12.8 43 12.8C40.7 12.8 38.8 14.7 38.8 17C38.8 18.4 39.5 19.7 40.6 20.4C39.7 21 38.9 21.7 38.8 21.7C37.6 22.7 37 24.2 37 25.7V27.5C37 28.7 38.5 29 39.2 29.1ZM57.2 56.3L43.7 47.7001V35.7001C43.7 35.4001 43.4 35.1 43.1 35.1C42.8 35.1 42.5 35.4001 42.5 35.7001V47.7001L29 56.3C28.7 56.5 28.6 56.8 28.8 57.1C28.9 57.3 29.1 57.4001 29.3 57.4001C29.4 57.4001 29.5 57.4 29.6 57.3L43 48.8L56.5 57.3C56.6 57.4 56.7 57.4001 56.8 57.4001C57 57.4001 57.2 57.3 57.3 57.1C57.5 56.9 57.5 56.5 57.2 56.3Z" fill="white"/>
<defs>
<linearGradient id="paint0_linear" x1="19.3985" y1="50.1995" x2="8.6076" y2="56.7615" gradientUnits="userSpaceOnUse">
<stop stop-color="#00EB81"/>
<stop offset="1" stop-color="#35C8FF"/>
</linearGradient>
<linearGradient id="paint1_linear" x1="77.3521" y1="28.6122" x2="21.7173" y2="60.7092" gradientUnits="userSpaceOnUse">
<stop stop-color="#FFABCB"/>
<stop offset="1" stop-color="#7D33FF"/>
</linearGradient>
</defs>
</svg>
