<svg id="Layer_1" data-name="Layer 1" xmlns="http://www.w3.org/2000/svg" xmlns:xlink="http://www.w3.org/1999/xlink" viewBox="0 0 60 60"><defs><style>.cls-1{opacity:0.6;fill:url(#linear-gradient);}.cls-2{opacity:0.55;fill:url(#linear-gradient-2);}.cls-3{fill:none;}.cls-3,.cls-4{stroke:#fff;stroke-linecap:round;stroke-linejoin:round;stroke-width:1.3px;}.cls-4,.cls-5{fill:#fff;}</style><linearGradient id="linear-gradient" x1="52.94" y1="33.55" x2="4.41" y2="40.88" gradientUnits="userSpaceOnUse"><stop offset="0" stop-color="#ffabcb"/><stop offset="1" stop-color="#7d33ff"/></linearGradient><linearGradient id="linear-gradient-2" x1="58.28" y1="27.64" x2="52.02" y2="33" gradientUnits="userSpaceOnUse"><stop offset="0" stop-color="#00eb81"/><stop offset="1" stop-color="#35c8ff"/></linearGradient></defs><rect class="cls-1" x="5.94" y="31.02" width="44.21" height="12.59" rx="5.86"/><circle class="cls-2" cx="55.72" cy="29.83" r="3.18"/><path class="cls-3" d="M27.85,25.47a3.75,3.75,0,0,0-7.49,0Z"/><circle class="cls-3" cx="24.1" cy="17.4" r="2"/><path class="cls-4" d="M37.84,25.47a3.74,3.74,0,0,0-7.48,0Z"/><circle class="cls-4" cx="34.1" cy="17.4" r="2"/><path class="cls-3" d="M47.84,25.47a3.74,3.74,0,0,0-7.48,0Z"/><circle class="cls-3" cx="44.1" cy="17.4" r="2"/><rect class="cls-3" x="14.18" y="28.65" width="44.21" height="12.22" rx="5.69"/><path class="cls-5" d="M20.66,34.19l-.55.48-.33-.38.9-.76h.54v2.76h-.56Z"/><path class="cls-5" d="M23,34.52l.1,0h.09a.86.86,0,0,1,.36.07.88.88,0,0,1,.27.19A1,1,0,0,1,24,35a1,1,0,0,1,.06.35,1,1,0,0,1-.08.39.91.91,0,0,1-.55.49,1.29,1.29,0,0,1-.4.07,1.24,1.24,0,0,1-.4-.07,1.06,1.06,0,0,1-.33-.19,1.29,1.29,0,0,1-.22-.3,1,1,0,0,1-.08-.39,1.12,1.12,0,0,1,0-.27,1.55,1.55,0,0,1,.07-.23,1.39,1.39,0,0,1,.11-.21l.12-.21.61-.94h.71Zm.47.85a.41.41,0,0,0-.12-.31.46.46,0,0,0-.64,0,.41.41,0,0,0-.12.31.45.45,0,0,0,.12.31.49.49,0,0,0,.64,0A.45.45,0,0,0,23.43,35.37Z"/><path class="cls-5" d="M25.58,33.53h.83l1.17,1.92h0V33.53h.61v2.76h-.8l-1.2-2h0v2h-.61Z"/><path class="cls-5" d="M30.47,36a1,1,0,0,1-.35.28,1.14,1.14,0,0,1-.45.1,1.41,1.41,0,0,1-.41-.07,1.21,1.21,0,0,1-.33-.2.87.87,0,0,1-.22-.32.91.91,0,0,1-.09-.41,1,1,0,0,1,.09-.41.84.84,0,0,1,.22-.31,1,1,0,0,1,.33-.2,1.14,1.14,0,0,1,.41-.07.87.87,0,0,1,.37.07.72.72,0,0,1,.28.2.87.87,0,0,1,.18.31,1.35,1.35,0,0,1,.06.41v.19H29.21a.4.4,0,0,0,.15.26.41.41,0,0,0,.29.1.48.48,0,0,0,.24-.06.55.55,0,0,0,.17-.17ZM30,35.13a.33.33,0,0,0-.1-.25.35.35,0,0,0-.26-.11.47.47,0,0,0-.17,0,.57.57,0,0,0-.13.08.44.44,0,0,0-.08.11.35.35,0,0,0,0,.14Z"/><path class="cls-5" d="M30.69,34.4h.62l.39,1.18h0L32,34.4h.64L33,35.58h0l.35-1.18H34l-.67,1.89h-.58L32.33,35h0L32,36.29h-.59Z"/><path class="cls-5" d="M35.39,33.53h1a2.46,2.46,0,0,1,.4,0,.94.94,0,0,1,.34.14.67.67,0,0,1,.22.25.86.86,0,0,1,.09.41.92.92,0,0,1-.08.4.71.71,0,0,1-.21.27.88.88,0,0,1-.33.13,1.68,1.68,0,0,1-.4,0H36v1.07h-.6ZM36,34.7h.57a.31.31,0,0,0,.13-.06.32.32,0,0,0,.1-.1.38.38,0,0,0,0-.16.29.29,0,0,0,0-.17.32.32,0,0,0-.13-.1.43.43,0,0,0-.17,0H36Z"/><path class="cls-5" d="M37.7,35.34a.94.94,0,0,1,.08-.41,1,1,0,0,1,.22-.31,1,1,0,0,1,.33-.2,1.16,1.16,0,0,1,.42-.07,1.14,1.14,0,0,1,.41.07.91.91,0,0,1,.33.2,1,1,0,0,1,.23.31,1.11,1.11,0,0,1,.08.41,1.07,1.07,0,0,1-.08.41,1,1,0,0,1-.23.32,1.08,1.08,0,0,1-.33.2,1.27,1.27,0,0,1-.83,0,1.21,1.21,0,0,1-.33-.2,1,1,0,0,1-.22-.32A.91.91,0,0,1,37.7,35.34Zm.58,0a.5.5,0,0,0,.12.35.45.45,0,0,0,.35.13.44.44,0,0,0,.34-.13.5.5,0,0,0,.12-.35.49.49,0,0,0-.12-.34.44.44,0,0,0-.34-.14.45.45,0,0,0-.35.14A.49.49,0,0,0,38.28,35.34Z"/><path class="cls-5" d="M41.21,35a.44.44,0,0,0-.34-.16.33.33,0,0,0-.14,0,.11.11,0,0,0-.07.12.1.1,0,0,0,.07.1.48.48,0,0,0,.18.06l.24.06a1.17,1.17,0,0,1,.24.09.58.58,0,0,1,.18.17.47.47,0,0,1,.07.28.45.45,0,0,1-.08.3.64.64,0,0,1-.2.2,1.16,1.16,0,0,1-.28.1l-.31,0a1.39,1.39,0,0,1-.4-.06.69.69,0,0,1-.34-.2l.35-.39a1.19,1.19,0,0,0,.18.15.59.59,0,0,0,.23,0,.58.58,0,0,0,.19,0,.11.11,0,0,0,.08-.1.13.13,0,0,0-.07-.12l-.19-.06-.23,0a.85.85,0,0,1-.24-.09.37.37,0,0,1-.18-.17.47.47,0,0,1-.08-.28.65.65,0,0,1,.07-.29.7.7,0,0,1,.18-.2.68.68,0,0,1,.26-.11.92.92,0,0,1,.29,0,1.73,1.73,0,0,1,.38,0,.83.83,0,0,1,.32.2Z"/><path class="cls-5" d="M43.23,34.86h-.51v.64a.66.66,0,0,0,0,.14.2.2,0,0,0,0,.11.27.27,0,0,0,.08.07.33.33,0,0,0,.15,0h.13a.23.23,0,0,0,.11-.05v.49a.65.65,0,0,1-.2,0l-.21,0a.77.77,0,0,1-.27,0,.73.73,0,0,1-.22-.09.49.49,0,0,1-.14-.18.54.54,0,0,1-.06-.27v-.9h-.37V34.4h.37v-.56h.59v.56h.51Z"/><path class="cls-5" d="M44.6,35a.44.44,0,0,0-.34-.16.42.42,0,0,0-.15,0A.13.13,0,0,0,44,35a.11.11,0,0,0,.08.1.42.42,0,0,0,.18.06l.24.06a.92.92,0,0,1,.23.09.52.52,0,0,1,.19.17.47.47,0,0,1,.07.28A.51.51,0,0,1,45,36a.64.64,0,0,1-.2.2,1.24,1.24,0,0,1-.29.1l-.3,0a1.39,1.39,0,0,1-.4-.06.77.77,0,0,1-.35-.2l.36-.39a.65.65,0,0,0,.18.15.56.56,0,0,0,.23,0,.48.48,0,0,0,.18,0c.06,0,.09,0,.09-.1a.14.14,0,0,0-.08-.12l-.18-.06-.24,0a.92.92,0,0,1-.23-.09.44.44,0,0,1-.19-.17.47.47,0,0,1-.07-.28.54.54,0,0,1,.07-.29.49.49,0,0,1,.18-.2.71.71,0,0,1,.25-.11,1,1,0,0,1,.29,0,1.65,1.65,0,0,1,.38,0,.79.79,0,0,1,.33.2Z"/><path class="cls-3" d="M14.18,34.76h0a6.11,6.11,0,0,1,6.11-6.11H7.2a6.1,6.1,0,0,0-6.1,6.11h0a6.11,6.11,0,0,0,6.1,6.11H20.29A6.12,6.12,0,0,1,14.18,34.76Z"/><path class="cls-5" d="M7.21,40.37a5.61,5.61,0,0,1,0-11.22H16.8a6.6,6.6,0,0,0,0,11.22ZM4.5,36.26a1.1,1.1,0,0,0,0,.18V37.8a.86.86,0,0,0,.86.86.85.85,0,0,0,.79-.54,3.67,3.67,0,0,0,5.12-3.36,3.77,3.77,0,0,0-.15-1.06.89.89,0,0,0-.42-.51.41.41,0,0,0,0-.12V31.71a.85.85,0,0,0-.85-.85.87.87,0,0,0-.8.53,3.72,3.72,0,0,0-1.45-.3,3.68,3.68,0,0,0-3.67,3.67,3.42,3.42,0,0,0,.13,1A.81.81,0,0,0,4.5,36.26Zm3.05.46a.86.86,0,0,0,0-.28.85.85,0,0,0-.85-.85h-1a.85.85,0,0,0,0-.32,1.79,1.79,0,0,1-.07-.51,2,2,0,0,1,2-2h0a.84.84,0,0,0,.81,1.13h1a1.15,1.15,0,0,0,0,.26,1.88,1.88,0,0,1,.09.57,2,2,0,0,1-2,2Z"/><path class="cls-5" d="M15.35,29.65a7.1,7.1,0,0,0,0,10.22H7.2a5.11,5.11,0,0,1,0-10.22h8.15m-6.5,1.14a4.1,4.1,0,0,0-1.26-.2,4.17,4.17,0,0,0-4.17,4.17,3.91,3.91,0,0,0,.15,1.08,1.36,1.36,0,0,0,.41.67v1.3a1.36,1.36,0,0,0,1.36,1.35,1.37,1.37,0,0,0,1-.43,4,4,0,0,0,1.26.19,4.16,4.16,0,0,0,4.16-4.16,4.4,4.4,0,0,0-.17-1.2,1.31,1.31,0,0,0-.39-.61V31.71a1.35,1.35,0,0,0-1.35-1.35,1.34,1.34,0,0,0-1,.43M7.12,33.38a1.36,1.36,0,0,0,1.32,1H9a1.86,1.86,0,0,1,0,.33,1.47,1.47,0,0,1-1,1.38,1.36,1.36,0,0,0-1.32-1H6.17a1.24,1.24,0,0,1,0-.33,1.45,1.45,0,0,1,1-1.38m13.17-4.73H7.2a6.1,6.1,0,0,0-6.1,6.11h0a6.11,6.11,0,0,0,6.1,6.11H20.29a6.12,6.12,0,0,1-6.11-6.11h0a6.11,6.11,0,0,1,6.11-6.11ZM9.48,32.23v-.52a.36.36,0,0,1,.71,0v1.36a.36.36,0,0,1-.35.36H8.44a.36.36,0,1,1,0-.71H9a2.46,2.46,0,0,0-3.83,2,2.74,2.74,0,0,0,.08.64.34.34,0,0,1-.24.43l-.1,0a.36.36,0,0,1-.34-.27,3.16,3.16,0,0,1,3.06-4,3.1,3.1,0,0,1,1.89.64Zm-1.89,5a2.44,2.44,0,0,0,2.35-3.17.35.35,0,0,1,.24-.44l.1,0a.36.36,0,0,1,.34.25,3.18,3.18,0,0,1-3,4.08,3.12,3.12,0,0,1-1.9-.63v.52a.36.36,0,0,1-.71,0V36.44a.36.36,0,0,1,.36-.35h1.4a.36.36,0,0,1,0,.71H6.21a2.47,2.47,0,0,0,1.38.42Z"/></svg>