<svg xmlns="http://www.w3.org/2000/svg" viewBox="0 0 48 48"><defs><style>.cls-1,.cls-2,.cls-3{fill:none;}.cls-1,.cls-2{stroke:#fff;stroke-linejoin:round;stroke-width:2px;}.cls-2{stroke-linecap:round;}</style></defs><g id="Pages_-_Camera_02_-_HD" data-name="Pages - Camera 02 - HD"><path class="cls-1" d="M26.92,23.7c0,3.42-3.48,3.55-4,3.55H20.32V20.18h2.56C23.37,20.18,26.92,20.17,26.92,23.7Z"/><line class="cls-1" x1="10" y1="23.55" x2="16.05" y2="23.55"/><line class="cls-2" x1="10" y1="27.24" x2="10" y2="20.19"/><line class="cls-2" x1="16.05" y1="27.24" x2="16.05" y2="20.19"/><path class="cls-1" d="M43.78,15.62c.64-.21,1.22-.11,1.22,1.2V31.18c0,1.34-.58,1.4-1.22,1.2-2.59-.85-10-3.25-10-3.25v5.66a2,2,0,0,1-2,2H5a2,2,0,0,1-2-2V13.21a2,2,0,0,1,2-2H31.75a2,2,0,0,1,2,2v5.66S41.3,16.44,43.78,15.62Z"/><rect class="cls-3" width="48" height="48"/></g></svg>