<svg id="Layer_1" data-name="Layer 1" xmlns="http://www.w3.org/2000/svg" viewBox="0 0 60 60"><defs><style>.cls-1{fill:none;}.cls-1,.cls-2{stroke:#fff;stroke-linecap:round;stroke-linejoin:round;stroke-width:1.3px;}.cls-2,.cls-3{fill:#fff;}</style></defs><circle class="cls-1" cx="47.21" cy="19.34" r="1.84"/><path class="cls-2" d="M47.45,6.48c.27-.09.52-.05.52.53V13.3c0,.59-.25.62-.52.53l-4.29-1.42v2.48a.87.87,0,0,1-.86.86H30.86a.87.87,0,0,1-.86-.86V5.43a.86.86,0,0,1,.86-.86H42.3a.86.86,0,0,1,.86.86V7.91Z"/><rect class="cls-2" x="31.26" y="25.25" width="2.6" height="5.67" rx="1.14"/><rect class="cls-2" x="21.03" y="28.92" width="2.6" height="5.67" rx="1.14"/><line class="cls-1" x1="17.21" y1="28.9" x2="17.21" y2="32.89"/><line class="cls-1" x1="27.44" y1="25.41" x2="27.44" y2="36.39"/><line class="cls-1" x1="37.68" y1="25.41" x2="37.68" y2="36.39"/><line class="cls-1" x1="32.56" y1="22.41" x2="32.56" y2="39.38"/><line class="cls-1" x1="22.32" y1="24.41" x2="22.32" y2="37.39"/><line class="cls-1" x1="42.79" y1="28.9" x2="42.79" y2="32.89"/><path class="cls-1" d="M18.08,47.87A20.74,20.74,0,0,1,30,10.16"/><path class="cls-1" d="M48.18,20.91A20.75,20.75,0,0,1,30,51.64"/><circle class="cls-1" cx="24.24" cy="48.54" r="6.9"/><path class="cls-3" d="M24.24,41.64a6.9,6.9,0,1,0,6.9,6.9A6.9,6.9,0,0,0,24.24,41.64Zm3.37,8.61A1.64,1.64,0,1,1,26,48.61a1.32,1.32,0,0,1,.34,0V46.26l-2.95.67v4.28a1.64,1.64,0,1,1-1.64-1.64,1.32,1.32,0,0,1,.34,0v-3.2a.64.64,0,0,1,.5-.63l4.25-1a.63.63,0,0,1,.55.12.65.65,0,0,1,.25.51Z"/></svg>