<svg id="Layer_1" data-name="Layer 1" xmlns="http://www.w3.org/2000/svg" xmlns:xlink="http://www.w3.org/1999/xlink" viewBox="0 0 60 60"><defs><style>.cls-1,.cls-2{opacity:0.6;}.cls-1{fill:url(#linear-gradient);}.cls-2{fill:url(#linear-gradient-2);}.cls-3,.cls-5{fill:#fff;}.cls-3,.cls-4{stroke:#fff;stroke-linecap:round;stroke-linejoin:round;stroke-width:1.3px;}.cls-4{fill:none;}</style><linearGradient id="linear-gradient" x1="47.28" y1="20.03" x2="6.37" y2="44.78" gradientUnits="userSpaceOnUse"><stop offset="0" stop-color="#35c8ff"/><stop offset="1" stop-color="#3e44fe"/></linearGradient><linearGradient id="linear-gradient-2" x1="58.5" y1="19.22" x2="48.88" y2="27.46" gradientUnits="userSpaceOnUse"><stop offset="0" stop-color="#00eb81"/><stop offset="1" stop-color="#3e44fe"/></linearGradient></defs><rect class="cls-1" x="8.68" y="18.15" width="39.45" height="26.59" rx="9.23"/><circle class="cls-2" cx="54.57" cy="22.59" r="4.9"/><path class="cls-3" d="M13.16,44.18a5.86,5.86,0,0,0-11.72,0Z"/><circle class="cls-3" cx="7.3" cy="33.1" r="3.14"/><path class="cls-4" d="M50.6,42.47H19.78a4,4,0,0,1-4-4V29.65l-3.15.88a.53.53,0,0,1-.3-.89l3.45-3.54V19.22a4,4,0,0,1,4-4H50.6a4,4,0,0,1,4,4V38.5A4,4,0,0,1,50.6,42.47Z"/><path class="cls-5" d="M48.28,19.45A2.72,2.72,0,0,1,51,22.16v7.72a2.72,2.72,0,0,1-2.71,2.71H22.11a2.71,2.71,0,0,1-2.71-2.71V22.16a2.71,2.71,0,0,1,2.71-2.71H48.28m0-1.3H22.11a4,4,0,0,0-4,4v7.72a4,4,0,0,0,4,4H48.28a4,4,0,0,0,4-4V22.16a4,4,0,0,0-4-4Z"/><line class="cls-4" x1="19.51" y1="37.38" x2="32.84" y2="37.38"/><line class="cls-4" x1="19.51" y1="39.55" x2="37.65" y2="39.55"/><polygon class="cls-3" points="38.38 25.65 35.19 27.49 32 29.33 32 25.65 32 21.96 35.19 23.8 38.38 25.65"/></svg>