<svg id="Product_-_Call_Recording_API" data-name="Product - Call Recording API" xmlns="http://www.w3.org/2000/svg" viewBox="0 0 48 48"><defs><style>.cls-1{fill:none;stroke-width:2px;}.cls-1,.cls-2{stroke:#fff;stroke-linecap:round;stroke-linejoin:round;}.cls-2,.cls-3{fill:#fff;}.cls-2{stroke-width:1.3px;}</style></defs><path class="cls-1" d="M42.82,34.46A13.25,13.25,0,0,1,32.3,39.63l-7.47,6.62-.06-6.62H14.85a13.27,13.27,0,1,1,0-26.53H25"/><path class="cls-2" d="M46.42,31.7a12.35,12.35,0,0,0-24.69,0Z"/><circle class="cls-2" cx="34.07" cy="8.37" r="6.61"/><circle class="cls-1" cx="13.76" cy="26.58" r="5.12"/><path class="cls-3" d="M13.76,21.46a5.12,5.12,0,1,0,5.11,5.12A5.12,5.12,0,0,0,13.76,21.46Zm3,4.25-3.2,3.2a.77.77,0,0,1-1.1,0L10.8,27.29a.77.77,0,0,1,1.09-1.1L13,27.27l2.65-2.65a.78.78,0,0,1,1.1,0A.77.77,0,0,1,16.72,25.71Z"/></svg>