<svg id="Layer_1" data-name="Layer 1" xmlns="http://www.w3.org/2000/svg" xmlns:xlink="http://www.w3.org/1999/xlink" viewBox="0 0 80 80"><defs><style>.cls-1{opacity:0.5;fill:url(#linear-gradient);}.cls-2{opacity:0.55;fill:url(#linear-gradient-2);}.cls-3{fill:none;}.cls-3,.cls-4{stroke:#fff;stroke-linecap:round;stroke-linejoin:round;stroke-width:1.3px;}.cls-4{fill:#231f20;}.cls-5{fill:#fff;}</style><linearGradient id="linear-gradient" x1="49.39" y1="24.02" x2="0.65" y2="65.76" gradientUnits="userSpaceOnUse"><stop offset="0" stop-color="#ff5898"/><stop offset="1" stop-color="#7d33ff"/></linearGradient><linearGradient id="linear-gradient-2" x1="74.04" y1="44" x2="61.15" y2="55.03" gradientUnits="userSpaceOnUse"><stop offset="0" stop-color="#35c8ff"/><stop offset="1" stop-color="#3e44fe"/></linearGradient></defs><circle class="cls-1" cx="29.46" cy="41.09" r="24.79"/><circle class="cls-2" cx="68.77" cy="48.51" r="6.56"/><path class="cls-3" d="M48.51,45.13A11.51,11.51,0,0,1,37.07,55.42l-6.49,5.73,0-5.73h-8.6a11.51,11.51,0,1,1,0-23h3.92"/><path class="cls-3" d="M56.14,19.07a11.51,11.51,0,1,1,0,23l.13,5.74L49.6,42.08H41a11.51,11.51,0,0,1,0-23Z"/><polyline class="cls-3" points="7.37 23.14 7.37 13.73 16.64 13.73"/><polyline class="cls-3" points="16.79 66.27 7.37 66.27 7.37 57.01"/><polyline class="cls-3" points="70.7 23.14 70.7 13.73 61.43 13.73"/><polyline class="cls-3" points="61.28 66.27 70.7 66.27 70.7 57.01"/><line class="cls-4" x1="20.38" y1="42.44" x2="31.64" y2="42.44"/><line class="cls-4" x1="20.38" y1="46.61" x2="35.72" y2="46.61"/><path class="cls-5" d="M67.65,30.58A11.51,11.51,0,0,0,56.14,19.07H41a11.51,11.51,0,0,0,0,23h8.6l6.67,5.74-.13-5.74A11.51,11.51,0,0,0,67.65,30.58ZM57.32,33.67H39.82a.72.72,0,0,1,0-1.44h17.5a.72.72,0,1,1,0,1.44Zm0-4.17H39.82a.72.72,0,0,1,0-1.44h17.5a.72.72,0,0,1,0,1.44Z"/></svg>