<svg id="Layer_1" data-name="Layer 1" xmlns="http://www.w3.org/2000/svg" viewBox="0 0 60 60"><defs><style>.cls-1{fill:none;stroke:#fff;stroke-linecap:round;stroke-linejoin:round;stroke-width:1.3px;}</style></defs><rect class="cls-1" x="11.77" y="16.84" width="36.46" height="35.07" rx="3.02"/><path class="cls-1" d="M11.77,21.66v-6a3,3,0,0,1,3-3H45.21a3,3,0,0,1,3,3v6"/><path class="cls-1" d="M11.77,17.14v-6a3,3,0,0,1,3-3H45.21a3,3,0,0,1,3,3v6"/><polyline class="cls-1" points="32.6 30.87 36.1 34.38 32.6 37.88"/><polyline class="cls-1" points="27.4 37.88 23.9 34.38 27.4 30.87"/><line class="cls-1" x1="30.87" y1="30.87" x2="29.13" y2="37.88"/><polyline class="cls-1" points="40.87 27.69 40 30.16 37.54 29.29"/><path class="cls-1" d="M40,30.15a10.86,10.86,0,0,0-20.86,4.23"/><polyline class="cls-1" points="19.13 41.06 20 38.6 22.46 39.47"/><path class="cls-1" d="M20,38.61a10.86,10.86,0,0,0,20.86-4.23"/></svg>