<svg id="Layer_1" data-name="Layer 1" xmlns="http://www.w3.org/2000/svg" xmlns:xlink="http://www.w3.org/1999/xlink" viewBox="0 0 60 60"><defs><style>.cls-1,.cls-5{fill:#fff;}.cls-1{opacity:0.2;}.cls-2{opacity:0.55;fill:url(#linear-gradient);}.cls-3{opacity:0.6;fill:url(#linear-gradient-2);}.cls-4,.cls-6{fill:none;stroke:#fff;}.cls-4{stroke-linecap:round;stroke-linejoin:round;stroke-width:1.3px;}.cls-6{stroke-miterlimit:10;}</style><linearGradient id="linear-gradient" x1="57" y1="32.91" x2="0.66" y2="41.42" gradientUnits="userSpaceOnUse"><stop offset="0" stop-color="#00eb81"/><stop offset="1" stop-color="#35c8ff"/></linearGradient><linearGradient id="linear-gradient-2" x1="38.97" y1="15.91" x2="24.78" y2="28.06" gradientUnits="userSpaceOnUse"><stop offset="0" stop-color="#35c8ff"/><stop offset="1" stop-color="#3e44fe"/></linearGradient></defs><rect class="cls-1" x="2.5" y="31.02" width="51.22" height="12.51" rx="5.24"/><circle class="cls-1" cx="33.17" cy="20.88" r="7.22"/><rect class="cls-2" x="2.5" y="31.02" width="51.22" height="12.51" rx="5.24"/><circle class="cls-3" cx="33.17" cy="20.88" r="7.22"/><rect class="cls-4" x="11.07" y="12.58" width="39.32" height="11.57" rx="4.85"/><path class="cls-5" d="M20,20.87a4.39,4.39,0,0,0-1.56-.81,2.64,2.64,0,1,0-2.37,0,4.39,4.39,0,0,0-1.56.81,3.59,3.59,0,0,1-.89-2.37,3.64,3.64,0,1,1,7.27,0A3.59,3.59,0,0,1,20,20.87Z"/><path class="cls-5" d="M20.13,19.3a3.06,3.06,0,0,1-.28.67l-.14-.08a3.51,3.51,0,0,0,.42-.59m-5.75,0a3.51,3.51,0,0,0,.42.59l-.14.08a3.06,3.06,0,0,1-.28-.67m2.88-5.09a4.29,4.29,0,0,0-2.76,7.57,3.7,3.7,0,0,1,5.51,0,4.29,4.29,0,0,0-2.75-7.57Zm0,5.49a2,2,0,1,1,2-2,2,2,0,0,1-2,2Z"/><rect class="cls-4" x="19.94" y="24.23" width="39.32" height="11.57" rx="4.85"/><rect class="cls-4" x="3.39" y="35.85" width="39.32" height="11.57" rx="4.85"/><path class="cls-5" d="M6.76,44.15a3.63,3.63,0,1,1,5.5,0,4.52,4.52,0,0,0-1.57-.81,2.64,2.64,0,1,0-2.37,0A4.39,4.39,0,0,0,6.76,44.15Z"/><path class="cls-5" d="M12.38,42.58a2.8,2.8,0,0,1-.28.67L12,43.17a3.51,3.51,0,0,0,.42-.59m-5.75,0a3.51,3.51,0,0,0,.42.59l-.14.08a3.27,3.27,0,0,1-.28-.67m2.88-5.09a4.28,4.28,0,0,0-2.76,7.56,3.71,3.71,0,0,1,5.52,0,4.29,4.29,0,0,0-2.76-7.56Zm0,5.48a2,2,0,1,1,2-2,2,2,0,0,1-2,2Z"/><path class="cls-4" d="M14.08,30A10.14,10.14,0,0,1,3.93,19.83h0"/><path class="cls-5" d="M4.23,17a.68.68,0,0,0-.6,0l-.81.43.16-.9A.69.69,0,0,0,2.79,16l-.65-.63.9-.13a.67.67,0,0,0,.49-.36l.4-.81.4.81a.67.67,0,0,0,.49.36l.9.13L5.07,16a.65.65,0,0,0-.18.58l.15.9Z"/><path class="cls-5" d="M3.93,15.42a1.25,1.25,0,0,0,.49.36,1.25,1.25,0,0,0-.19.56,1.51,1.51,0,0,0-.6,0,1.37,1.37,0,0,0-.18-.56,1.29,1.29,0,0,0,.48-.36m0-2.84-1,2-2.2.32,1.6,1.55L2,18.65l2-1,2,1-.37-2.2L7.12,14.9l-2.2-.32-1-2Z"/><line class="cls-4" x1="24.36" y1="16.97" x2="33.82" y2="16.97"/><line class="cls-4" x1="24.36" y1="19.75" x2="41.04" y2="19.75"/><path class="cls-6" d="M25.83,25.35a4.71,4.71,0,0,0-3,8.32.42.42,0,0,0,.28.1.45.45,0,0,0,.32-.14,3.28,3.28,0,0,1,4.88,0,.42.42,0,0,0,.59,0,4.71,4.71,0,0,0-3-8.32Zm0,5.49a1.57,1.57,0,1,1,1.56-1.56A1.56,1.56,0,0,1,25.83,30.84Z"/><path class="cls-5" d="M25.83,30.34a1.07,1.07,0,1,1,1.06-1.07A1.06,1.06,0,0,1,25.83,30.34Z"/><path class="cls-5" d="M25.83,28.71a.57.57,0,1,1-.56.57.57.57,0,0,1,.56-.57m0-1a1.57,1.57,0,1,0,1.56,1.57,1.56,1.56,0,0,0-1.56-1.57Z"/><path class="cls-5" d="M25.62,35.3a5.19,5.19,0,0,1-5.18-5.18v-.21a5.19,5.19,0,0,1,5.18-5.18h28a5.19,5.19,0,0,1,5.18,5.18v.21a5.18,5.18,0,0,1-5.18,5.18Zm.21-10.45a5.21,5.21,0,0,0-3.36,9.2.94.94,0,0,0,.6.22,1,1,0,0,0,.69-.3,2.77,2.77,0,0,1,4.14,0,.92.92,0,0,0,.68.3.94.94,0,0,0,.6-.22,5.21,5.21,0,0,0-3.35-9.2Zm7.58,5.91a.93.93,0,1,0,0,1.85H50.09a.93.93,0,1,0,0-1.85Zm0-2.78a.93.93,0,0,0,0,1.86h9.46a.93.93,0,0,0,0-1.86Z"/><path class="cls-5" d="M53.58,25.23a4.69,4.69,0,0,1,4.68,4.68v.21a4.69,4.69,0,0,1-4.68,4.68h-28a4.54,4.54,0,0,1-1.69-.32,1.12,1.12,0,0,0,.2-.18,2.29,2.29,0,0,1,1.7-.76,2.32,2.32,0,0,1,1.7.76,1.42,1.42,0,0,0,1.06.47,1.39,1.39,0,0,0,.91-.34,5.7,5.7,0,0,0-.63-9.2H53.58M33.07,30.3a1.42,1.42,0,0,0,.34,2.81H50.09a1.43,1.43,0,1,0,0-2.85H43.34a1.45,1.45,0,0,0,1-1.35,1.43,1.43,0,0,0-1.43-1.43H33.41A1.43,1.43,0,0,0,32,28.91a1.45,1.45,0,0,0,1.09,1.39m20.51-6.07h-28a5.69,5.69,0,0,0-5.68,5.68v.21a5.68,5.68,0,0,0,5.68,5.68h28a5.68,5.68,0,0,0,5.68-5.68v-.21a5.68,5.68,0,0,0-5.68-5.68ZM23.07,33.77a.42.42,0,0,1-.28-.1,4.72,4.72,0,1,1,6.07,0,.41.41,0,0,1-.27.1.43.43,0,0,1-.32-.14,3.28,3.28,0,0,0-4.88,0,.45.45,0,0,1-.32.14Zm10.34-4.44a.43.43,0,1,1,0-.85h9.46a.43.43,0,1,1,0,.85Zm0,2.78a.43.43,0,1,1,0-.85H50.09a.43.43,0,1,1,0,.85Z"/><line class="cls-4" x1="16.72" y1="40.78" x2="26.18" y2="40.78"/><line class="cls-4" x1="16.72" y1="43.55" x2="33.41" y2="43.55"/></svg>