<svg id="Layer_1" data-name="Layer 1" xmlns="http://www.w3.org/2000/svg" xmlns:xlink="http://www.w3.org/1999/xlink" viewBox="0 0 80 80"><defs><style>.cls-1{opacity:0.55;fill:url(#linear-gradient);}.cls-2{opacity:0.5;fill:url(#linear-gradient-2);}.cls-3{fill:none;}.cls-3,.cls-4{stroke:#fff;stroke-linecap:round;stroke-linejoin:round;stroke-width:1.3px;}.cls-4{fill:#fff;}</style><linearGradient id="linear-gradient" x1="73.44" y1="19.85" x2="57.47" y2="33.53" gradientUnits="userSpaceOnUse"><stop offset="0" stop-color="#00eb81"/><stop offset="1" stop-color="#35c8ff"/></linearGradient><linearGradient id="linear-gradient-2" x1="50.82" y1="21.57" x2="0.84" y2="64.37" gradientUnits="userSpaceOnUse"><stop offset="0" stop-color="#ff5898"/><stop offset="1" stop-color="#7d33ff"/></linearGradient></defs><circle class="cls-1" cx="66.91" cy="25.44" r="8.13"/><circle class="cls-2" cx="30.39" cy="39.07" r="25.43"/><polygon class="cls-3" points="31.63 19.58 32.29 23.62 35.99 25.36 32.36 27.24 31.85 31.3 28.94 28.42 24.92 29.19 26.75 25.53 24.78 21.95 28.83 22.57 31.63 19.58"/><path class="cls-3" d="M44.38,27.22a11.33,11.33,0,1,1,9.48,12.92"/><path class="cls-4" d="M53.9,40.16,27,57.11a1,1,0,0,1-1.24-.33L20.05,49a.94.94,0,0,1,.05-1.28L44.38,27.18Z"/><path class="cls-3" d="M23.89,55.86l-1.81,1.33a3,3,0,0,1-4.14-.64h0a3,3,0,0,1,.63-4.15l1.81-1.32"/><path class="cls-3" d="M17.91,56.51,16,57.92a3.25,3.25,0,0,0-.7,4.53h0"/><line class="cls-3" x1="47.44" y1="21.06" x2="60.66" y2="39.07"/><circle class="cls-4" cx="43.26" cy="48.9" r="1.82"/><line class="cls-4" x1="43.26" y1="48.9" x2="43.26" y2="54.42"/><rect class="cls-4" x="41.96" y="53.91" width="2.6" height="15.35"/><path class="cls-3" d="M38.56,61.49a25.37,25.37,0,0,1-9.06-2.55"/><path class="cls-3" d="M66,39.61A25.46,25.46,0,0,1,48.34,60.44"/><path class="cls-3" d="M17.36,46A25.42,25.42,0,0,1,53.69,14.26"/></svg>