<svg xmlns="http://www.w3.org/2000/svg" viewBox="0 0 48 48"><defs><style>.cls-1,.cls-2{fill:none;}.cls-1{stroke:#fff;stroke-linecap:round;stroke-linejoin:round;stroke-width:2px;}</style></defs><g id="Pages_Sibilance_Reduction" data-name="Pages – Sibilance Reduction"><path class="cls-1" d="M4.41,33.71a9.21,9.21,0,0,0,6.92,3c4.5,0,7.19-2.76,7.19-6.18s-3-5.59-7.08-6.9-6.8-3.12-6.8-6.32a6.54,6.54,0,0,1,6.8-6.1c4.25,0,6,2.3,6,2.3"/><path class="cls-1" d="M24,30.48a6.15,6.15,0,0,0,4.61,2c3,0,4.8-1.84,4.8-4.12s-2-3.73-4.72-4.6-4.53-2.08-4.53-4.21A4.35,4.35,0,0,1,28.7,15.5a5,5,0,0,1,4,1.53"/><path class="cls-1" d="M38.84,27.27a3.1,3.1,0,0,0,2.33,1,2.16,2.16,0,0,0,2.42-2.08c0-1.15-1-1.88-2.38-2.32s-2.29-1.05-2.29-2.13a2.19,2.19,0,0,1,2.29-2.05,2.51,2.51,0,0,1,2,.77"/><rect class="cls-2" width="48" height="48"/></g></svg>