<svg id="Layer_1" data-name="Layer 1" xmlns="http://www.w3.org/2000/svg" viewBox="0 0 60 60"><defs><style>.cls-1{fill:none;}.cls-1,.cls-3{stroke:#fff;stroke-linecap:round;stroke-linejoin:round;stroke-width:1.3px;}.cls-2,.cls-3{fill:#fff;}</style></defs><circle class="cls-1" cx="14.03" cy="30" r="9.84"/><path class="cls-2" d="M14,20.16A9.84,9.84,0,1,0,23.86,30,9.85,9.85,0,0,0,14,20.16Zm4.25,10.91h0L12.73,34.7a1.29,1.29,0,0,1-.72.22,1.19,1.19,0,0,1-.58-.15,1.26,1.26,0,0,1-.66-1.15V26.36a1.27,1.27,0,0,1,.68-1.12,1.25,1.25,0,0,1,1.28,0c1.41.92,4.21,2.75,5.55,3.64A1.26,1.26,0,0,1,18.86,30,1.29,1.29,0,0,1,18.28,31.07Z"/><path class="cls-1" d="M30.21,15.83a3,3,0,0,0,2.91,3.06h11.3A3.77,3.77,0,0,0,48.09,15a3.77,3.77,0,0,0-3.67-3.86,3.53,3.53,0,0,0-2.13.72A4.38,4.38,0,0,0,38.48,9.6,4.45,4.45,0,0,0,34.23,13a2.76,2.76,0,0,0-1.11-.23A2.93,2.93,0,0,0,30.31,15,3.08,3.08,0,0,0,30.21,15.83Z"/><rect class="cls-1" x="26.97" y="6.32" width="24.35" height="16.08" rx="2.95"/><path class="cls-1" d="M30.21,47.1a3,3,0,0,0,2.91,3.06h11.3a3.86,3.86,0,0,0,0-7.72,3.53,3.53,0,0,0-2.13.72,4.38,4.38,0,0,0-3.81-2.29,4.45,4.45,0,0,0-4.25,3.4A2.76,2.76,0,0,0,33.12,44a2.93,2.93,0,0,0-2.81,2.26A3.08,3.08,0,0,0,30.21,47.1Z"/><rect class="cls-1" x="26.97" y="37.59" width="24.35" height="16.08" rx="2.95"/><path class="cls-3" d="M34.69,31.47a3,3,0,0,0,2.91,3.06H48.9a3.86,3.86,0,0,0,0-7.72,3.55,3.55,0,0,0-2.13.72,4.35,4.35,0,0,0-3.8-2.3,4.47,4.47,0,0,0-4.26,3.4,2.9,2.9,0,0,0-1.11-.23,3,3,0,0,0-2.81,2.27A3.44,3.44,0,0,0,34.69,31.47Z"/><line class="cls-1" x1="31.45" y1="35.71" x2="31.45" y2="24.2"/><path class="cls-1" d="M52.82,22h.85a2.14,2.14,0,0,1,2.14,2.14V35.9A2.14,2.14,0,0,1,53.67,38h-.85"/></svg>