<svg xmlns="http://www.w3.org/2000/svg" viewBox="0 0 48 48"><defs><style>.cls-1,.cls-2,.cls-3{fill:none;}.cls-1,.cls-2{stroke:#fff;stroke-width:2px;}.cls-1{stroke-linecap:round;stroke-linejoin:round;}.cls-2{stroke-miterlimit:10;}</style></defs><g id="Pages_Real-time_Replay" data-name="Pages – Real-time Replay"><polyline class="cls-1" points="16.16 11.63 11.16 11.63 11.16 6.63"/><path class="cls-1" d="M11.57,11A18,18,0,0,1,40,32.25"/><polyline class="cls-1" points="31.84 36.37 36.84 36.37 36.84 41.37"/><path class="cls-1" d="M36.43,37A18,18,0,0,1,8,15.75"/><path id="_Path_" data-name="&lt;Path&gt;" class="cls-2" d="M24,13A11,11,0,1,0,35,24,11,11,0,0,0,24,13Z"/><path class="cls-2" d="M28.15,24.63l-5.74,3.75a.73.73,0,0,1-1.14-.64v-7.5a.76.76,0,0,1,1.14-.64l5.74,3.75A.78.78,0,0,1,28.15,24.63Z"/><rect class="cls-3" width="48" height="48"/></g></svg>