<?xml version="1.0" encoding="utf-8"?>
<!-- Generator: Adobe Illustrator 25.4.1, SVG Export Plug-In . SVG Version: 6.00 Build 0)  -->
<svg version="1.1" id="Layer_1" xmlns="http://www.w3.org/2000/svg" xmlns:xlink="http://www.w3.org/1999/xlink" x="0px" y="0px"
	 viewBox="0 0 48 48" style="enable-background:new 0 0 48 48;" xml:space="preserve">
<style type="text/css">
	.st0{fill:#FFFFFF;}
</style>
<path class="st0" d="M40.5,23.7V16c0-0.6-0.4-1-1-1s-1,0.4-1,1v7.7C37.1,24.1,36,25.4,36,27v4c0,1.6,1.1,2.9,2.5,3.3V42
	c0,0.6,0.4,1,1,1s1-0.4,1-1v-7.7c1.4-0.4,2.5-1.8,2.5-3.3v-4C43,25.4,41.9,24.1,40.5,23.7z M41,31c0,0.8-0.7,1.5-1.5,1.5
	S38,31.8,38,31v-4c0-0.8,0.7-1.5,1.5-1.5S41,26.2,41,27V31z M39.5,12c1.9,0,3.5-1.6,3.5-3.5S41.4,5,39.5,5S36,6.6,36,8.5
	S37.6,12,39.5,12z M39.5,7C40.3,7,41,7.7,41,8.5S40.3,10,39.5,10S38,9.3,38,8.5S38.7,7,39.5,7z M30.2,34v8c0,0.6-0.4,1-1,1
	c-0.6,0-1-0.4-1-1v-8c0-0.6,0.4-1,1-1C29.7,33,30.2,33.4,30.2,34z M29.2,5c-1.9,0-3.5,1.6-3.5,3.5s1.6,3.5,3.5,3.5
	c1.9,0,3.5-1.6,3.5-3.5S31.1,5,29.2,5z M29.2,10c-0.8,0-1.5-0.7-1.5-1.5S28.3,7,29.2,7s1.5,0.7,1.5,1.5S30,10,29.2,10z M19.8,36.5
	V42c0,0.6-0.4,1-1,1c-0.6,0-1-0.4-1-1v-5.5c0-0.6,0.4-1,1-1C19.4,35.5,19.8,35.9,19.8,36.5z M18.8,12c1.9,0,3.5-1.6,3.5-3.5
	S20.8,5,18.8,5s-3.5,1.6-3.5,3.5S16.9,12,18.8,12z M18.8,7c0.8,0,1.5,0.7,1.5,1.5S19.7,10,18.8,10s-1.5-0.7-1.5-1.5S18,7,18.8,7z
	 M8.5,14.8c-1.9,0-3.5,1.6-3.5,3.5v4c0,1.6,1.1,2.9,2.5,3.3V42c0,0.6,0.4,1,1,1s1-0.4,1-1V25.6c1.4-0.4,2.5-1.8,2.5-3.3v-4
	C12,16.3,10.4,14.8,8.5,14.8z M10,22.2c0,0.8-0.7,1.5-1.5,1.5S7,23.1,7,22.2v-4c0-0.8,0.7-1.5,1.5-1.5s1.5,0.7,1.5,1.5V22.2z M8.5,5
	C6.6,5,5,6.6,5,8.5S6.6,12,8.5,12S12,10.4,12,8.5S10.4,5,8.5,5z M8.5,10C7.7,10,7,9.3,7,8.5S7.7,7,8.5,7S10,7.7,10,8.5
	S9.3,10,8.5,10z M29,15l-10.4,2.3c-0.5,0.1-0.8,0.5-0.8,1v8.6c-0.4-0.2-0.9-0.3-1.4-0.3c-1.9,0-3.4,1.5-3.4,3.4
	c0,1.9,1.5,3.4,3.4,3.4c1.7,0,3.2-1.3,3.4-3c0.1-0.1,0.1-0.3,0.1-0.4V19.1l8.3-1.9v7.3c-0.4-0.2-0.9-0.3-1.5-0.3
	c-1.9,0-3.4,1.5-3.4,3.4s1.5,3.4,3.4,3.4c1.7,0,3.2-1.3,3.4-3c0.1-0.1,0.1-0.3,0.1-0.4V16c0-0.3-0.1-0.6-0.4-0.8
	C29.6,15,29.3,14.9,29,15z M17.8,30c0,0.8-0.6,1.4-1.4,1.4c-0.8,0-1.4-0.6-1.4-1.4c0-0.8,0.6-1.4,1.4-1.4
	C17.2,28.6,17.8,29.2,17.8,30C17.8,30,17.8,30,17.8,30z M26.8,29.1c-0.8,0-1.4-0.6-1.4-1.4c0-0.8,0.6-1.4,1.4-1.4
	c0.8,0,1.4,0.6,1.4,1.4C28.2,28.4,27.5,29.1,26.8,29.1z"/>
</svg>
