<svg xmlns="http://www.w3.org/2000/svg" viewBox="0 0 48 48"><defs><style>.cls-1,.cls-2,.cls-3{fill:none;}.cls-1,.cls-2{stroke:#fff;stroke-width:2px;}.cls-1{stroke-linecap:round;stroke-linejoin:round;}.cls-2{stroke-miterlimit:10;}</style></defs><g id="Pages_Adaptive_Speech_Isolation" data-name="Pages – Adaptive Speech Isolation"><path class="cls-1" d="M5.66,32.83a12.17,12.17,0,0,0,9.72,5H24L32.62,45V37.81a12.17,12.17,0,0,0,9.72-5"/><rect class="cls-2" x="22" y="15.25" width="4" height="13" rx="2"/><rect class="cls-2" x="3" y="17.25" width="4" height="9" rx="2"/><rect class="cls-2" x="41" y="17.25" width="4" height="9" rx="2"/><rect class="cls-1" x="12.5" y="13" width="4" height="17.5" rx="2"/><rect class="cls-2" x="31.5" y="13" width="4" height="17.5" rx="2"/><path class="cls-1" d="M42.47,11.14A12.21,12.21,0,0,0,32.62,6H15.38a12.21,12.21,0,0,0-9.85,5.15"/><rect class="cls-3" width="48" height="48"/></g></svg>