<svg id="Layer_1" data-name="Layer 1" xmlns="http://www.w3.org/2000/svg" xmlns:xlink="http://www.w3.org/1999/xlink" viewBox="0 0 60 60"><defs><style>.cls-1,.cls-4,.cls-6{fill:#fff;}.cls-1{opacity:0.2;}.cls-2,.cls-3{opacity:0.5;}.cls-2{fill:url(#linear-gradient);}.cls-3{fill:url(#linear-gradient-2);}.cls-5{fill:none;}.cls-5,.cls-6{stroke:#fff;stroke-linecap:round;stroke-linejoin:round;stroke-width:1.3px;}</style><linearGradient id="linear-gradient" x1="57.99" y1="35.04" x2="51.33" y2="40.73" gradientUnits="userSpaceOnUse"><stop offset="0" stop-color="#ff5898"/><stop offset="1" stop-color="#7d33ff"/></linearGradient><linearGradient id="linear-gradient-2" x1="55.28" y1="27.68" x2="-0.62" y2="36.12" gradientUnits="userSpaceOnUse"><stop offset="0" stop-color="#975cff"/><stop offset="1" stop-color="#3e44fe"/></linearGradient></defs><circle class="cls-1" cx="55.27" cy="37.37" r="3.39"/><rect class="cls-1" x="1.35" y="24.57" width="50.53" height="14.87" rx="5.52"/><circle class="cls-2" cx="55.27" cy="37.37" r="3.39"/><rect class="cls-3" x="1.35" y="24.57" width="50.53" height="14.87" rx="5.52"/><path class="cls-4" d="M25,34c0,.06,0,.13,0,.21a1.83,1.83,0,0,0,0,.21.19.19,0,0,0,0,.12.14.14,0,0,0,.13,0,.46.46,0,0,0,.2,0,.46.46,0,0,0,.17-.17,1.42,1.42,0,0,0,.13-.3,1.66,1.66,0,0,0,0-.42,1.69,1.69,0,0,0-.12-.66,1.27,1.27,0,0,0-.34-.48,1.34,1.34,0,0,0-.52-.3,2.28,2.28,0,0,0-.66-.1,1.8,1.8,0,0,0-.71.14,1.52,1.52,0,0,0-.56.37,1.65,1.65,0,0,0-.35.57,1.8,1.8,0,0,0-.13.71,1.91,1.91,0,0,0,.14.74,1.49,1.49,0,0,0,.39.56,1.81,1.81,0,0,0,.59.35,2.21,2.21,0,0,0,.74.12,2,2,0,0,0,.66-.1,1.83,1.83,0,0,0,.53-.29H26a2.15,2.15,0,0,1-.85.71,2.38,2.38,0,0,1-1.08.25,2.47,2.47,0,0,1-.95-.18,2.31,2.31,0,0,1-1.31-1.22,2.26,2.26,0,0,1-.19-.94,2.18,2.18,0,0,1,.19-.93,2.34,2.34,0,0,1,.52-.75,2.31,2.31,0,0,1,.76-.49,2.56,2.56,0,0,1,1.75-.05,2.3,2.3,0,0,1,.72.4,2.09,2.09,0,0,1,.51.66,1.9,1.9,0,0,1,.19.88,2,2,0,0,1-.08.58,1.63,1.63,0,0,1-.2.42,1.19,1.19,0,0,1-.28.27,1.05,1.05,0,0,1-.31.17,1.82,1.82,0,0,1-.29.08l-.24,0a.56.56,0,0,1-.38-.11.4.4,0,0,1-.12-.23h0A1.39,1.39,0,0,1,24,35a1,1,0,0,1-.49.11.91.91,0,0,1-.37-.08.74.74,0,0,1-.28-.22.89.89,0,0,1-.19-.33,1.43,1.43,0,0,1-.07-.43,1.6,1.6,0,0,1,.09-.53,1.86,1.86,0,0,1,.25-.46,1.23,1.23,0,0,1,.4-.31,1.12,1.12,0,0,1,.53-.12,1,1,0,0,1,.41.08.61.61,0,0,1,.27.28h0l0-.28h.59Zm-.59-.17a.77.77,0,0,0-.11-.42.39.39,0,0,0-.35-.16.52.52,0,0,0-.46.23.84.84,0,0,0-.17.55,1.27,1.27,0,0,0,0,.2.75.75,0,0,0,.07.18.4.4,0,0,0,.13.13.48.48,0,0,0,.22,0,.61.61,0,0,0,.32-.07.46.46,0,0,0,.21-.18.51.51,0,0,0,.1-.24A1.24,1.24,0,0,0,24.42,33.81Z"/><path class="cls-4" d="M29.82,34.83h-.6v-.28h0a.94.94,0,0,1-.09.12.45.45,0,0,1-.13.1l-.17.08a.66.66,0,0,1-.21,0,.87.87,0,0,1-.39-.08.45.45,0,0,1-.23-.2,1,1,0,0,1-.11-.31,2.17,2.17,0,0,1,0-.38V32.79h.63v1c0,.05,0,.12,0,.18a.85.85,0,0,0,0,.17.25.25,0,0,0,.09.13.29.29,0,0,0,.19,0,.4.4,0,0,0,.2,0,.25.25,0,0,0,.11-.12.44.44,0,0,0,.06-.16,1.34,1.34,0,0,0,0-.2v-1h.63Z"/><path class="cls-4" d="M31.46,33.39a.43.43,0,0,0-.36-.18.42.42,0,0,0-.16,0,.14.14,0,0,0-.07.13.11.11,0,0,0,.07.11l.2.07.26.06a.82.82,0,0,1,.26.1.47.47,0,0,1,.19.18.48.48,0,0,1,.08.31.53.53,0,0,1-.09.32.56.56,0,0,1-.22.21,1,1,0,0,1-.3.11l-.33,0a1.59,1.59,0,0,1-.43-.06.74.74,0,0,1-.37-.22l.38-.42a.7.7,0,0,0,.19.16.51.51,0,0,0,.25.06.6.6,0,0,0,.2,0,.12.12,0,0,0,.09-.12.14.14,0,0,0-.08-.12.8.8,0,0,0-.2-.06L30.77,34a1.17,1.17,0,0,1-.26-.1.57.57,0,0,1-.2-.18.55.55,0,0,1-.07-.31.62.62,0,0,1,.07-.31.76.76,0,0,1,.19-.21.65.65,0,0,1,.28-.12,1.1,1.1,0,0,1,.31,0,1.92,1.92,0,0,1,.41,0,.78.78,0,0,1,.35.21Z"/><path class="cls-4" d="M34.23,34.48a1.1,1.1,0,0,1-.38.29,1.2,1.2,0,0,1-.48.11,1.33,1.33,0,0,1-.45-.08,1.31,1.31,0,0,1-.36-.21,1.16,1.16,0,0,1-.24-.34,1,1,0,0,1-.09-.44,1,1,0,0,1,.09-.44,1,1,0,0,1,.24-.34,1.13,1.13,0,0,1,.36-.22,1.33,1.33,0,0,1,.45-.07,1,1,0,0,1,.39.07.84.84,0,0,1,.31.22,1,1,0,0,1,.19.34,1.45,1.45,0,0,1,.07.44V34H32.86a.48.48,0,0,0,.17.28.45.45,0,0,0,.31.11.44.44,0,0,0,.26-.07,1.07,1.07,0,0,0,.19-.18Zm-.53-.9a.41.41,0,0,0-.11-.28.39.39,0,0,0-.28-.11.58.58,0,0,0-.19,0,.6.6,0,0,0-.13.09.27.27,0,0,0-.09.12.83.83,0,0,0,0,.15Z"/><path class="cls-4" d="M34.75,32.79h.63v.32h0a.84.84,0,0,1,.24-.28.63.63,0,0,1,.35-.09h.11l.1,0v.57l-.14,0h-.13a.76.76,0,0,0-.29.05.36.36,0,0,0-.16.14.48.48,0,0,0-.07.22,2.13,2.13,0,0,0,0,.27v.86h-.63Z"/><path class="cls-4" d="M36.58,32.79h.6v.27h0a.31.31,0,0,1,.09-.11.47.47,0,0,1,.13-.11.67.67,0,0,1,.17-.08l.21,0a.81.81,0,0,1,.38.07.57.57,0,0,1,.23.2.77.77,0,0,1,.12.31,2.3,2.3,0,0,1,0,.38v1.13h-.62v-1c0-.06,0-.12,0-.18a.8.8,0,0,0,0-.18.26.26,0,0,0-.1-.13.3.3,0,0,0-.18-.05.4.4,0,0,0-.2,0,.34.34,0,0,0-.12.12.84.84,0,0,0-.05.17,1.15,1.15,0,0,0,0,.19v1h-.63Z"/><path class="cls-4" d="M40.31,34.57h0a.65.65,0,0,1-.28.24,1.16,1.16,0,0,1-.37.07.86.86,0,0,1-.28,0,.84.84,0,0,1-.23-.12.53.53,0,0,1-.16-.2.6.6,0,0,1-.06-.27.61.61,0,0,1,.24-.5,1.05,1.05,0,0,1,.26-.13,1.36,1.36,0,0,1,.29-.06l.31,0h.28a.34.34,0,0,0-.12-.27.45.45,0,0,0-.28-.1.64.64,0,0,0-.28.07.58.58,0,0,0-.23.18l-.34-.35a1.14,1.14,0,0,1,.41-.24,1.36,1.36,0,0,1,.49-.08,1.47,1.47,0,0,1,.46.06.67.67,0,0,1,.28.21.84.84,0,0,1,.15.33,2,2,0,0,1,0,.45v1h-.58Zm-.15-.64H40l-.21,0a.61.61,0,0,0-.16.09.21.21,0,0,0-.07.17.2.2,0,0,0,.09.17.49.49,0,0,0,.2.05.48.48,0,0,0,.18,0,.46.46,0,0,0,.16-.07.35.35,0,0,0,.1-.11.33.33,0,0,0,0-.17v-.14Z"/><path class="cls-4" d="M41.33,32.79h.61v.27h0A.31.31,0,0,1,42,33a.69.69,0,0,1,.13-.11l.17-.08.21,0a.79.79,0,0,1,.38.08.53.53,0,0,1,.25.28.73.73,0,0,1,.27-.28.74.74,0,0,1,.38-.08.91.91,0,0,1,.35.06.67.67,0,0,1,.22.19,1.1,1.1,0,0,1,.12.29,1.79,1.79,0,0,1,0,.34v1.21h-.63V33.64a.49.49,0,0,0-.06-.25.23.23,0,0,0-.22-.1.34.34,0,0,0-.18,0,.27.27,0,0,0-.12.09.47.47,0,0,0-.06.15,1.1,1.1,0,0,0,0,.18v1.08h-.63V33.61l0-.15a.5.5,0,0,0-.08-.12.29.29,0,0,0-.17-.05.4.4,0,0,0-.2,0,.25.25,0,0,0-.11.12.49.49,0,0,0-.06.17c0,.06,0,.12,0,.19v1h-.63Z"/><path class="cls-4" d="M47,34.48a1.1,1.1,0,0,1-.38.29,1.13,1.13,0,0,1-.48.11,1.27,1.27,0,0,1-.44-.08,1.07,1.07,0,0,1-.36-.21,1,1,0,0,1-.25-.34,1.23,1.23,0,0,1-.08-.44,1.19,1.19,0,0,1,.08-.44A.86.86,0,0,1,45.3,33a1,1,0,0,1,.36-.22,1.27,1.27,0,0,1,.44-.07,1,1,0,0,1,.4.07.73.73,0,0,1,.3.22.86.86,0,0,1,.19.34,1.2,1.2,0,0,1,.07.44V34H45.6a.47.47,0,0,0,.47.39.44.44,0,0,0,.26-.07.66.66,0,0,0,.19-.18Zm-.53-.9a.37.37,0,0,0-.11-.28.38.38,0,0,0-.28-.11.43.43,0,0,0-.32.12.27.27,0,0,0-.09.12.4.4,0,0,0,0,.15Z"/><rect class="cls-5" x="6.76" y="18.79" width="38.02" height="8.37" rx="1.81"/><path class="cls-5" d="M46.65,25.54h1.8a7.84,7.84,0,0,1,7.84,7.84h0a7.84,7.84,0,0,1-7.84,7.83H13a7.83,7.83,0,0,1-7.83-7.83h0a7.73,7.73,0,0,1,1-3.8"/><path class="cls-4" d="M24.41,23.54a.28.28,0,0,0-.11.24.24.24,0,0,0,.11.22.42.42,0,0,0,.29.09.62.62,0,0,0,.44-.16.54.54,0,0,0,.16-.4v-.07h-.56A.54.54,0,0,0,24.41,23.54Z"/><path class="cls-4" d="M16.14,23.54a.3.3,0,0,0,0,.46.44.44,0,0,0,.29.09.61.61,0,0,0,.44-.16.51.51,0,0,0,.16-.4v-.07h-.56A.49.49,0,0,0,16.14,23.54Z"/><path class="cls-4" d="M27.24,22.62a.56.56,0,0,0-.45.2.81.81,0,0,0,0,1,.61.61,0,0,0,.9,0,.7.7,0,0,0,.18-.5.73.73,0,0,0-.18-.52A.56.56,0,0,0,27.24,22.62Z"/><polygon class="cls-4" points="10.28 23.26 11.1 23.26 11.22 22.48 10.39 22.48 10.28 23.26"/><path class="cls-4" d="M39.44,22.51a.39.39,0,0,0-.34.18.89.89,0,0,0-.13.52v.07a.84.84,0,0,0,.13.51.4.4,0,0,0,.68,0,.91.91,0,0,0,.13-.51v-.07a1,1,0,0,0-.13-.52A.39.39,0,0,0,39.44,22.51Z"/><path class="cls-4" d="M43.83,18.9H7.72a1,1,0,0,0-1,1v6.47a1,1,0,0,0,1,.95H43.83a1,1,0,0,0,1-.95V19.85A1,1,0,0,0,43.83,18.9ZM12.49,22.48h-.66l-.12.78h.63v.61h-.72l-.16,1.07h-.61L11,23.87h-.82L10,24.94H9.42l.17-1.07H9v-.61h.67l.1-.78H9.16v-.61h.71L10,20.8h.6l-.16,1.07h.83l.16-1.07h.61l-.17,1.07h.58Zm2.74,1.93h-.45V23.25a.68.68,0,0,0-.13-.46.47.47,0,0,0-.39-.16.52.52,0,0,0-.42.18.82.82,0,0,0-.15.52v1.08h-.46V21.47h.46v1.1a.79.79,0,0,1,.67-.33.89.89,0,0,1,.63.23,1,1,0,0,1,.24.76Zm2.47,0h-.23a.44.44,0,0,1-.31-.09.32.32,0,0,1-.09-.25.79.79,0,0,1-.71.37,1,1,0,0,1-.58-.17.57.57,0,0,1-.22-.46.6.6,0,0,1,.24-.51,1.08,1.08,0,0,1,.68-.18H17V23a.34.34,0,0,0-.12-.28.54.54,0,0,0-.35-.11.58.58,0,0,0-.33.09.36.36,0,0,0-.15.23h-.44a.63.63,0,0,1,.28-.5,1.12,1.12,0,0,1,.66-.18,1,1,0,0,1,.67.2.71.71,0,0,1,.23.58v.85a.13.13,0,0,0,.15.15h.08Zm1.94-.29a.87.87,0,0,1-.32.24,1.4,1.4,0,0,1-.47.08,1.16,1.16,0,0,1-.7-.2.65.65,0,0,1-.27-.54h.44a.35.35,0,0,0,.15.28.63.63,0,0,0,.38.11.62.62,0,0,0,.33-.08.23.23,0,0,0,.13-.21.2.2,0,0,0-.06-.16.27.27,0,0,0-.16-.08,2.26,2.26,0,0,0-.3,0,2.2,2.2,0,0,1-.46-.09.69.69,0,0,1-.3-.18.49.49,0,0,1-.11-.33.64.64,0,0,1,.11-.36.72.72,0,0,1,.31-.23,1,1,0,0,1,.44-.09,1.12,1.12,0,0,1,.66.18.66.66,0,0,1,.28.51h-.44a.32.32,0,0,0-.15-.24.58.58,0,0,0-.33-.09.61.61,0,0,0-.32.07.24.24,0,0,0-.12.21.17.17,0,0,0,.06.14.34.34,0,0,0,.16.07l.29,0a2.46,2.46,0,0,1,.47.09.59.59,0,0,1,.3.2.52.52,0,0,1,.12.36A.55.55,0,0,1,19.64,24.12Zm2.49.29h-.46V23.25a.68.68,0,0,0-.13-.46.46.46,0,0,0-.38-.16.55.55,0,0,0-.43.18.82.82,0,0,0-.15.52v1.08h-.45V21.47h.45v1.1a.8.8,0,0,1,.68-.33.88.88,0,0,1,.62.23,1,1,0,0,1,.25.76Zm1.57,0h-.43a.58.58,0,0,1-.45-.14.61.61,0,0,1-.14-.44V22.66H22.3v-.4h.38v-.6h.46v.6h.51v.4h-.51v1.12c0,.09,0,.15.05.18s.09.05.17.05h.34Zm2.28,0h-.24a.41.41,0,0,1-.3-.09.32.32,0,0,1-.09-.25.8.8,0,0,1-.71.37.91.91,0,0,1-.58-.17.54.54,0,0,1-.22-.46.62.62,0,0,1,.23-.51,1.13,1.13,0,0,1,.69-.18h.54V23a.32.32,0,0,0-.13-.28.61.61,0,0,0-.67,0,.3.3,0,0,0-.15.23H23.9a.64.64,0,0,1,.29-.5,1.08,1.08,0,0,1,.66-.18,1,1,0,0,1,.66.2.71.71,0,0,1,.24.58v.85c0,.1.05.15.14.15H26Zm2.34-.09a.92.92,0,0,1-.27.71,1.23,1.23,0,0,1-.83.25,1.17,1.17,0,0,1-.71-.2.7.7,0,0,1-.31-.55h.46a.47.47,0,0,0,.2.28.67.67,0,0,0,.39.1.54.54,0,0,0,.62-.6v-.24a.8.8,0,0,1-.7.35,1,1,0,0,1-.53-.13.94.94,0,0,1-.36-.38,1.18,1.18,0,0,1-.13-.58,1.14,1.14,0,0,1,.13-.57,1,1,0,0,1,.36-.39,1,1,0,0,1,.53-.13.93.93,0,0,1,.42.09.9.9,0,0,1,.28.27l.05-.34h.4Zm10-.08H38V22.89a.19.19,0,0,1-.12,0h-.33v-.27h.32a.12.12,0,0,0,.1,0,.18.18,0,0,0,0-.13v-.22h.31Zm1.88-.95a1.13,1.13,0,0,1-.1.51.71.71,0,0,1-.27.34.73.73,0,0,1-.41.12.71.71,0,0,1-.41-.12.79.79,0,0,1-.28-.34,1.29,1.29,0,0,1-.1-.51V23.2a1.36,1.36,0,0,1,.1-.51.86.86,0,0,1,.28-.34.76.76,0,0,1,.82,0,.84.84,0,0,1,.27.34,1.19,1.19,0,0,1,.1.51Zm1.6.95-.62-.91-.35.39v.52h-.32v-2h.32v1l.92-1h.4l-.74.83.79,1.16Z"/><path class="cls-6" d="M10.13,36.94a4,4,0,0,1,6,0,4.66,4.66,0,1,0-6,0Zm3-6.58A2.16,2.16,0,1,1,11,32.52,2.16,2.16,0,0,1,13.13,30.36Z"/></svg>