<svg width="17" height="18" viewBox="0 0 17 18" fill="none" xmlns="../../../../../../www.w3.org/2000/svg.html">
<g clip-path="url(#clip0_565_1304)">
<path d="M15.9409 1.19516L12.6035 1.15006C12.5175 1.15486 12.4314 1.14169 12.3508 1.11135C12.2681 1.08027 12.193 1.03188 12.1306 0.969431C12.0681 0.906981 12.0197 0.831909 11.9887 0.749244C11.9582 0.668129 11.945 0.581541 11.95 0.495066C11.9513 0.324458 12.0197 0.161116 12.1404 0.0403807C12.2623 -0.081518 12.4276 -0.15 12.6 -0.15H12.6015V-0.149992L17.4962 -0.100047C17.5823 -0.10489 17.6685 -0.0917201 17.7493 -0.0613535C17.8319 -0.0302683 17.907 0.0181196 17.9694 0.0805685C18.0319 0.143019 18.0803 0.218091 18.1114 0.300756C18.1419 0.382024 18.1551 0.468788 18.15 0.555428L18.1 5.45C18.1 5.45028 18.1 5.45056 18.1 5.45084L18.1 5.45153L17.95 5.45C17.95 5.58261 17.8973 5.70979 17.8036 5.80355C17.7098 5.89732 17.5826 5.95 17.45 5.95L15.9409 1.19516ZM15.9409 1.19516L9.04431 8.04356L9.04431 8.04355L9.04289 8.045C8.92379 8.1665 8.85708 8.32986 8.85708 8.5C8.85708 8.67014 8.92379 8.8335 9.04289 8.955L9.04284 8.95505L9.0461 8.95819C9.16696 9.07426 9.32592 9.14239 9.49333 9.14985L9.49333 9.14987L9.49598 9.14995C9.58336 9.15229 9.6702 9.13568 9.75054 9.10125C9.82953 9.06739 9.90039 9.01711 9.95841 8.95375L16.8451 2.11526L16.8001 5.4443C16.7949 5.53103 16.8081 5.61789 16.8387 5.69924C16.8697 5.78191 16.9181 5.85698 16.9806 5.91943C17.043 5.98188 17.1181 6.03027 17.2008 6.06135C17.2819 6.09185 17.3685 6.10501 17.4549 6.09998L15.9409 1.19516Z" fill="#AA33FF" stroke="#AA33FF" stroke-width="0.3"/>
<path d="M16 7.09968C15.9152 7.09543 15.8304 7.10865 15.7508 7.13857C15.6681 7.16966 15.5931 7.21805 15.5306 7.2805C15.4682 7.34295 15.4198 7.41802 15.3887 7.50068C15.3582 7.5817 15.3451 7.66817 15.35 7.75454V16.8499H1.15005V2.64993H9.14543C9.2318 2.6549 9.31828 2.64174 9.39929 2.61128C9.48196 2.58019 9.55703 2.53181 9.61948 2.46936C9.68193 2.40691 9.73032 2.33184 9.7614 2.24917C9.79132 2.1696 9.80455 2.08476 9.8003 1.99993C9.80455 1.91509 9.79132 1.83025 9.7614 1.75068C9.73032 1.66802 9.68193 1.59295 9.61948 1.5305C9.55703 1.46805 9.48196 1.41966 9.39929 1.38857C9.31828 1.35811 9.2318 1.34495 9.14543 1.34993H0.504662C0.418293 1.34495 0.331818 1.35811 0.250805 1.38857C0.168139 1.41966 0.0930674 1.46805 0.0306172 1.5305C-0.0318328 1.59295 -0.0802199 1.66802 -0.111305 1.75068C-0.141768 1.8317 -0.154924 1.91817 -0.149951 2.00454V17.4953C-0.154924 17.5817 -0.141768 17.6682 -0.111305 17.7492C-0.0802201 17.8318 -0.0318331 17.9069 0.030618 17.9694C0.0930663 18.0318 0.168138 18.0802 0.250807 18.1113C0.331823 18.1417 0.418302 18.1549 0.504678 18.1499H15.9954C16.0818 18.1549 16.1683 18.1417 16.2493 18.1113C16.332 18.0802 16.407 18.0318 16.4695 17.9694C16.5319 17.9069 16.5803 17.8318 16.6114 17.7492C16.6419 17.6682 16.655 17.5817 16.65 17.4953V7.75456C16.655 7.66818 16.6419 7.5817 16.6114 7.50069C16.5803 7.41802 16.5319 7.34295 16.4695 7.2805C16.407 7.21805 16.332 7.16966 16.2493 7.13857C16.1697 7.10865 16.0849 7.09543 16 7.09968Z" fill="#AA33FF" stroke="#AA33FF" stroke-width="0.3"/>
</g>
<defs>
<clipPath id="clip0_565_1304">
<rect width="18" height="18" fill="white"/>
</clipPath>
</defs>
</svg>
